G04 Layer_Physical_Order=2*
G04 Layer_Color=16711680*
%FSLAX25Y25*%
%MOIN*%
G70*
G01*
G75*
%ADD10R,0.05905X0.05512*%
%ADD11P,0.06392X8X112.5*%
%ADD17R,0.05512X0.05905*%
%ADD18O,0.02362X0.08661*%
%ADD20R,0.04528X0.02362*%
%ADD23C,0.02400*%
%ADD25C,0.00800*%
%ADD26R,0.18000X0.18000*%
%ADD27C,0.05905*%
%ADD28R,0.05905X0.05905*%
%ADD29R,0.05905X0.05905*%
%ADD30C,0.03000*%
%ADD31R,0.02400X0.02400*%
%ADD32R,0.02400X0.02400*%
%ADD33O,0.08661X0.02362*%
%ADD34R,0.03937X0.02362*%
%ADD35R,0.13780X0.04724*%
%ADD36R,0.04331X0.06693*%
%ADD37R,0.06693X0.04331*%
%ADD38O,0.01181X0.06693*%
G36*
X374016Y0D02*
X244795D01*
X244746Y500D01*
X245476Y645D01*
X246302Y1198D01*
X246855Y2025D01*
X246950Y2500D01*
X242051D01*
X242145Y2025D01*
X242698Y1198D01*
X243525Y645D01*
X244254Y500D01*
X244204Y0D01*
X221658D01*
X221507Y500D01*
X221802Y698D01*
X222355Y1524D01*
X222449Y2000D01*
X217550D01*
X217645Y1524D01*
X218198Y698D01*
X218493Y500D01*
X218342Y0D01*
X191296D01*
X191246Y500D01*
X191975Y645D01*
X192802Y1198D01*
X193355Y2025D01*
X193449Y2500D01*
X188550D01*
X188645Y2025D01*
X189198Y1198D01*
X190024Y645D01*
X190754Y500D01*
X190705Y0D01*
X65873D01*
X65751Y450D01*
X65751Y452D01*
X66194Y589D01*
X66475Y645D01*
X67302Y1198D01*
X67855Y2025D01*
X67949Y2500D01*
X63051D01*
X63145Y2025D01*
X63698Y1198D01*
X64525Y645D01*
X64806Y589D01*
X65249Y452D01*
X65249Y450D01*
X65127Y0D01*
X49373D01*
X49251Y450D01*
X49251Y452D01*
X49694Y589D01*
X49975Y645D01*
X50802Y1198D01*
X51355Y2025D01*
X51450Y2500D01*
X46551D01*
X46645Y2025D01*
X47198Y1198D01*
X48024Y645D01*
X48306Y589D01*
X48749Y452D01*
X48749Y450D01*
X48627Y0D01*
X0D01*
Y118110D01*
X374016D01*
Y0D01*
D02*
G37*
%LPC*%
G36*
X348000Y29950D02*
Y28000D01*
X349950D01*
X349855Y28475D01*
X349302Y29302D01*
X348476Y29855D01*
X348000Y29950D01*
D02*
G37*
G36*
X347000D02*
X346525Y29855D01*
X345698Y29302D01*
X345145Y28475D01*
X345051Y28000D01*
X347000D01*
Y29950D01*
D02*
G37*
G36*
X12000Y37000D02*
X10051D01*
X10145Y36525D01*
X10366Y36194D01*
X10130Y35753D01*
X4247D01*
Y28247D01*
X11753D01*
Y34706D01*
X12000Y34909D01*
Y37000D01*
D02*
G37*
G36*
X63500Y35437D02*
X60047D01*
Y32181D01*
X63500D01*
Y35437D01*
D02*
G37*
G36*
X258000Y29950D02*
Y28000D01*
X259949D01*
X259855Y28475D01*
X259302Y29302D01*
X258475Y29855D01*
X258000Y29950D01*
D02*
G37*
G36*
X247000D02*
X246525Y29855D01*
X245698Y29302D01*
X245145Y28475D01*
X245051Y28000D01*
X247000D01*
Y29950D01*
D02*
G37*
G36*
X238000D02*
Y28000D01*
X239949D01*
X239855Y28475D01*
X239302Y29302D01*
X238475Y29855D01*
X238000Y29950D01*
D02*
G37*
G36*
X257000D02*
X256524Y29855D01*
X255698Y29302D01*
X255145Y28475D01*
X255050Y28000D01*
X257000D01*
Y29950D01*
D02*
G37*
G36*
X248000D02*
Y28000D01*
X249950D01*
X249855Y28475D01*
X249302Y29302D01*
X248476Y29855D01*
X248000Y29950D01*
D02*
G37*
G36*
X67953Y35437D02*
X64500D01*
Y32181D01*
X67953D01*
Y35437D01*
D02*
G37*
G36*
X13000Y39950D02*
Y38000D01*
X14950D01*
X14855Y38475D01*
X14302Y39302D01*
X13476Y39855D01*
X13000Y39950D01*
D02*
G37*
G36*
X11921Y41500D02*
X8500D01*
Y38079D01*
X9032Y38149D01*
X9619Y38392D01*
X10057Y38032D01*
X10051Y38000D01*
X12000D01*
Y39950D01*
X11968Y39943D01*
X11608Y40381D01*
X11851Y40968D01*
X11921Y41500D01*
D02*
G37*
G36*
X53000Y39950D02*
Y38000D01*
X54949D01*
X54855Y38475D01*
X54302Y39302D01*
X53475Y39855D01*
X53000Y39950D01*
D02*
G37*
G36*
X7500Y41500D02*
X4079D01*
X4149Y40968D01*
X4547Y40007D01*
X5181Y39181D01*
X6007Y38547D01*
X6968Y38149D01*
X7500Y38079D01*
Y41500D01*
D02*
G37*
G36*
X292000Y39950D02*
X291525Y39855D01*
X290698Y39302D01*
X290145Y38475D01*
X290051Y38000D01*
X292000D01*
Y39950D01*
D02*
G37*
G36*
X54949Y37000D02*
X53000D01*
Y35050D01*
X53475Y35145D01*
X54302Y35698D01*
X54855Y36525D01*
X54949Y37000D01*
D02*
G37*
G36*
X331921Y37500D02*
X328500D01*
Y34079D01*
X329032Y34149D01*
X329993Y34547D01*
X330819Y35181D01*
X331453Y36007D01*
X331851Y36968D01*
X331921Y37500D01*
D02*
G37*
G36*
X292000Y37000D02*
X290051D01*
X290145Y36525D01*
X290698Y35698D01*
X291525Y35145D01*
X292000Y35050D01*
Y37000D01*
D02*
G37*
G36*
X67953Y39693D02*
X64500D01*
Y36437D01*
X67953D01*
Y39693D01*
D02*
G37*
G36*
X63500D02*
X60047D01*
Y36437D01*
X63500D01*
Y39693D01*
D02*
G37*
G36*
X249950Y27000D02*
X248000D01*
Y25051D01*
X248476Y25145D01*
X249302Y25698D01*
X249855Y26524D01*
X249950Y27000D01*
D02*
G37*
G36*
X247000D02*
X245051D01*
X245145Y26524D01*
X245698Y25698D01*
X246525Y25145D01*
X247000Y25051D01*
Y27000D01*
D02*
G37*
G36*
X257000D02*
X255050D01*
X255145Y26524D01*
X255698Y25698D01*
X256524Y25145D01*
X257000Y25051D01*
Y27000D01*
D02*
G37*
G36*
X347000D02*
X345051D01*
X345145Y26524D01*
X345698Y25698D01*
X346525Y25145D01*
X347000Y25051D01*
Y27000D01*
D02*
G37*
G36*
X259949D02*
X258000D01*
Y25051D01*
X258475Y25145D01*
X259302Y25698D01*
X259855Y26524D01*
X259949Y27000D01*
D02*
G37*
G36*
X80185Y28346D02*
X77520D01*
Y24500D01*
X80185D01*
Y28346D01*
D02*
G37*
G36*
X117449Y26000D02*
X115500D01*
Y24050D01*
X115975Y24145D01*
X116802Y24698D01*
X117355Y25525D01*
X117449Y26000D01*
D02*
G37*
G36*
X83850Y28346D02*
X81185D01*
Y24500D01*
X83850D01*
Y28346D01*
D02*
G37*
G36*
X239949Y27000D02*
X238000D01*
Y25051D01*
X238475Y25145D01*
X239302Y25698D01*
X239855Y26524D01*
X239949Y27000D01*
D02*
G37*
G36*
X237000D02*
X235051D01*
X235145Y26524D01*
X235698Y25698D01*
X236525Y25145D01*
X237000Y25051D01*
Y27000D01*
D02*
G37*
G36*
X190500Y29921D02*
Y26500D01*
X193921D01*
X193851Y27032D01*
X193453Y27993D01*
X192819Y28819D01*
X191993Y29453D01*
X191032Y29851D01*
X190500Y29921D01*
D02*
G37*
G36*
X189500D02*
X188968Y29851D01*
X188007Y29453D01*
X187181Y28819D01*
X186547Y27993D01*
X186149Y27032D01*
X186079Y26500D01*
X189500D01*
Y29921D01*
D02*
G37*
G36*
X114500Y28949D02*
X114024Y28855D01*
X113198Y28302D01*
X112645Y27476D01*
X112550Y27000D01*
X114500D01*
Y28949D01*
D02*
G37*
G36*
X237000Y29950D02*
X236525Y29855D01*
X235698Y29302D01*
X235145Y28475D01*
X235051Y28000D01*
X237000D01*
Y29950D01*
D02*
G37*
G36*
X115500Y28949D02*
Y27000D01*
X117449D01*
X117355Y27476D01*
X116802Y28302D01*
X115975Y28855D01*
X115500Y28949D01*
D02*
G37*
G36*
X357000Y27000D02*
X355050D01*
X355145Y26524D01*
X355698Y25698D01*
X356524Y25145D01*
X357000Y25051D01*
Y27000D01*
D02*
G37*
G36*
X349950D02*
X348000D01*
Y25051D01*
X348476Y25145D01*
X349302Y25698D01*
X349855Y26524D01*
X349950Y27000D01*
D02*
G37*
G36*
X359949D02*
X358000D01*
Y25051D01*
X358475Y25145D01*
X359302Y25698D01*
X359855Y26524D01*
X359949Y27000D01*
D02*
G37*
G36*
X369950D02*
X368000D01*
Y25051D01*
X368476Y25145D01*
X369302Y25698D01*
X369855Y26524D01*
X369950Y27000D01*
D02*
G37*
G36*
X367000D02*
X365051D01*
X365145Y26524D01*
X365698Y25698D01*
X366525Y25145D01*
X367000Y25051D01*
Y27000D01*
D02*
G37*
G36*
X131953Y55563D02*
X128500D01*
Y52307D01*
X131953D01*
Y55563D01*
D02*
G37*
G36*
X127500D02*
X124047D01*
Y52307D01*
X127500D01*
Y55563D01*
D02*
G37*
G36*
X71753Y95753D02*
X64247D01*
Y88247D01*
X65961D01*
Y86000D01*
X66116Y85220D01*
X66558Y84558D01*
X71961Y79155D01*
Y56000D01*
Y46039D01*
X54798D01*
X54531Y46539D01*
X54855Y47025D01*
X54949Y47500D01*
X50050D01*
X50145Y47025D01*
X50469Y46539D01*
X50202Y46039D01*
X41394D01*
X40614Y45884D01*
X39952Y45442D01*
X39864Y45354D01*
X24224D01*
Y47051D01*
X24658Y47342D01*
X25167Y48103D01*
X25345Y49000D01*
X25167Y49897D01*
X24658Y50658D01*
X23897Y51167D01*
X23000Y51345D01*
X22103Y51167D01*
X21342Y50658D01*
X20833Y49897D01*
X20655Y49000D01*
X20833Y48103D01*
X21342Y47342D01*
X21777Y47051D01*
Y46280D01*
X13854D01*
Y40350D01*
X22146D01*
Y41276D01*
X28253D01*
X28663Y40776D01*
X28645Y40685D01*
Y39224D01*
X26949D01*
X26658Y39658D01*
X25897Y40167D01*
X25000Y40345D01*
X24103Y40167D01*
X23342Y39658D01*
X22833Y38897D01*
X22655Y38000D01*
X22833Y37103D01*
X23342Y36342D01*
X24103Y35833D01*
X25000Y35655D01*
X25897Y35833D01*
X26658Y36342D01*
X26949Y36777D01*
X28645D01*
Y35173D01*
X28753Y34631D01*
X28901Y34409D01*
X28634Y33909D01*
X25903D01*
X25757Y34127D01*
X25095Y34569D01*
X24315Y34724D01*
X22146D01*
Y35650D01*
X14872D01*
X14605Y36150D01*
X14855Y36525D01*
X14950Y37000D01*
X13000D01*
Y35050D01*
X13353Y35121D01*
X13854Y34842D01*
Y29720D01*
X22146D01*
X22276Y29273D01*
Y16685D01*
X22431Y15905D01*
X22873Y15243D01*
X25558Y12558D01*
X26220Y12116D01*
X27000Y11961D01*
X29961D01*
Y11039D01*
X28000D01*
X27220Y10884D01*
X26558Y10442D01*
X26116Y9780D01*
X25961Y9000D01*
X26116Y8220D01*
X26558Y7558D01*
X27220Y7116D01*
X28000Y6961D01*
X32000D01*
X32097Y6980D01*
X35150D01*
X35923Y7134D01*
X36578Y7572D01*
X37016Y8227D01*
X37170Y9000D01*
X37016Y9773D01*
X36578Y10428D01*
X35923Y10866D01*
X35150Y11020D01*
X34039D01*
Y11980D01*
X35150D01*
X35923Y12134D01*
X36578Y12572D01*
X37016Y13227D01*
X37170Y14000D01*
X37016Y14773D01*
X36578Y15428D01*
X35923Y15866D01*
X35150Y16020D01*
X32097D01*
X32000Y16039D01*
X27845D01*
X26354Y17530D01*
Y18832D01*
X26854Y18881D01*
X26984Y18227D01*
X27422Y17572D01*
X28077Y17134D01*
X28850Y16980D01*
X31903D01*
X32000Y16961D01*
X32097Y16980D01*
X35150D01*
X35923Y17134D01*
X36578Y17572D01*
X37016Y18227D01*
X37170Y19000D01*
X37016Y19773D01*
X36578Y20428D01*
X35923Y20866D01*
X35150Y21020D01*
X34039D01*
Y21980D01*
X35150D01*
X35923Y22134D01*
X36578Y22572D01*
X37016Y23227D01*
X37170Y24000D01*
X37016Y24773D01*
X36578Y25428D01*
X35923Y25866D01*
X35534Y25943D01*
X35370Y26486D01*
X36845Y27961D01*
X39000D01*
X39780Y28116D01*
X40442Y28558D01*
X48673Y36789D01*
X48897Y36833D01*
X49494Y37232D01*
X49979Y37091D01*
X50042Y37043D01*
X50145Y36525D01*
X50698Y35698D01*
X51525Y35145D01*
X52000Y35050D01*
Y37500D01*
Y39950D01*
X51525Y39855D01*
X50783Y39360D01*
X50426Y39432D01*
X50242Y39520D01*
X50167Y39897D01*
X49658Y40658D01*
X48897Y41167D01*
X48000Y41345D01*
X47103Y41167D01*
X46342Y40658D01*
X46051Y40224D01*
X42000D01*
X41532Y40130D01*
X41135Y39865D01*
X40422Y39153D01*
X39355D01*
Y40685D01*
X39337Y40776D01*
X39747Y41276D01*
X40709D01*
X41489Y41431D01*
X42151Y41873D01*
X42239Y41961D01*
X72000D01*
Y40997D01*
X71961Y40800D01*
Y38000D01*
X72116Y37220D01*
X72558Y36558D01*
X76007Y33109D01*
X76669Y32667D01*
X77449Y32512D01*
X90461D01*
Y30345D01*
X89873Y29757D01*
X89431Y29095D01*
X89276Y28315D01*
Y28146D01*
X88350D01*
Y19854D01*
X90661D01*
X90806Y19375D01*
X90698Y19302D01*
X90145Y18475D01*
X90051Y18000D01*
X94950D01*
X94855Y18475D01*
X94302Y19302D01*
X94145Y19408D01*
X94280Y19854D01*
X94280D01*
Y21961D01*
X96507D01*
Y20247D01*
X103619D01*
Y27257D01*
X103965Y27554D01*
X104314Y27481D01*
X104381Y27420D01*
Y20247D01*
X106713D01*
Y19444D01*
X103493Y16224D01*
X97000D01*
X96532Y16130D01*
X96135Y15865D01*
X91993Y11723D01*
X91493Y11930D01*
Y11981D01*
X85365D01*
Y8019D01*
X91493D01*
Y8777D01*
X92000D01*
X92468Y8870D01*
X92865Y9135D01*
X97507Y13777D01*
X104000D01*
X104468Y13870D01*
X104865Y14135D01*
X108802Y18072D01*
X109067Y18469D01*
X109160Y18937D01*
Y20247D01*
X111493D01*
Y27753D01*
X108919D01*
X108802Y27928D01*
X107799Y28931D01*
X107964Y29474D01*
X108273Y29535D01*
X108928Y29973D01*
X109366Y30629D01*
X109520Y31402D01*
Y32512D01*
X114604D01*
X118558Y28558D01*
X119220Y28116D01*
X120000Y27961D01*
X125720D01*
Y25854D01*
X126646D01*
Y21501D01*
X126107Y21278D01*
X125323Y20676D01*
X124722Y19893D01*
X124623Y19654D01*
X124016Y19494D01*
X123476Y19855D01*
X123000Y19950D01*
Y17500D01*
X122500D01*
Y17000D01*
X120051D01*
X120145Y16524D01*
X120698Y15698D01*
X120935Y15539D01*
X120783Y15039D01*
X114937D01*
X114157Y14884D01*
X113495Y14442D01*
X113495Y14442D01*
X108806Y9753D01*
X104381D01*
Y2247D01*
X111493D01*
Y6672D01*
X115782Y10961D01*
X124247D01*
Y4247D01*
X131753D01*
Y10961D01*
X171155D01*
X175558Y6558D01*
X176220Y6116D01*
X177000Y5961D01*
X190507D01*
X190557Y5461D01*
X190024Y5355D01*
X189198Y4802D01*
X188645Y3976D01*
X188550Y3500D01*
X193449D01*
X193355Y3976D01*
X192802Y4802D01*
X191975Y5355D01*
X191443Y5461D01*
X191492Y5961D01*
X244007D01*
X244057Y5461D01*
X243525Y5355D01*
X242698Y4802D01*
X242145Y3976D01*
X242051Y3500D01*
X246950D01*
X246855Y3976D01*
X246302Y4802D01*
X245476Y5355D01*
X244943Y5461D01*
X244992Y5961D01*
X250247D01*
Y4247D01*
X257753D01*
Y11753D01*
X250247D01*
Y10039D01*
X177845D01*
X174039Y13845D01*
Y22000D01*
X174000Y22197D01*
Y23161D01*
X177535D01*
X177961Y22835D01*
Y19753D01*
X176570D01*
Y12247D01*
X183682D01*
Y19753D01*
X182039D01*
Y22835D01*
X182676Y23324D01*
X183278Y24107D01*
X183656Y25020D01*
X183785Y26000D01*
X183656Y26980D01*
X183278Y27893D01*
X182676Y28677D01*
X181893Y29278D01*
X180980Y29656D01*
X180000Y29785D01*
X179020Y29656D01*
X178107Y29278D01*
X177323Y28677D01*
X176722Y27893D01*
X176451Y27239D01*
X167288D01*
X167097Y27367D01*
X166200Y27545D01*
X165303Y27367D01*
X164542Y26858D01*
X164033Y26097D01*
X163855Y25200D01*
X164033Y24303D01*
X164542Y23542D01*
X165303Y23033D01*
X166200Y22855D01*
X167097Y23033D01*
X167288Y23161D01*
X170000D01*
Y22197D01*
X169961Y22000D01*
Y15039D01*
X164217D01*
X164065Y15539D01*
X164302Y15698D01*
X164855Y16524D01*
X164950Y17000D01*
X160050D01*
X160145Y16524D01*
X160698Y15698D01*
X160935Y15539D01*
X160783Y15039D01*
X144147D01*
Y20280D01*
X141354D01*
Y25854D01*
X142280D01*
Y34146D01*
X136350D01*
Y25854D01*
X137276D01*
Y20280D01*
X135854D01*
Y15039D01*
X131089D01*
X130842Y15539D01*
X131278Y16107D01*
X131656Y17020D01*
X131785Y18000D01*
X131656Y18980D01*
X131278Y19893D01*
X130724Y20614D01*
Y25854D01*
X131650D01*
Y34146D01*
X125720D01*
Y32039D01*
X120845D01*
X116891Y35993D01*
X116229Y36435D01*
X115449Y36590D01*
X109520D01*
Y37701D01*
X109366Y38474D01*
X108928Y39129D01*
X108273Y39567D01*
X107500Y39721D01*
X106727Y39567D01*
X106072Y39129D01*
X105634Y38474D01*
X105480Y37701D01*
Y34648D01*
X105461Y34551D01*
X105480Y34454D01*
Y31402D01*
X105615Y30724D01*
X105349Y30224D01*
X104697D01*
X104504Y30459D01*
X104374Y30669D01*
X104520Y31402D01*
Y37701D01*
X104366Y38474D01*
X103928Y39129D01*
X103273Y39567D01*
X102500Y39721D01*
X101727Y39567D01*
X101072Y39129D01*
X100634Y38474D01*
X100480Y37701D01*
Y31402D01*
X100634Y30629D01*
X101072Y29973D01*
X101727Y29535D01*
X101736Y29534D01*
X103017Y28253D01*
X102862Y27787D01*
X102835Y27753D01*
X96507D01*
Y26039D01*
X94280D01*
Y28146D01*
X94280D01*
X94156Y28379D01*
X94384Y28720D01*
X94539Y29500D01*
Y34551D01*
X94520Y34648D01*
Y37701D01*
X94380Y38403D01*
X94531Y38783D01*
X94595Y38903D01*
X95363D01*
X95670Y38528D01*
X95634Y38474D01*
X95480Y37701D01*
Y31402D01*
X95634Y30629D01*
X96072Y29973D01*
X96727Y29535D01*
X97500Y29382D01*
X98273Y29535D01*
X98928Y29973D01*
X99366Y30629D01*
X99520Y31402D01*
Y37701D01*
X99366Y38474D01*
X98928Y39129D01*
X98273Y39567D01*
X98136Y39594D01*
X96739Y40991D01*
X96342Y41256D01*
X95874Y41350D01*
X85753D01*
Y43682D01*
X78247D01*
Y37290D01*
X77785Y37099D01*
X76039Y38845D01*
Y40800D01*
X76000Y40997D01*
Y43803D01*
X76039Y44000D01*
Y53961D01*
X79912D01*
X80103Y53834D01*
X81000Y53655D01*
X81897Y53834D01*
X82658Y54342D01*
X83166Y55103D01*
X83345Y56000D01*
X83166Y56897D01*
X82658Y57658D01*
X81897Y58166D01*
X81000Y58345D01*
X80103Y58166D01*
X79912Y58039D01*
X76039D01*
Y80000D01*
X75884Y80780D01*
X75442Y81442D01*
X70039Y86845D01*
Y88247D01*
X71753D01*
Y95753D01*
D02*
G37*
G36*
X55500Y57500D02*
X52244D01*
Y54047D01*
X55500D01*
Y57500D01*
D02*
G37*
G36*
X107000Y58723D02*
X106649Y58653D01*
X105928Y58171D01*
X105446Y57450D01*
X105276Y56598D01*
Y53949D01*
X107000D01*
Y58723D01*
D02*
G37*
G36*
X85953Y51756D02*
X82500D01*
Y48500D01*
X85953D01*
Y51756D01*
D02*
G37*
G36*
X53000Y50450D02*
Y48500D01*
X54949D01*
X54855Y48976D01*
X54302Y49802D01*
X53475Y50355D01*
X53000Y50450D01*
D02*
G37*
G36*
X65000Y5449D02*
X64525Y5355D01*
X63698Y4802D01*
X63145Y3976D01*
X63051Y3500D01*
X65000D01*
Y5449D01*
D02*
G37*
G36*
X49500D02*
Y3500D01*
X51450D01*
X51355Y3976D01*
X50802Y4802D01*
X49975Y5355D01*
X49500Y5449D01*
D02*
G37*
G36*
X279437Y54500D02*
X276181D01*
Y51047D01*
X279437D01*
Y54500D01*
D02*
G37*
G36*
X114950Y57000D02*
X113000D01*
Y55050D01*
X113476Y55145D01*
X114302Y55698D01*
X114855Y56524D01*
X114950Y57000D01*
D02*
G37*
G36*
X220500Y4950D02*
Y3000D01*
X222449D01*
X222355Y3475D01*
X221802Y4302D01*
X220975Y4855D01*
X220500Y4950D01*
D02*
G37*
G36*
X232000Y57000D02*
X230050D01*
X230145Y56524D01*
X230698Y55698D01*
X231524Y55145D01*
X232000Y55050D01*
Y57000D01*
D02*
G37*
G36*
X335630Y59500D02*
X332374D01*
Y56047D01*
X335630D01*
Y59500D01*
D02*
G37*
G36*
X331374D02*
X328118D01*
Y56047D01*
X331374D01*
Y59500D01*
D02*
G37*
G36*
X147437Y57953D02*
X144181D01*
Y54500D01*
X147437D01*
Y57953D01*
D02*
G37*
G36*
X59756Y57500D02*
X56500D01*
Y54047D01*
X59756D01*
Y57500D01*
D02*
G37*
G36*
X151693Y57953D02*
X148437D01*
Y54500D01*
X151693D01*
Y57953D01*
D02*
G37*
G36*
X48500Y5449D02*
X48024Y5355D01*
X47198Y4802D01*
X46645Y3976D01*
X46551Y3500D01*
X48500D01*
Y5449D01*
D02*
G37*
G36*
X87500Y56500D02*
X85550D01*
X85645Y56024D01*
X86198Y55198D01*
X87024Y54645D01*
X87500Y54550D01*
Y56500D01*
D02*
G37*
G36*
X81500Y47500D02*
X78047D01*
Y44244D01*
X81500D01*
Y47500D01*
D02*
G37*
G36*
X8500Y45921D02*
Y42500D01*
X11921D01*
X11851Y43032D01*
X11453Y43993D01*
X10819Y44819D01*
X9993Y45453D01*
X9032Y45851D01*
X8500Y45921D01*
D02*
G37*
G36*
X85953Y47500D02*
X82500D01*
Y44244D01*
X85953D01*
Y47500D01*
D02*
G37*
G36*
X96000Y46949D02*
Y45000D01*
X97949D01*
X97855Y45476D01*
X97302Y46302D01*
X96475Y46855D01*
X96000Y46949D01*
D02*
G37*
G36*
X95000D02*
X94525Y46855D01*
X93698Y46302D01*
X93145Y45476D01*
X93050Y45000D01*
X95000D01*
Y46949D01*
D02*
G37*
G36*
X366417Y47840D02*
X365438Y47711D01*
X364525Y47333D01*
X363741Y46732D01*
X363139Y45948D01*
X362761Y45035D01*
X362632Y44055D01*
X362761Y43075D01*
X363139Y42163D01*
X363741Y41379D01*
X364525Y40777D01*
X365438Y40399D01*
X366417Y40270D01*
X367397Y40399D01*
X368310Y40777D01*
X369094Y41379D01*
X369695Y42163D01*
X370074Y43075D01*
X370202Y44055D01*
X370074Y45035D01*
X369695Y45948D01*
X369094Y46732D01*
X368310Y47333D01*
X367397Y47711D01*
X366417Y47840D01*
D02*
G37*
G36*
X328500Y41921D02*
Y38500D01*
X331921D01*
X331851Y39032D01*
X331453Y39993D01*
X330819Y40819D01*
X329993Y41453D01*
X329032Y41851D01*
X328500Y41921D01*
D02*
G37*
G36*
X95000Y44000D02*
X93050D01*
X93145Y43525D01*
X93698Y42698D01*
X94525Y42145D01*
X95000Y42050D01*
Y44000D01*
D02*
G37*
G36*
X7500Y45921D02*
X6968Y45851D01*
X6007Y45453D01*
X5181Y44819D01*
X4547Y43993D01*
X4149Y43032D01*
X4079Y42500D01*
X7500D01*
Y45921D01*
D02*
G37*
G36*
X97949Y44000D02*
X96000D01*
Y42050D01*
X96475Y42145D01*
X97302Y42698D01*
X97855Y43525D01*
X97949Y44000D01*
D02*
G37*
G36*
X268000Y49949D02*
Y48000D01*
X269950D01*
X269855Y48476D01*
X269302Y49302D01*
X268476Y49855D01*
X268000Y49949D01*
D02*
G37*
G36*
X267000D02*
X266525Y49855D01*
X265698Y49302D01*
X265145Y48476D01*
X265051Y48000D01*
X267000D01*
Y49949D01*
D02*
G37*
G36*
X105493Y71753D02*
X98381D01*
Y64247D01*
X98710D01*
X98901Y63785D01*
X96058Y60942D01*
X95616Y60280D01*
X95461Y59500D01*
Y53449D01*
X95480Y53352D01*
Y50299D01*
X95634Y49526D01*
X96072Y48871D01*
X96727Y48433D01*
X97500Y48279D01*
X98273Y48433D01*
X98928Y48871D01*
X99366Y49526D01*
X99520Y50299D01*
Y53352D01*
X99539Y53449D01*
Y58655D01*
X103379Y62495D01*
X103821Y63157D01*
X103976Y63937D01*
Y64247D01*
X105493D01*
Y71753D01*
D02*
G37*
G36*
X52000Y50450D02*
X51525Y50355D01*
X50698Y49802D01*
X50145Y48976D01*
X50050Y48500D01*
X52000D01*
Y50450D01*
D02*
G37*
G36*
X81500Y51756D02*
X78047D01*
Y48500D01*
X81500D01*
Y51756D01*
D02*
G37*
G36*
X267000Y47000D02*
X265051D01*
X265145Y46525D01*
X265698Y45698D01*
X266525Y45145D01*
X267000Y45050D01*
Y47000D01*
D02*
G37*
G36*
X259949D02*
X258000D01*
Y45050D01*
X258475Y45145D01*
X259302Y45698D01*
X259855Y46525D01*
X259949Y47000D01*
D02*
G37*
G36*
X269950D02*
X268000D01*
Y45050D01*
X268476Y45145D01*
X269302Y45698D01*
X269855Y46525D01*
X269950Y47000D01*
D02*
G37*
G36*
X208000Y64039D02*
X202898D01*
X202801Y64020D01*
X199748D01*
X198975Y63866D01*
X198320Y63428D01*
X197882Y62773D01*
X197728Y62000D01*
X197882Y61227D01*
X198320Y60572D01*
X198975Y60134D01*
X199748Y59980D01*
X202801D01*
X202898Y59961D01*
X207155D01*
X212558Y54558D01*
X213220Y54116D01*
X214000Y53961D01*
X219912D01*
X220103Y53834D01*
X220327Y53789D01*
X224358Y49758D01*
X224358Y49758D01*
X225020Y49316D01*
X225800Y49161D01*
X225800Y49161D01*
X230000D01*
Y48197D01*
X229961Y48000D01*
X230000Y47803D01*
Y47537D01*
X229538Y47346D01*
X228942Y47942D01*
X228280Y48384D01*
X227500Y48539D01*
X195088D01*
X194897Y48667D01*
X194000Y48845D01*
X193103Y48667D01*
X192342Y48158D01*
X191833Y47397D01*
X191655Y46500D01*
X191833Y45603D01*
X192342Y44842D01*
X193103Y44333D01*
X194000Y44155D01*
X194897Y44333D01*
X195088Y44461D01*
X215702D01*
X215969Y43961D01*
X215645Y43475D01*
X215550Y43000D01*
X220449D01*
X220355Y43475D01*
X220031Y43961D01*
X220298Y44461D01*
X226655D01*
X227758Y43358D01*
X228420Y42916D01*
X229200Y42761D01*
X232000D01*
X232197Y42800D01*
X234000D01*
Y44603D01*
X234039Y44800D01*
X234000Y44997D01*
Y45961D01*
X238444D01*
Y44247D01*
X245556D01*
Y51753D01*
X238444D01*
Y50039D01*
X234000D01*
Y51003D01*
X234039Y51200D01*
X234000Y51397D01*
Y53200D01*
X232197D01*
X232000Y53239D01*
X226645D01*
X223211Y56673D01*
X223167Y56897D01*
X222658Y57658D01*
X221897Y58166D01*
X221000Y58345D01*
X220103Y58166D01*
X219912Y58039D01*
X214845D01*
X209442Y63442D01*
X208780Y63884D01*
X208000Y64039D01*
D02*
G37*
G36*
X66000Y5449D02*
Y3500D01*
X67949D01*
X67855Y3976D01*
X67302Y4802D01*
X66475Y5355D01*
X66000Y5449D01*
D02*
G37*
G36*
X283500Y11921D02*
X282968Y11851D01*
X282007Y11453D01*
X281181Y10819D01*
X280547Y9993D01*
X280149Y9032D01*
X280079Y8500D01*
X283500D01*
Y11921D01*
D02*
G37*
G36*
X299500D02*
X298968Y11851D01*
X298007Y11453D01*
X297181Y10819D01*
X296547Y9993D01*
X296149Y9032D01*
X296079Y8500D01*
X299500D01*
Y11921D01*
D02*
G37*
G36*
X284500D02*
Y8500D01*
X287921D01*
X287851Y9032D01*
X287453Y9993D01*
X286819Y10819D01*
X285993Y11453D01*
X285032Y11851D01*
X284500Y11921D01*
D02*
G37*
G36*
X300500D02*
Y8500D01*
X303921D01*
X303851Y9032D01*
X303453Y9993D01*
X302819Y10819D01*
X301993Y11453D01*
X301032Y11851D01*
X300500Y11921D01*
D02*
G37*
G36*
X340500D02*
Y8500D01*
X343921D01*
X343851Y9032D01*
X343453Y9993D01*
X342819Y10819D01*
X341993Y11453D01*
X341032Y11851D01*
X340500Y11921D01*
D02*
G37*
G36*
X168000Y9950D02*
Y8000D01*
X169949D01*
X169855Y8475D01*
X169302Y9302D01*
X168475Y9855D01*
X168000Y9950D01*
D02*
G37*
G36*
X167000D02*
X166525Y9855D01*
X165698Y9302D01*
X165145Y8475D01*
X165050Y8000D01*
X167000D01*
Y9950D01*
D02*
G37*
G36*
X347000D02*
X346525Y9855D01*
X345698Y9302D01*
X345145Y8475D01*
X345051Y8000D01*
X347000D01*
Y9950D01*
D02*
G37*
G36*
X339500Y11921D02*
X338968Y11851D01*
X338007Y11453D01*
X337181Y10819D01*
X336547Y9993D01*
X336149Y9032D01*
X336079Y8500D01*
X339500D01*
Y11921D01*
D02*
G37*
G36*
X348000Y9950D02*
Y8000D01*
X349950D01*
X349855Y8475D01*
X349302Y9302D01*
X348476Y9855D01*
X348000Y9950D01*
D02*
G37*
G36*
X310000Y21785D02*
X309020Y21656D01*
X308107Y21278D01*
X307324Y20676D01*
X306722Y19893D01*
X306344Y18980D01*
X306215Y18000D01*
X306344Y17020D01*
X306722Y16107D01*
X307324Y15324D01*
X308107Y14722D01*
X309020Y14344D01*
X310000Y14215D01*
X310980Y14344D01*
X311893Y14722D01*
X312677Y15324D01*
X313278Y16107D01*
X313656Y17020D01*
X313785Y18000D01*
X313656Y18980D01*
X313278Y19893D01*
X312677Y20676D01*
X311893Y21278D01*
X310980Y21656D01*
X310000Y21785D01*
D02*
G37*
G36*
X294500Y34345D02*
X293603Y34167D01*
X292842Y33658D01*
X292333Y32897D01*
X292155Y32000D01*
X292333Y31103D01*
X292842Y30342D01*
X293603Y29833D01*
X294500Y29655D01*
X295013Y29757D01*
X298777Y25993D01*
Y21555D01*
X298107Y21278D01*
X297323Y20676D01*
X296722Y19893D01*
X296344Y18980D01*
X296215Y18000D01*
X296344Y17020D01*
X296722Y16107D01*
X297323Y15324D01*
X298107Y14722D01*
X299020Y14344D01*
X300000Y14215D01*
X300980Y14344D01*
X301893Y14722D01*
X302677Y15324D01*
X303278Y16107D01*
X303656Y17020D01*
X303785Y18000D01*
X303656Y18980D01*
X303278Y19893D01*
X302677Y20676D01*
X301893Y21278D01*
X301223Y21555D01*
Y26500D01*
X301130Y26968D01*
X300865Y27365D01*
X296743Y31487D01*
X296845Y32000D01*
X296667Y32897D01*
X296158Y33658D01*
X295397Y34167D01*
X294500Y34345D01*
D02*
G37*
G36*
X79071Y15921D02*
X76307D01*
Y14240D01*
X79071D01*
Y15921D01*
D02*
G37*
G36*
X343753Y21753D02*
X336247D01*
Y14247D01*
X343753D01*
Y21753D01*
D02*
G37*
G36*
X84949Y17000D02*
X80050D01*
X80145Y16524D01*
X80253Y16362D01*
X80071Y16021D01*
Y14240D01*
X82835D01*
Y15018D01*
X83476Y15145D01*
X84302Y15698D01*
X84855Y16524D01*
X84949Y17000D01*
D02*
G37*
G36*
X79071Y13240D02*
X76307D01*
Y11559D01*
X79071D01*
Y13240D01*
D02*
G37*
G36*
X74876Y32753D02*
X71124D01*
X69247Y30876D01*
Y27124D01*
X71124Y25247D01*
X71776D01*
Y13507D01*
X69556Y11287D01*
X67753D01*
Y13619D01*
X60371D01*
X60154Y14000D01*
X60371Y14381D01*
X60539D01*
X67753D01*
Y21493D01*
X66039D01*
Y24507D01*
X67753D01*
Y31619D01*
X60247D01*
Y27137D01*
X59747Y26985D01*
X59442Y27442D01*
X55442Y31442D01*
X54780Y31884D01*
X54000Y32039D01*
X49088D01*
X48897Y32167D01*
X48000Y32345D01*
X47103Y32167D01*
X46342Y31658D01*
X45833Y30897D01*
X45655Y30000D01*
X45833Y29103D01*
X46342Y28342D01*
X47103Y27833D01*
X48000Y27655D01*
X48897Y27833D01*
X49088Y27961D01*
X53155D01*
X54720Y26396D01*
X54474Y25935D01*
X54047Y26020D01*
X50994D01*
X50898Y26039D01*
X45000D01*
X44220Y25884D01*
X43558Y25442D01*
X41558Y23442D01*
X41116Y22780D01*
X40961Y22000D01*
Y16000D01*
X41116Y15220D01*
X41558Y14558D01*
X43558Y12558D01*
X44220Y12116D01*
X45000Y11961D01*
X50898D01*
X50994Y11980D01*
X54047D01*
X54820Y12134D01*
X55461Y12562D01*
X55551Y12545D01*
X55961Y12398D01*
Y11039D01*
X50898D01*
X50801Y11020D01*
X47748D01*
X46975Y10866D01*
X46320Y10428D01*
X45882Y9773D01*
X45728Y9000D01*
X45882Y8227D01*
X46320Y7572D01*
X46975Y7134D01*
X47748Y6980D01*
X50801D01*
X50898Y6961D01*
X57000D01*
X57780Y7116D01*
X58442Y7558D01*
X58845Y7961D01*
X60247D01*
Y6507D01*
X67753D01*
Y8839D01*
X70063D01*
X70531Y8933D01*
X70928Y9198D01*
X73865Y12135D01*
X74130Y12532D01*
X74224Y13000D01*
Y25247D01*
X74876D01*
X76753Y27124D01*
Y30876D01*
X74876Y32753D01*
D02*
G37*
G36*
X82835Y13240D02*
X80071D01*
Y11559D01*
X82835D01*
Y13240D01*
D02*
G37*
G36*
X191756Y15500D02*
X188500D01*
Y12047D01*
X191756D01*
Y15500D01*
D02*
G37*
G36*
X187500D02*
X184244D01*
Y12047D01*
X187500D01*
Y15500D01*
D02*
G37*
G36*
X303921Y7500D02*
X300500D01*
Y4079D01*
X301032Y4149D01*
X301993Y4547D01*
X302819Y5181D01*
X303453Y6007D01*
X303851Y6968D01*
X303921Y7500D01*
D02*
G37*
G36*
X287921D02*
X284500D01*
Y4079D01*
X285032Y4149D01*
X285993Y4547D01*
X286819Y5181D01*
X287453Y6007D01*
X287851Y6968D01*
X287921Y7500D01*
D02*
G37*
G36*
X343921D02*
X340500D01*
Y4079D01*
X341032Y4149D01*
X341993Y4547D01*
X342819Y5181D01*
X343453Y6007D01*
X343851Y6968D01*
X343921Y7500D01*
D02*
G37*
G36*
X330000Y11785D02*
X329020Y11656D01*
X328107Y11278D01*
X327324Y10677D01*
X326722Y9893D01*
X326344Y8980D01*
X326215Y8000D01*
X326344Y7020D01*
X326722Y6107D01*
X327324Y5324D01*
X328107Y4722D01*
X329020Y4344D01*
X330000Y4215D01*
X330980Y4344D01*
X331893Y4722D01*
X332677Y5324D01*
X333278Y6107D01*
X333656Y7020D01*
X333785Y8000D01*
X333656Y8980D01*
X333278Y9893D01*
X332677Y10677D01*
X331893Y11278D01*
X330980Y11656D01*
X330000Y11785D01*
D02*
G37*
G36*
X310000D02*
X309020Y11656D01*
X308107Y11278D01*
X307324Y10677D01*
X306722Y9893D01*
X306344Y8980D01*
X306215Y8000D01*
X306344Y7020D01*
X306722Y6107D01*
X307324Y5324D01*
X308107Y4722D01*
X309020Y4344D01*
X310000Y4215D01*
X310980Y4344D01*
X311893Y4722D01*
X312677Y5324D01*
X313278Y6107D01*
X313656Y7020D01*
X313785Y8000D01*
X313656Y8980D01*
X313278Y9893D01*
X312677Y10677D01*
X311893Y11278D01*
X310980Y11656D01*
X310000Y11785D01*
D02*
G37*
G36*
X144346Y6185D02*
X140500D01*
Y3520D01*
X144346D01*
Y6185D01*
D02*
G37*
G36*
X139500D02*
X135653D01*
Y3520D01*
X139500D01*
Y6185D01*
D02*
G37*
G36*
X299500Y7500D02*
X296079D01*
X296149Y6968D01*
X296547Y6007D01*
X297181Y5181D01*
X298007Y4547D01*
X298968Y4149D01*
X299500Y4079D01*
Y7500D01*
D02*
G37*
G36*
X283500D02*
X280079D01*
X280149Y6968D01*
X280547Y6007D01*
X281181Y5181D01*
X282007Y4547D01*
X282968Y4149D01*
X283500Y4079D01*
Y7500D01*
D02*
G37*
G36*
X339500D02*
X336079D01*
X336149Y6968D01*
X336547Y6007D01*
X337181Y5181D01*
X338007Y4547D01*
X338968Y4149D01*
X339500Y4079D01*
Y7500D01*
D02*
G37*
G36*
X139500Y9850D02*
X135653D01*
Y7185D01*
X139500D01*
Y9850D01*
D02*
G37*
G36*
X349950Y7000D02*
X348000D01*
Y5051D01*
X348476Y5145D01*
X349302Y5698D01*
X349855Y6525D01*
X349950Y7000D01*
D02*
G37*
G36*
X144346Y9850D02*
X140500D01*
Y7185D01*
X144346D01*
Y9850D01*
D02*
G37*
G36*
X158000Y9950D02*
Y8000D01*
X159950D01*
X159855Y8475D01*
X159302Y9302D01*
X158475Y9855D01*
X158000Y9950D01*
D02*
G37*
G36*
X157000D02*
X156525Y9855D01*
X155698Y9302D01*
X155145Y8475D01*
X155051Y8000D01*
X157000D01*
Y9950D01*
D02*
G37*
G36*
X159950Y7000D02*
X158000D01*
Y5051D01*
X158475Y5145D01*
X159302Y5698D01*
X159855Y6525D01*
X159950Y7000D01*
D02*
G37*
G36*
X157000D02*
X155051D01*
X155145Y6525D01*
X155698Y5698D01*
X156525Y5145D01*
X157000Y5051D01*
Y7000D01*
D02*
G37*
G36*
X167000D02*
X165050D01*
X165145Y6525D01*
X165698Y5698D01*
X166525Y5145D01*
X167000Y5051D01*
Y7000D01*
D02*
G37*
G36*
X347000D02*
X345051D01*
X345145Y6525D01*
X345698Y5698D01*
X346525Y5145D01*
X347000Y5051D01*
Y7000D01*
D02*
G37*
G36*
X169949D02*
X168000D01*
Y5051D01*
X168475Y5145D01*
X169302Y5698D01*
X169855Y6525D01*
X169949Y7000D01*
D02*
G37*
G36*
X92000Y17000D02*
X90051D01*
X90145Y16524D01*
X90698Y15698D01*
X91524Y15145D01*
X92000Y15051D01*
Y17000D01*
D02*
G37*
G36*
X223000Y19950D02*
Y18000D01*
X224950D01*
X224855Y18475D01*
X224302Y19302D01*
X223476Y19855D01*
X223000Y19950D01*
D02*
G37*
G36*
X222000D02*
X221525Y19855D01*
X220698Y19302D01*
X220145Y18475D01*
X220051Y18000D01*
X222000D01*
Y19950D01*
D02*
G37*
G36*
X242000D02*
X241525Y19855D01*
X240698Y19302D01*
X240145Y18475D01*
X240051Y18000D01*
X242000D01*
Y19950D01*
D02*
G37*
G36*
X252000D02*
X251524Y19855D01*
X250698Y19302D01*
X250145Y18475D01*
X250050Y18000D01*
X252000D01*
Y19950D01*
D02*
G37*
G36*
X243000D02*
Y18000D01*
X244950D01*
X244855Y18475D01*
X244302Y19302D01*
X243476Y19855D01*
X243000Y19950D01*
D02*
G37*
G36*
X202000D02*
X201524Y19855D01*
X200698Y19302D01*
X200145Y18475D01*
X200050Y18000D01*
X202000D01*
Y19950D01*
D02*
G37*
G36*
X163000D02*
Y18000D01*
X164950D01*
X164855Y18475D01*
X164302Y19302D01*
X163476Y19855D01*
X163000Y19950D01*
D02*
G37*
G36*
X203000D02*
Y18000D01*
X204949D01*
X204855Y18475D01*
X204302Y19302D01*
X203475Y19855D01*
X203000Y19950D01*
D02*
G37*
G36*
X213000D02*
Y18000D01*
X214949D01*
X214855Y18475D01*
X214302Y19302D01*
X213475Y19855D01*
X213000Y19950D01*
D02*
G37*
G36*
X212000D02*
X211525Y19855D01*
X210698Y19302D01*
X210145Y18475D01*
X210051Y18000D01*
X212000D01*
Y19950D01*
D02*
G37*
G36*
X189500Y25500D02*
X186079D01*
X186149Y24968D01*
X186547Y24007D01*
X187181Y23181D01*
X188007Y22547D01*
X188968Y22149D01*
X189500Y22079D01*
Y25500D01*
D02*
G37*
G36*
X122000Y25345D02*
X121103Y25167D01*
X120342Y24658D01*
X120051Y24224D01*
X118000D01*
X117532Y24130D01*
X117135Y23865D01*
X106493Y13224D01*
X102000D01*
X101532Y13130D01*
X101135Y12865D01*
X99198Y10928D01*
X98933Y10531D01*
X98839Y10063D01*
Y9753D01*
X96507D01*
Y7483D01*
X82635D01*
Y8241D01*
X76507D01*
Y4279D01*
X82635D01*
Y5036D01*
X96507D01*
Y2247D01*
X103619D01*
Y9753D01*
X102136D01*
X101945Y10215D01*
X102507Y10776D01*
X107000D01*
X107468Y10870D01*
X107865Y11135D01*
X118507Y21777D01*
X120051D01*
X120342Y21342D01*
X121103Y20833D01*
X122000Y20655D01*
X122897Y20833D01*
X123658Y21342D01*
X124167Y22103D01*
X124345Y23000D01*
X124167Y23897D01*
X123658Y24658D01*
X122897Y25167D01*
X122000Y25345D01*
D02*
G37*
G36*
X193921Y25500D02*
X190500D01*
Y22079D01*
X191032Y22149D01*
X191993Y22547D01*
X192819Y23181D01*
X193453Y24007D01*
X193851Y24968D01*
X193921Y25500D01*
D02*
G37*
G36*
X114500Y26000D02*
X112550D01*
X112645Y25525D01*
X113198Y24698D01*
X114024Y24145D01*
X114500Y24050D01*
Y26000D01*
D02*
G37*
G36*
X203753Y29753D02*
X196247D01*
Y22247D01*
X203753D01*
Y29753D01*
D02*
G37*
G36*
X282000Y19950D02*
X281524Y19855D01*
X280698Y19302D01*
X280145Y18475D01*
X280050Y18000D01*
X282000D01*
Y19950D01*
D02*
G37*
G36*
X253000D02*
Y18000D01*
X254949D01*
X254855Y18475D01*
X254302Y19302D01*
X253475Y19855D01*
X253000Y19950D01*
D02*
G37*
G36*
X283000D02*
Y18000D01*
X284949D01*
X284855Y18475D01*
X284302Y19302D01*
X283475Y19855D01*
X283000Y19950D01*
D02*
G37*
G36*
X293000D02*
Y18000D01*
X294950D01*
X294855Y18475D01*
X294302Y19302D01*
X293476Y19855D01*
X293000Y19950D01*
D02*
G37*
G36*
X292000D02*
X291525Y19855D01*
X290698Y19302D01*
X290145Y18475D01*
X290051Y18000D01*
X292000D01*
Y19950D01*
D02*
G37*
G36*
X224950Y17000D02*
X223000D01*
Y15051D01*
X223476Y15145D01*
X224302Y15698D01*
X224855Y16524D01*
X224950Y17000D01*
D02*
G37*
G36*
X222000D02*
X220051D01*
X220145Y16524D01*
X220698Y15698D01*
X221525Y15145D01*
X222000Y15051D01*
Y17000D01*
D02*
G37*
G36*
X242000D02*
X240051D01*
X240145Y16524D01*
X240698Y15698D01*
X241525Y15145D01*
X242000Y15051D01*
Y17000D01*
D02*
G37*
G36*
X252000D02*
X250050D01*
X250145Y16524D01*
X250698Y15698D01*
X251524Y15145D01*
X252000Y15051D01*
Y17000D01*
D02*
G37*
G36*
X244950D02*
X243000D01*
Y15051D01*
X243476Y15145D01*
X244302Y15698D01*
X244855Y16524D01*
X244950Y17000D01*
D02*
G37*
G36*
X202000D02*
X200050D01*
X200145Y16524D01*
X200698Y15698D01*
X201524Y15145D01*
X202000Y15051D01*
Y17000D01*
D02*
G37*
G36*
X94950D02*
X93000D01*
Y15051D01*
X93476Y15145D01*
X94302Y15698D01*
X94855Y16524D01*
X94950Y17000D01*
D02*
G37*
G36*
X204949D02*
X203000D01*
Y15051D01*
X203475Y15145D01*
X204302Y15698D01*
X204855Y16524D01*
X204949Y17000D01*
D02*
G37*
G36*
X214949D02*
X213000D01*
Y15051D01*
X213475Y15145D01*
X214302Y15698D01*
X214855Y16524D01*
X214949Y17000D01*
D02*
G37*
G36*
X212000D02*
X210051D01*
X210145Y16524D01*
X210698Y15698D01*
X211525Y15145D01*
X212000Y15051D01*
Y17000D01*
D02*
G37*
G36*
X191756Y19953D02*
X188500D01*
Y16500D01*
X191756D01*
Y19953D01*
D02*
G37*
G36*
X187500D02*
X184244D01*
Y16500D01*
X187500D01*
Y19953D01*
D02*
G37*
G36*
X83850Y23500D02*
X80685D01*
X77520D01*
Y19654D01*
X80392D01*
X80598Y19154D01*
X80145Y18475D01*
X80050Y18000D01*
X84949D01*
X84855Y18475D01*
X84302Y19302D01*
X84228Y19352D01*
X83850Y19654D01*
X83850D01*
X83850Y19654D01*
Y23500D01*
D02*
G37*
G36*
X162000Y19950D02*
X161524Y19855D01*
X160698Y19302D01*
X160145Y18475D01*
X160050Y18000D01*
X162000D01*
Y19950D01*
D02*
G37*
G36*
X122000D02*
X121525Y19855D01*
X120698Y19302D01*
X120145Y18475D01*
X120051Y18000D01*
X122000D01*
Y19950D01*
D02*
G37*
G36*
X282000Y17000D02*
X280050D01*
X280145Y16524D01*
X280698Y15698D01*
X281524Y15145D01*
X282000Y15051D01*
Y17000D01*
D02*
G37*
G36*
X254949D02*
X253000D01*
Y15051D01*
X253475Y15145D01*
X254302Y15698D01*
X254855Y16524D01*
X254949Y17000D01*
D02*
G37*
G36*
X284949D02*
X283000D01*
Y15051D01*
X283475Y15145D01*
X284302Y15698D01*
X284855Y16524D01*
X284949Y17000D01*
D02*
G37*
G36*
X294950D02*
X293000D01*
Y15051D01*
X293476Y15145D01*
X294302Y15698D01*
X294855Y16524D01*
X294950Y17000D01*
D02*
G37*
G36*
X292000D02*
X290051D01*
X290145Y16524D01*
X290698Y15698D01*
X291525Y15145D01*
X292000Y15051D01*
Y17000D01*
D02*
G37*
G36*
X348449Y99000D02*
X346500D01*
Y97050D01*
X346975Y97145D01*
X347802Y97698D01*
X348355Y98524D01*
X348449Y99000D01*
D02*
G37*
G36*
X28449Y97500D02*
X26500D01*
Y95551D01*
X26976Y95645D01*
X27802Y96198D01*
X28355Y97025D01*
X28449Y97500D01*
D02*
G37*
G36*
X120500Y101845D02*
X119603Y101666D01*
X118842Y101158D01*
X118333Y100397D01*
X118155Y99500D01*
X118257Y98987D01*
X111135Y91865D01*
X110870Y91468D01*
X110776Y91000D01*
Y80000D01*
X110870Y79532D01*
X111135Y79135D01*
X113135Y77135D01*
X113532Y76870D01*
X113818Y76813D01*
Y72279D01*
X119355D01*
Y76019D01*
Y79559D01*
X119555D01*
Y81240D01*
X116587D01*
Y81740D01*
X116087D01*
Y83921D01*
X113618D01*
X113224Y84176D01*
Y90493D01*
X119987Y97257D01*
X120500Y97155D01*
X121397Y97334D01*
X122158Y97842D01*
X122667Y98603D01*
X122845Y99500D01*
X122667Y100397D01*
X122158Y101158D01*
X121397Y101666D01*
X120500Y101845D01*
D02*
G37*
G36*
X370500Y99449D02*
Y97500D01*
X372449D01*
X372355Y97975D01*
X371802Y98802D01*
X370975Y99355D01*
X370500Y99449D01*
D02*
G37*
G36*
X369500D02*
X369024Y99355D01*
X368198Y98802D01*
X367645Y97975D01*
X367550Y97500D01*
X369500D01*
Y99449D01*
D02*
G37*
G36*
X307953Y110437D02*
X304500D01*
Y107181D01*
X306972D01*
X307269Y106681D01*
X307235Y106619D01*
X300247D01*
Y99507D01*
X301961D01*
Y96000D01*
X302116Y95220D01*
X302415Y94772D01*
X302114Y94322D01*
X302000Y94345D01*
X301103Y94166D01*
X300342Y93658D01*
X300051Y93224D01*
X298769D01*
X292948Y99045D01*
X293139Y99507D01*
X298753D01*
Y106619D01*
X291247D01*
Y104224D01*
X289949D01*
X289658Y104658D01*
X288897Y105167D01*
X288000Y105345D01*
X287103Y105167D01*
X286342Y104658D01*
X285833Y103897D01*
X285655Y103000D01*
X285833Y102103D01*
X285993Y101865D01*
X285757Y101424D01*
X272307D01*
X270165Y103565D01*
X269768Y103830D01*
X269300Y103923D01*
X265700D01*
X265232Y103830D01*
X264835Y103565D01*
X263220Y101951D01*
X262897Y102166D01*
X262000Y102345D01*
X261103Y102166D01*
X260342Y101658D01*
X259833Y100897D01*
X259655Y100000D01*
X259833Y99103D01*
X260087Y98724D01*
X259820Y98224D01*
X256000D01*
X255805Y98185D01*
X255000Y98345D01*
X254103Y98167D01*
X253342Y97658D01*
X252833Y96897D01*
X252655Y96000D01*
X252833Y95103D01*
X253342Y94342D01*
X254103Y93834D01*
X255000Y93655D01*
X255897Y93834D01*
X256180Y94022D01*
X256205Y94021D01*
X256701Y93769D01*
X256833Y93103D01*
X257342Y92342D01*
X258103Y91834D01*
X259000Y91655D01*
X259513Y91757D01*
X261135Y90135D01*
X261532Y89870D01*
X262000Y89776D01*
X270200D01*
X270480Y89832D01*
X270789Y89395D01*
X270775Y89374D01*
X270682Y88906D01*
Y88178D01*
X268350D01*
Y80673D01*
X268212Y80442D01*
X268212D01*
Y77912D01*
X266689D01*
X266221Y77819D01*
X265824Y77554D01*
X265479Y77209D01*
X265038Y77445D01*
X265049Y77500D01*
X264855Y78475D01*
X264302Y79302D01*
X263475Y79855D01*
X263000Y79949D01*
Y77500D01*
X262500D01*
Y77000D01*
X260051D01*
X260098Y76760D01*
X259766Y76260D01*
X254583D01*
X253810Y76106D01*
X253154Y75668D01*
X252716Y75013D01*
X252563Y74240D01*
X252716Y73467D01*
X253154Y72812D01*
X253810Y72374D01*
X254583Y72220D01*
X260882D01*
X261655Y72374D01*
X262310Y72812D01*
X262447Y73017D01*
X264026D01*
X264065Y72972D01*
X264250Y72521D01*
X263833Y71897D01*
X263655Y71000D01*
X263727Y70639D01*
X263277Y70338D01*
X263228Y70371D01*
X262760Y70464D01*
X262447D01*
X262310Y70668D01*
X261655Y71106D01*
X260882Y71260D01*
X254583D01*
X253810Y71106D01*
X253154Y70668D01*
X252716Y70013D01*
X252563Y69240D01*
X252716Y68467D01*
X253154Y67812D01*
X253810Y67374D01*
X254583Y67220D01*
X260882D01*
X261655Y67374D01*
X262310Y67812D01*
X262445Y67825D01*
X266458Y63812D01*
X266855Y63547D01*
X267323Y63454D01*
X268350D01*
Y60924D01*
X270682D01*
Y58753D01*
X268507D01*
Y51247D01*
X275619D01*
Y58136D01*
X276119Y58356D01*
X276181Y58300D01*
Y55500D01*
X279937D01*
Y55000D01*
X280437D01*
Y51047D01*
X281006D01*
X281198Y50585D01*
X271436Y40824D01*
X220417D01*
X220181Y41265D01*
X220355Y41524D01*
X220449Y42000D01*
X215550D01*
X215645Y41524D01*
X215819Y41265D01*
X215583Y40824D01*
X207570D01*
X206528Y41865D01*
X206131Y42130D01*
X205663Y42224D01*
X177850D01*
X177614Y42665D01*
X177855Y43025D01*
X177950Y43500D01*
X173050D01*
X173145Y43025D01*
X173386Y42665D01*
X173150Y42224D01*
X137507D01*
X131865Y47865D01*
X131468Y48130D01*
X131000Y48224D01*
X109219D01*
X109068Y48724D01*
X109072Y48727D01*
X109555Y49448D01*
X109724Y50299D01*
Y52949D01*
X107500D01*
X105276D01*
Y50299D01*
X105446Y49448D01*
X105928Y48727D01*
X105932Y48724D01*
X105781Y48224D01*
X104507D01*
X103922Y48808D01*
X103928Y48871D01*
X104366Y49526D01*
X104520Y50299D01*
Y56598D01*
X104366Y57371D01*
X103928Y58027D01*
X103273Y58465D01*
X102500Y58618D01*
X101727Y58465D01*
X101072Y58027D01*
X100634Y57371D01*
X100480Y56598D01*
Y50299D01*
X100634Y49526D01*
X101072Y48871D01*
X101277Y48734D01*
Y48500D01*
X101370Y48032D01*
X101635Y47635D01*
X103135Y46135D01*
X103532Y45870D01*
X104000Y45777D01*
X130493D01*
X135180Y41090D01*
X135016Y40547D01*
X134932Y40530D01*
X134535Y40265D01*
X132493Y38223D01*
X123949D01*
X123658Y38658D01*
X122897Y39167D01*
X122000Y39345D01*
X121103Y39167D01*
X120342Y38658D01*
X119833Y37897D01*
X119655Y37000D01*
X119833Y36103D01*
X120342Y35342D01*
X121103Y34833D01*
X122000Y34655D01*
X122897Y34833D01*
X123658Y35342D01*
X123949Y35776D01*
X133000D01*
X133468Y35870D01*
X133865Y36135D01*
X135907Y38177D01*
X160253D01*
X160520Y37677D01*
X160333Y37397D01*
X160155Y36500D01*
X160333Y35603D01*
X160842Y34842D01*
X161603Y34333D01*
X162500Y34155D01*
X163397Y34333D01*
X163588Y34461D01*
X198912D01*
X199103Y34333D01*
X200000Y34155D01*
X200897Y34333D01*
X201658Y34842D01*
X202167Y35603D01*
X202345Y36500D01*
X202167Y37397D01*
X201980Y37677D01*
X202247Y38177D01*
X204493D01*
X205535Y37135D01*
X205932Y36870D01*
X206400Y36777D01*
X273000D01*
X273468Y36870D01*
X273865Y37135D01*
X291865Y55135D01*
X292130Y55532D01*
X292224Y56000D01*
Y85898D01*
X292130Y86366D01*
X291966Y86611D01*
X292001Y86773D01*
X292526Y86928D01*
X292564Y86917D01*
X294514Y84968D01*
Y81444D01*
X294607Y80976D01*
X294872Y80579D01*
X301316Y74135D01*
X301713Y73870D01*
X302182Y73777D01*
X304051D01*
X304342Y73342D01*
X305103Y72834D01*
X306000Y72655D01*
X306897Y72834D01*
X307658Y73342D01*
X308167Y74103D01*
X308345Y75000D01*
X308167Y75897D01*
X307658Y76658D01*
X306897Y77166D01*
X306000Y77345D01*
X305624Y77270D01*
X305270Y77624D01*
X305345Y78000D01*
X305270Y78376D01*
X305624Y78730D01*
X306000Y78655D01*
X306897Y78834D01*
X307658Y79342D01*
X308167Y80103D01*
X308345Y81000D01*
X308246Y81498D01*
X308707Y81745D01*
X309776Y80675D01*
Y74507D01*
X306493Y71223D01*
X300000D01*
X299532Y71130D01*
X299135Y70865D01*
X293935Y65665D01*
X293670Y65268D01*
X293577Y64800D01*
Y55307D01*
X263135Y24865D01*
X262870Y24468D01*
X262776Y24000D01*
Y11555D01*
X262107Y11278D01*
X261323Y10677D01*
X260722Y9893D01*
X260344Y8980D01*
X260215Y8000D01*
X260344Y7020D01*
X260722Y6107D01*
X261323Y5324D01*
X262107Y4722D01*
X263020Y4344D01*
X264000Y4215D01*
X264980Y4344D01*
X265893Y4722D01*
X266676Y5324D01*
X267278Y6107D01*
X267656Y7020D01*
X267785Y8000D01*
X267656Y8980D01*
X267278Y9893D01*
X266676Y10677D01*
X265893Y11278D01*
X265224Y11555D01*
Y23493D01*
X272276Y30546D01*
X272777Y30339D01*
Y11555D01*
X272107Y11278D01*
X271323Y10677D01*
X270722Y9893D01*
X270344Y8980D01*
X270215Y8000D01*
X270344Y7020D01*
X270722Y6107D01*
X271323Y5324D01*
X272107Y4722D01*
X273020Y4344D01*
X274000Y4215D01*
X274980Y4344D01*
X275893Y4722D01*
X276677Y5324D01*
X277278Y6107D01*
X277656Y7020D01*
X277785Y8000D01*
X277656Y8980D01*
X277278Y9893D01*
X276677Y10677D01*
X275893Y11278D01*
X275223Y11555D01*
Y30493D01*
X295621Y50890D01*
X296082Y50644D01*
X296076Y50618D01*
Y46035D01*
X295756Y45589D01*
X294859Y45411D01*
X294098Y44902D01*
X293589Y44142D01*
X293411Y43244D01*
X293589Y42347D01*
X294098Y41586D01*
X294532Y41295D01*
Y39750D01*
X294032Y39483D01*
X293476Y39855D01*
X293000Y39950D01*
Y37500D01*
Y35050D01*
X293476Y35145D01*
X294302Y35698D01*
X294531Y36040D01*
X295171Y36098D01*
X308135Y23135D01*
X308532Y22870D01*
X309000Y22776D01*
X313493D01*
X316621Y19649D01*
X316344Y18980D01*
X316215Y18000D01*
X316344Y17020D01*
X316722Y16107D01*
X317323Y15324D01*
X318107Y14722D01*
X319020Y14344D01*
X320000Y14215D01*
X320980Y14344D01*
X321893Y14722D01*
X322676Y15324D01*
X323278Y16107D01*
X323777Y16004D01*
Y13507D01*
X321649Y11379D01*
X320980Y11656D01*
X320000Y11785D01*
X319020Y11656D01*
X318107Y11278D01*
X317323Y10677D01*
X316722Y9893D01*
X316344Y8980D01*
X316215Y8000D01*
X316344Y7020D01*
X316722Y6107D01*
X317323Y5324D01*
X318107Y4722D01*
X319020Y4344D01*
X320000Y4215D01*
X320980Y4344D01*
X321893Y4722D01*
X322676Y5324D01*
X323278Y6107D01*
X323656Y7020D01*
X323785Y8000D01*
X323656Y8980D01*
X323379Y9649D01*
X325865Y12135D01*
X326130Y12532D01*
X326223Y13000D01*
Y16004D01*
X326722Y16107D01*
X327324Y15324D01*
X328107Y14722D01*
X329020Y14344D01*
X330000Y14215D01*
X330980Y14344D01*
X331893Y14722D01*
X332677Y15324D01*
X333278Y16107D01*
X333656Y17020D01*
X333785Y18000D01*
X333656Y18980D01*
X333278Y19893D01*
X332677Y20676D01*
X331893Y21278D01*
X330980Y21656D01*
X330000Y21785D01*
X329020Y21656D01*
X328107Y21278D01*
X327324Y20676D01*
X326722Y19893D01*
X326223Y19996D01*
Y25000D01*
X326130Y25468D01*
X325865Y25865D01*
X324223Y27507D01*
Y35607D01*
X324724Y35777D01*
X325181Y35181D01*
X326007Y34547D01*
X326968Y34149D01*
X327500Y34079D01*
Y38000D01*
Y41921D01*
X326968Y41851D01*
X326007Y41453D01*
X325181Y40819D01*
X324547Y39993D01*
X324484Y39840D01*
X323919Y39784D01*
X323865Y39865D01*
X319361Y44369D01*
X319401Y44738D01*
X319887Y44978D01*
X320103Y44833D01*
X321000Y44655D01*
X321897Y44833D01*
X322658Y45342D01*
X323167Y46103D01*
X323345Y47000D01*
X323243Y47513D01*
X324865Y49135D01*
X325130Y49532D01*
X325223Y50000D01*
Y56247D01*
X327556D01*
Y63753D01*
X320766D01*
X320444Y63753D01*
X320214Y64158D01*
X320167Y64397D01*
X319658Y65158D01*
X318897Y65667D01*
X318000Y65845D01*
X317103Y65667D01*
X316342Y65158D01*
X315833Y64397D01*
X315655Y63500D01*
X315833Y62603D01*
X316342Y61842D01*
X316776Y61551D01*
Y47850D01*
X316336Y47614D01*
X315975Y47855D01*
X315500Y47949D01*
Y45500D01*
Y43051D01*
X315975Y43145D01*
X316388Y43421D01*
X316870Y43532D01*
X317135Y43135D01*
X318009Y42261D01*
X317803Y41759D01*
X317020Y41656D01*
X316107Y41278D01*
X315323Y40677D01*
X314722Y39893D01*
X314344Y38980D01*
X314215Y38000D01*
X314344Y37020D01*
X314722Y36107D01*
X315323Y35324D01*
X316107Y34722D01*
X317020Y34344D01*
X318000Y34215D01*
X318980Y34344D01*
X319893Y34722D01*
X320676Y35324D01*
X321278Y36107D01*
X321777Y36004D01*
Y27000D01*
X321870Y26532D01*
X322135Y26135D01*
X323777Y24493D01*
Y19996D01*
X323278Y19893D01*
X322676Y20676D01*
X321893Y21278D01*
X320980Y21656D01*
X320000Y21785D01*
X319020Y21656D01*
X318351Y21379D01*
X314865Y24865D01*
X314468Y25130D01*
X314000Y25223D01*
X309507D01*
X305416Y29315D01*
X305607Y29776D01*
X316051D01*
X316342Y29342D01*
X317103Y28833D01*
X318000Y28655D01*
X318897Y28833D01*
X319658Y29342D01*
X320167Y30103D01*
X320345Y31000D01*
X320167Y31897D01*
X319658Y32658D01*
X318897Y33167D01*
X318000Y33345D01*
X317103Y33167D01*
X316342Y32658D01*
X316051Y32223D01*
X304769D01*
X300223Y36770D01*
Y44000D01*
X300130Y44468D01*
X299865Y44865D01*
X298523Y46207D01*
Y47190D01*
X298965Y47426D01*
X299103Y47333D01*
X299519Y47251D01*
X302757Y44013D01*
X302655Y43500D01*
X302833Y42603D01*
X303342Y41842D01*
X304103Y41333D01*
X304247Y41305D01*
Y34247D01*
X311753D01*
Y41753D01*
X311753Y41753D01*
X311753D01*
X312017Y42133D01*
X312442Y42558D01*
X312884Y43220D01*
X312902Y43309D01*
X313455Y43526D01*
X314024Y43145D01*
X314500Y43051D01*
Y45500D01*
Y47949D01*
X314024Y47855D01*
X313861Y47746D01*
X313250Y47929D01*
X313167Y48103D01*
X313345Y49000D01*
X313167Y49897D01*
X313039Y50088D01*
Y52247D01*
X314430D01*
Y59753D01*
X313039D01*
Y62655D01*
X318345Y67961D01*
X320507D01*
Y66247D01*
X327619D01*
Y73235D01*
X328119Y73514D01*
X328181Y73476D01*
Y70500D01*
X331937D01*
X335693D01*
Y73953D01*
X333908D01*
X333732Y74453D01*
X334167Y75103D01*
X334211Y75327D01*
X335442Y76558D01*
X335884Y77220D01*
X336039Y78000D01*
Y78507D01*
X337753D01*
Y80024D01*
X345063D01*
X345843Y80179D01*
X346505Y80621D01*
X347900Y82016D01*
X353252D01*
X353741Y81379D01*
X354525Y80777D01*
X355438Y80399D01*
X356417Y80270D01*
X357397Y80399D01*
X358310Y80777D01*
X359094Y81379D01*
X359277Y81617D01*
X359776Y81447D01*
Y76663D01*
X359277Y76494D01*
X359094Y76732D01*
X358310Y77333D01*
X357397Y77711D01*
X356417Y77840D01*
X355438Y77711D01*
X354525Y77333D01*
X353741Y76732D01*
X353139Y75948D01*
X352761Y75035D01*
X352632Y74055D01*
X352761Y73075D01*
X353139Y72163D01*
X353741Y71379D01*
X354525Y70777D01*
X355438Y70399D01*
X356417Y70270D01*
X357397Y70399D01*
X358310Y70777D01*
X359094Y71379D01*
X359277Y71617D01*
X359776Y71447D01*
Y66663D01*
X359277Y66493D01*
X359094Y66732D01*
X358310Y67333D01*
X357397Y67711D01*
X356417Y67840D01*
X355438Y67711D01*
X354525Y67333D01*
X353741Y66732D01*
X353139Y65948D01*
X352761Y65035D01*
X352724Y64749D01*
X352223Y64781D01*
Y66051D01*
X352658Y66342D01*
X353167Y67103D01*
X353345Y68000D01*
X353167Y68897D01*
X352658Y69658D01*
X351897Y70166D01*
X351000Y70345D01*
X350103Y70166D01*
X349342Y69658D01*
X348833Y68897D01*
X348655Y68000D01*
X348730Y67624D01*
X348376Y67270D01*
X348000Y67345D01*
X347103Y67167D01*
X346342Y66658D01*
X345833Y65897D01*
X345655Y65000D01*
X345833Y64103D01*
X346342Y63342D01*
X347103Y62833D01*
X348000Y62655D01*
X348177Y62510D01*
Y60782D01*
X347676Y60631D01*
X347658Y60658D01*
X346897Y61167D01*
X346000Y61345D01*
X345103Y61167D01*
X344342Y60658D01*
X343833Y59897D01*
X343655Y59000D01*
X343757Y58487D01*
X342708Y57438D01*
X342229Y57583D01*
X342167Y57897D01*
X341658Y58658D01*
X340897Y59167D01*
X340000Y59345D01*
X339103Y59167D01*
X338342Y58658D01*
X337833Y57897D01*
X337655Y57000D01*
X337833Y56103D01*
X338342Y55342D01*
X338776Y55051D01*
Y38449D01*
X338342Y38158D01*
X337833Y37397D01*
X337655Y36500D01*
X337833Y35603D01*
X338342Y34842D01*
X339103Y34333D01*
X340000Y34155D01*
X340897Y34333D01*
X341658Y34842D01*
X342167Y35603D01*
X342345Y36500D01*
X342167Y37397D01*
X341658Y38158D01*
X341224Y38449D01*
Y41820D01*
X341723Y42087D01*
X342103Y41833D01*
X343000Y41655D01*
X343376Y41730D01*
X343730Y41376D01*
X343655Y41000D01*
X343833Y40103D01*
X344342Y39342D01*
X345103Y38833D01*
X346000Y38655D01*
X346897Y38833D01*
X347658Y39342D01*
X348085Y39981D01*
X348190Y40033D01*
X348499Y40082D01*
X348670Y40072D01*
X352665Y36078D01*
Y30302D01*
X356363D01*
X356418Y30149D01*
X356446Y29802D01*
X355698Y29302D01*
X355145Y28475D01*
X355050Y28000D01*
X359949D01*
X359855Y28475D01*
X359302Y29302D01*
X358554Y29802D01*
X358582Y30149D01*
X358637Y30302D01*
X360170D01*
Y37776D01*
X360966D01*
X363038Y35704D01*
X362761Y35035D01*
X362632Y34055D01*
X362761Y33075D01*
X363139Y32163D01*
X363741Y31379D01*
X364525Y30777D01*
X365438Y30399D01*
X366313Y30284D01*
X366425Y29848D01*
X366426Y29789D01*
X365698Y29302D01*
X365145Y28475D01*
X365051Y28000D01*
X369950D01*
X369855Y28475D01*
X369302Y29302D01*
X368476Y29855D01*
X367742Y30001D01*
X367691Y30521D01*
X368310Y30777D01*
X369094Y31379D01*
X369695Y32163D01*
X370074Y33075D01*
X370202Y34055D01*
X370074Y35035D01*
X369695Y35948D01*
X369094Y36732D01*
X368310Y37333D01*
X367397Y37711D01*
X366417Y37840D01*
X365438Y37711D01*
X364769Y37434D01*
X362338Y39865D01*
X361941Y40130D01*
X361472Y40224D01*
X358280D01*
X358180Y40723D01*
X358310Y40777D01*
X359094Y41379D01*
X359695Y42163D01*
X360073Y43075D01*
X360202Y44055D01*
X360073Y45035D01*
X359796Y45704D01*
X361865Y47773D01*
X362130Y48170D01*
X362224Y48638D01*
Y53329D01*
X362723Y53361D01*
X362761Y53075D01*
X363139Y52163D01*
X363741Y51379D01*
X364525Y50777D01*
X365438Y50399D01*
X366417Y50270D01*
X367397Y50399D01*
X368310Y50777D01*
X369094Y51379D01*
X369695Y52163D01*
X370074Y53075D01*
X370202Y54055D01*
X370074Y55035D01*
X369695Y55948D01*
X369094Y56732D01*
X368310Y57333D01*
X367397Y57711D01*
X366417Y57840D01*
X365438Y57711D01*
X364525Y57333D01*
X363741Y56732D01*
X363139Y55948D01*
X362761Y55035D01*
X362723Y54749D01*
X362224Y54782D01*
Y63329D01*
X362723Y63362D01*
X362761Y63076D01*
X363139Y62163D01*
X363741Y61379D01*
X364525Y60777D01*
X365438Y60399D01*
X366417Y60270D01*
X367397Y60399D01*
X368310Y60777D01*
X369094Y61379D01*
X369695Y62163D01*
X370074Y63076D01*
X370202Y64055D01*
X370074Y65035D01*
X369695Y65948D01*
X369094Y66732D01*
X368310Y67333D01*
X367397Y67711D01*
X366417Y67840D01*
X365438Y67711D01*
X364525Y67333D01*
X363741Y66732D01*
X363139Y65948D01*
X362761Y65035D01*
X362723Y64749D01*
X362224Y64781D01*
Y73329D01*
X362723Y73361D01*
X362761Y73075D01*
X363139Y72163D01*
X363741Y71379D01*
X364525Y70777D01*
X365438Y70399D01*
X366417Y70270D01*
X367397Y70399D01*
X368310Y70777D01*
X369094Y71379D01*
X369695Y72163D01*
X370074Y73075D01*
X370202Y74055D01*
X370074Y75035D01*
X369796Y75704D01*
X371865Y77773D01*
X372130Y78170D01*
X372223Y78638D01*
Y89000D01*
X372130Y89468D01*
X371865Y89865D01*
X363865Y97865D01*
X363468Y98130D01*
X363000Y98224D01*
X360949D01*
X360658Y98658D01*
X359897Y99167D01*
X359000Y99345D01*
X358103Y99167D01*
X357820Y98978D01*
X357795Y98979D01*
X357299Y99231D01*
X357167Y99897D01*
X356658Y100658D01*
X355897Y101166D01*
X355000Y101345D01*
X354103Y101166D01*
X353342Y100658D01*
X352833Y99897D01*
X352655Y99000D01*
X352757Y98487D01*
X351135Y96865D01*
X350870Y96468D01*
X350777Y96000D01*
Y90949D01*
X350342Y90658D01*
X349833Y89897D01*
X349655Y89000D01*
X349833Y88103D01*
X350342Y87342D01*
X351103Y86834D01*
X352000Y86655D01*
X352897Y86834D01*
X353658Y87342D01*
X354167Y88103D01*
X354299Y88769D01*
X354795Y89021D01*
X354820Y89022D01*
X355103Y88833D01*
X356000Y88655D01*
X356513Y88757D01*
X357002Y88268D01*
X356769Y87794D01*
X356417Y87840D01*
X355438Y87711D01*
X354525Y87333D01*
X353741Y86732D01*
X353252Y86094D01*
X347055D01*
X346275Y85939D01*
X345613Y85497D01*
X344218Y84102D01*
X337753D01*
Y85619D01*
X330247D01*
Y83177D01*
X329747Y83025D01*
X329658Y83158D01*
X329223Y83449D01*
Y87430D01*
X329785Y87992D01*
X330247Y87801D01*
Y86381D01*
X337753D01*
Y93493D01*
X336877D01*
X336685Y93955D01*
X340487Y97757D01*
X341000Y97655D01*
X341897Y97834D01*
X342658Y98342D01*
X343054Y98934D01*
X343584Y98832D01*
X343645Y98524D01*
X344198Y97698D01*
X345024Y97145D01*
X345500Y97050D01*
Y99500D01*
Y101950D01*
X345024Y101855D01*
X344198Y101302D01*
X343734Y100608D01*
X343212Y100668D01*
X343167Y100897D01*
X342658Y101658D01*
X341897Y102166D01*
X341000Y102345D01*
X340103Y102166D01*
X339342Y101658D01*
X338833Y100897D01*
X338655Y100000D01*
X338757Y99487D01*
X333135Y93865D01*
X332886Y93493D01*
X330247D01*
Y91161D01*
X330000D01*
X329532Y91067D01*
X329135Y90802D01*
X327135Y88802D01*
X326870Y88405D01*
X326777Y87937D01*
Y83449D01*
X326342Y83158D01*
X325833Y82397D01*
X325655Y81500D01*
X325833Y80603D01*
X326342Y79842D01*
X327103Y79334D01*
X328000Y79155D01*
X328897Y79334D01*
X329658Y79842D01*
X329747Y79975D01*
X330247Y79823D01*
Y78507D01*
X330247D01*
X330170Y78039D01*
X324830D01*
X324753Y78507D01*
X324753D01*
Y85619D01*
X317718D01*
X317677Y85681D01*
X317944Y86181D01*
X320500D01*
Y89437D01*
X317047D01*
Y86544D01*
X316547Y86337D01*
X316039Y86845D01*
Y90912D01*
X316167Y91103D01*
X316345Y92000D01*
X316167Y92897D01*
X315658Y93658D01*
X314897Y94166D01*
X314673Y94211D01*
X312442Y96442D01*
X311780Y96884D01*
X311000Y97039D01*
X306039D01*
Y99507D01*
X307753D01*
Y104323D01*
X308253Y104475D01*
X308342Y104342D01*
X309103Y103833D01*
X310000Y103655D01*
X310513Y103757D01*
X312072Y102198D01*
X312247Y102081D01*
Y99507D01*
X319753D01*
Y102081D01*
X319928Y102198D01*
X322157Y104427D01*
X322657Y104220D01*
Y102837D01*
X338037D01*
Y109162D01*
X322657D01*
Y107223D01*
X321999D01*
X321531Y107130D01*
X321134Y106865D01*
X320215Y105945D01*
X319753Y106136D01*
Y106619D01*
X312765D01*
X312731Y106681D01*
X313028Y107181D01*
X315500D01*
Y110437D01*
X312047D01*
Y107954D01*
X311934Y107868D01*
X311547Y107732D01*
X310897Y108167D01*
X310000Y108345D01*
X309103Y108167D01*
X308453Y107732D01*
X308066Y107868D01*
X307953Y107954D01*
Y110437D01*
D02*
G37*
G36*
X58500Y95921D02*
Y92500D01*
X61921D01*
X61851Y93032D01*
X61453Y93993D01*
X60819Y94819D01*
X59993Y95453D01*
X59032Y95851D01*
X58500Y95921D01*
D02*
G37*
G36*
X369500Y96500D02*
X367550D01*
X367645Y96025D01*
X368198Y95198D01*
X369024Y94645D01*
X369500Y94551D01*
Y96500D01*
D02*
G37*
G36*
X25500Y97500D02*
X23550D01*
X23645Y97025D01*
X24198Y96198D01*
X25025Y95645D01*
X25500Y95551D01*
Y97500D01*
D02*
G37*
G36*
X372449Y96500D02*
X370500D01*
Y94551D01*
X370975Y94645D01*
X371802Y95198D01*
X372355Y96025D01*
X372449Y96500D01*
D02*
G37*
G36*
X257000Y107000D02*
X255050D01*
X255145Y106525D01*
X255698Y105698D01*
X256524Y105145D01*
X257000Y105051D01*
Y107000D01*
D02*
G37*
G36*
X217953Y105374D02*
X214500D01*
Y102118D01*
X217953D01*
Y105374D01*
D02*
G37*
G36*
X259949Y107000D02*
X258000D01*
Y105051D01*
X258475Y105145D01*
X259302Y105698D01*
X259855Y106525D01*
X259949Y107000D01*
D02*
G37*
G36*
X269950D02*
X268000D01*
Y105051D01*
X268476Y105145D01*
X269302Y105698D01*
X269855Y106525D01*
X269950Y107000D01*
D02*
G37*
G36*
X267000D02*
X265051D01*
X265145Y106525D01*
X265698Y105698D01*
X266525Y105145D01*
X267000Y105051D01*
Y107000D01*
D02*
G37*
G36*
X26500Y100450D02*
Y98500D01*
X28449D01*
X28355Y98975D01*
X27802Y99802D01*
X26976Y100355D01*
X26500Y100450D01*
D02*
G37*
G36*
X25500D02*
X25025Y100355D01*
X24198Y99802D01*
X23645Y98975D01*
X23550Y98500D01*
X25500D01*
Y100450D01*
D02*
G37*
G36*
X346500Y101950D02*
Y100000D01*
X348449D01*
X348355Y100476D01*
X347802Y101302D01*
X346975Y101855D01*
X346500Y101950D01*
D02*
G37*
G36*
X213500Y105374D02*
X210047D01*
Y102118D01*
X213500D01*
Y105374D01*
D02*
G37*
G36*
X217753Y101556D02*
X210247D01*
Y100039D01*
X180000D01*
X180000Y100039D01*
X179220Y99884D01*
X178558Y99442D01*
X178558Y99442D01*
X169155Y90039D01*
X142039D01*
Y93000D01*
X141884Y93780D01*
X141442Y94442D01*
X139211Y96673D01*
X139167Y96897D01*
X138658Y97658D01*
X137897Y98167D01*
X137000Y98345D01*
X136103Y98167D01*
X135342Y97658D01*
X134833Y96897D01*
X134655Y96000D01*
X134833Y95103D01*
X135342Y94342D01*
X136103Y93834D01*
X136327Y93789D01*
X137961Y92155D01*
Y88000D01*
Y80039D01*
X134000D01*
X133220Y79884D01*
X132558Y79442D01*
X132558Y79442D01*
X129415Y76299D01*
X127413D01*
X127121Y76241D01*
X125451D01*
X125260Y76703D01*
X128316Y79759D01*
X130182D01*
Y83721D01*
X127705D01*
X127413Y83779D01*
X127121Y83721D01*
X124645D01*
Y81855D01*
X120558Y77769D01*
X120116Y77107D01*
X119961Y76327D01*
Y71088D01*
X119833Y70897D01*
X119655Y70000D01*
X119833Y69103D01*
X120342Y68342D01*
X121103Y67834D01*
X122000Y67655D01*
X122897Y67834D01*
X123658Y68342D01*
X124167Y69103D01*
X124345Y70000D01*
X124167Y70897D01*
X124039Y71088D01*
Y75144D01*
X124145Y75215D01*
X124645Y74948D01*
Y72279D01*
X125374D01*
Y67493D01*
X124247D01*
Y60381D01*
X131753D01*
Y65156D01*
X132253Y65363D01*
X134995Y62621D01*
X135657Y62179D01*
X136247Y62062D01*
Y60507D01*
X138024D01*
Y57753D01*
X136507D01*
Y50247D01*
X138024D01*
Y49937D01*
X138179Y49157D01*
X138621Y48495D01*
X140558Y46558D01*
X141220Y46116D01*
X142000Y45961D01*
X142000Y45961D01*
X173202D01*
X173469Y45461D01*
X173145Y44976D01*
X173050Y44500D01*
X177950D01*
X177855Y44976D01*
X177531Y45461D01*
X177798Y45961D01*
X186000D01*
X186780Y46116D01*
X187442Y46558D01*
X194442Y53558D01*
X194442Y53558D01*
X194884Y54220D01*
X195031Y54961D01*
X202898D01*
X202994Y54980D01*
X206047D01*
X206820Y55134D01*
X207475Y55572D01*
X207913Y56227D01*
X208067Y57000D01*
X207913Y57773D01*
X207475Y58428D01*
X206820Y58866D01*
X206047Y59020D01*
X202994D01*
X202898Y59039D01*
X195039D01*
Y68912D01*
X195167Y69103D01*
X195345Y70000D01*
X195167Y70897D01*
X194658Y71658D01*
X193897Y72167D01*
X193000Y72345D01*
X192103Y72167D01*
X191342Y71658D01*
X190833Y70897D01*
X190655Y70000D01*
X190833Y69103D01*
X190961Y68912D01*
Y57000D01*
Y55845D01*
X185155Y50039D01*
X171970D01*
X171556Y50247D01*
X171556Y50539D01*
Y51961D01*
X174000D01*
X174780Y52116D01*
X175442Y52558D01*
X176673Y53789D01*
X176897Y53834D01*
X177658Y54342D01*
X178072Y54961D01*
X184000D01*
X184097Y54980D01*
X187150D01*
X187923Y55134D01*
X188578Y55572D01*
X189016Y56227D01*
X189170Y57000D01*
X189016Y57773D01*
X188578Y58428D01*
X187923Y58866D01*
X187150Y59020D01*
X186039D01*
Y59980D01*
X187150D01*
X187923Y60134D01*
X188578Y60572D01*
X189016Y61227D01*
X189170Y62000D01*
X189016Y62773D01*
X188578Y63428D01*
X187923Y63866D01*
X187150Y64020D01*
X184097D01*
X184000Y64039D01*
X183903Y64020D01*
X180850D01*
X180077Y63866D01*
X179422Y63428D01*
X178984Y62773D01*
X178831Y62000D01*
X178984Y61227D01*
X179422Y60572D01*
X180077Y60134D01*
X180850Y59980D01*
X181961D01*
Y59039D01*
X177000D01*
X176220Y58884D01*
X175558Y58442D01*
X175327Y58211D01*
X175103Y58166D01*
X174342Y57658D01*
X173833Y56897D01*
X173789Y56673D01*
X173155Y56039D01*
X171556D01*
Y57753D01*
X164444D01*
X164444Y50371D01*
X164063Y50154D01*
X163682Y50371D01*
Y50539D01*
Y57753D01*
X162039D01*
Y60507D01*
X163753D01*
Y67619D01*
X156247D01*
Y66102D01*
X153753D01*
Y67619D01*
X146247D01*
Y60507D01*
X153753D01*
Y62024D01*
X156247D01*
Y60507D01*
X157961D01*
Y57753D01*
X156570D01*
Y50539D01*
X156570Y50247D01*
X156156Y50039D01*
X152190D01*
X151693Y50047D01*
X151693Y50539D01*
Y53500D01*
X147937D01*
X144181D01*
X144181Y50524D01*
X144119Y50486D01*
X143619Y50765D01*
Y57753D01*
X142102D01*
Y60507D01*
X143753D01*
Y67619D01*
X136247D01*
Y67619D01*
X135906Y67478D01*
X135539Y67845D01*
Y70412D01*
X135667Y70603D01*
X135747Y71008D01*
X136247Y70959D01*
Y68381D01*
X143753D01*
Y75493D01*
X142039D01*
Y76912D01*
X142167Y77103D01*
X142345Y78000D01*
X142167Y78897D01*
X142039Y79088D01*
Y85961D01*
X170000D01*
X170780Y86116D01*
X171442Y86558D01*
X180845Y95961D01*
X210247D01*
Y94444D01*
X217753D01*
Y95961D01*
X220155D01*
X225961Y90155D01*
Y65000D01*
X226116Y64220D01*
X226558Y63558D01*
X226789Y63327D01*
X226833Y63103D01*
X227342Y62342D01*
X228103Y61834D01*
X229000Y61655D01*
X229897Y61834D01*
X230448Y62201D01*
X238835D01*
X238931Y62220D01*
X241984D01*
X242757Y62374D01*
X243412Y62812D01*
X243850Y63467D01*
X244004Y64240D01*
X243850Y65013D01*
X243412Y65668D01*
X242757Y66106D01*
X241984Y66260D01*
X238931D01*
X238835Y66279D01*
X230039D01*
Y91000D01*
X229884Y91780D01*
X229442Y92442D01*
X229442Y92442D01*
X222442Y99442D01*
X221780Y99884D01*
X221000Y100039D01*
X217753D01*
Y101556D01*
D02*
G37*
G36*
X57500Y95921D02*
X56968Y95851D01*
X56007Y95453D01*
X55181Y94819D01*
X54547Y93993D01*
X54149Y93032D01*
X54079Y92500D01*
X57500D01*
Y95921D01*
D02*
G37*
G36*
X205493Y92753D02*
X198381D01*
Y85247D01*
X205493D01*
Y86961D01*
X210155D01*
X211961Y85155D01*
Y83493D01*
X210247D01*
Y81677D01*
X209747Y81525D01*
X209658Y81658D01*
X208897Y82166D01*
X208000Y82345D01*
X207103Y82166D01*
X206912Y82039D01*
X205493D01*
Y83753D01*
X198381D01*
Y76247D01*
X205493D01*
Y76247D01*
X205961Y76170D01*
Y74845D01*
X205155Y74039D01*
X202898D01*
X202801Y74020D01*
X199748D01*
X198975Y73866D01*
X198320Y73428D01*
X197882Y72773D01*
X197728Y72000D01*
X197882Y71227D01*
X198320Y70572D01*
X198975Y70134D01*
X199748Y69980D01*
X202801D01*
X202898Y69961D01*
X206000D01*
X206780Y70116D01*
X206801Y70130D01*
X206820Y70134D01*
X207475Y70572D01*
X207516Y70632D01*
X209442Y72558D01*
X209747Y73015D01*
X210247Y72863D01*
Y69242D01*
X210000Y69039D01*
X202898D01*
X202801Y69020D01*
X199748D01*
X198975Y68866D01*
X198320Y68428D01*
X197882Y67773D01*
X197728Y67000D01*
X197882Y66227D01*
X198320Y65572D01*
X198975Y65134D01*
X199748Y64980D01*
X202801D01*
X202898Y64961D01*
X209155D01*
X211558Y62558D01*
X212220Y62116D01*
X213000Y61961D01*
X219912D01*
X220103Y61834D01*
X221000Y61655D01*
X221897Y61834D01*
X222658Y62342D01*
X223167Y63103D01*
X223345Y64000D01*
X223167Y64897D01*
X223039Y65088D01*
Y70000D01*
X222884Y70780D01*
X222442Y71442D01*
X220379Y73505D01*
X219717Y73947D01*
X218937Y74102D01*
X217753D01*
Y75619D01*
X210371Y75619D01*
X210154Y76000D01*
X210371Y76381D01*
X217753D01*
Y83493D01*
X216039D01*
Y84876D01*
X216449Y85156D01*
X216539Y85142D01*
X217000Y85050D01*
Y87500D01*
Y89950D01*
X216525Y89855D01*
X215698Y89302D01*
X215145Y88476D01*
X215126Y88381D01*
X214648Y88236D01*
X212442Y90442D01*
X211780Y90884D01*
X211000Y91039D01*
X205493D01*
Y92753D01*
D02*
G37*
G36*
X219950Y87000D02*
X218000D01*
Y85050D01*
X218476Y85145D01*
X219302Y85698D01*
X219855Y86524D01*
X219950Y87000D01*
D02*
G37*
G36*
X197619Y92753D02*
X190507D01*
Y91039D01*
X188000D01*
X187220Y90884D01*
X186558Y90442D01*
X184558Y88442D01*
X184116Y87780D01*
X183961Y87000D01*
Y82000D01*
X182997D01*
X182800Y82039D01*
X180000D01*
X179220Y81884D01*
X178558Y81442D01*
X176327Y79211D01*
X176103Y79167D01*
X175342Y78658D01*
X174833Y77897D01*
X174655Y77000D01*
X174833Y76103D01*
X175342Y75342D01*
X176103Y74834D01*
X177000Y74655D01*
X177897Y74834D01*
X178658Y75342D01*
X179167Y76103D01*
X179211Y76327D01*
X180845Y77961D01*
X182800D01*
X182997Y78000D01*
X185803D01*
X186000Y77961D01*
X186197Y78000D01*
X188000D01*
Y79803D01*
X188039Y80000D01*
Y86155D01*
X188845Y86961D01*
X190507D01*
Y85247D01*
X197619D01*
Y92753D01*
D02*
G37*
G36*
X7000Y89950D02*
X6525Y89855D01*
X5698Y89302D01*
X5145Y88476D01*
X5051Y88000D01*
X7000D01*
Y89950D01*
D02*
G37*
G36*
X324953Y89437D02*
X321500D01*
Y86181D01*
X324953D01*
Y89437D01*
D02*
G37*
G36*
X37000Y87000D02*
X35050D01*
X35145Y86524D01*
X35698Y85698D01*
X36525Y85145D01*
X37000Y85050D01*
Y87000D01*
D02*
G37*
G36*
X9950D02*
X8000D01*
Y85050D01*
X8475Y85145D01*
X9302Y85698D01*
X9855Y86524D01*
X9950Y87000D01*
D02*
G37*
G36*
X39950D02*
X38000D01*
Y85050D01*
X38475Y85145D01*
X39302Y85698D01*
X39855Y86524D01*
X39950Y87000D01*
D02*
G37*
G36*
X179949D02*
X178000D01*
Y85050D01*
X178475Y85145D01*
X179302Y85698D01*
X179855Y86524D01*
X179949Y87000D01*
D02*
G37*
G36*
X177000D02*
X175050D01*
X175145Y86524D01*
X175698Y85698D01*
X176524Y85145D01*
X177000Y85050D01*
Y87000D01*
D02*
G37*
G36*
X57500Y91500D02*
X54079D01*
X54149Y90968D01*
X54547Y90007D01*
X55181Y89181D01*
X56007Y88547D01*
X56968Y88149D01*
X57500Y88079D01*
Y91500D01*
D02*
G37*
G36*
X218000Y89950D02*
Y88000D01*
X219950D01*
X219855Y88476D01*
X219302Y89302D01*
X218476Y89855D01*
X218000Y89950D01*
D02*
G37*
G36*
X61921Y91500D02*
X58500D01*
Y88079D01*
X59032Y88149D01*
X59993Y88547D01*
X60819Y89181D01*
X61453Y90007D01*
X61851Y90968D01*
X61921Y91500D01*
D02*
G37*
G36*
X324953Y93693D02*
X321500D01*
Y90437D01*
X324953D01*
Y93693D01*
D02*
G37*
G36*
X320500D02*
X317047D01*
Y90437D01*
X320500D01*
Y93693D01*
D02*
G37*
G36*
X37000Y89950D02*
X36525Y89855D01*
X35698Y89302D01*
X35145Y88476D01*
X35050Y88000D01*
X37000D01*
Y89950D01*
D02*
G37*
G36*
X8000D02*
Y88000D01*
X9950D01*
X9855Y88476D01*
X9302Y89302D01*
X8475Y89855D01*
X8000Y89950D01*
D02*
G37*
G36*
X38000D02*
Y88000D01*
X39950D01*
X39855Y88476D01*
X39302Y89302D01*
X38475Y89855D01*
X38000Y89950D01*
D02*
G37*
G36*
X178000D02*
Y88000D01*
X179949D01*
X179855Y88476D01*
X179302Y89302D01*
X178475Y89855D01*
X178000Y89950D01*
D02*
G37*
G36*
X177000D02*
X176524Y89855D01*
X175698Y89302D01*
X175145Y88476D01*
X175050Y88000D01*
X177000D01*
Y89950D01*
D02*
G37*
G36*
X200000Y113000D02*
X198050D01*
X198145Y112524D01*
X198698Y111698D01*
X199524Y111145D01*
X200000Y111050D01*
Y113000D01*
D02*
G37*
G36*
X102500Y113921D02*
Y110500D01*
X105921D01*
X105851Y111032D01*
X105453Y111993D01*
X104819Y112819D01*
X103993Y113453D01*
X103032Y113851D01*
X102500Y113921D01*
D02*
G37*
G36*
X202950Y113000D02*
X201000D01*
Y111050D01*
X201476Y111145D01*
X202302Y111698D01*
X202855Y112524D01*
X202950Y113000D01*
D02*
G37*
G36*
X315500Y114693D02*
X312047D01*
Y111437D01*
X315500D01*
Y114693D01*
D02*
G37*
G36*
X303500D02*
X300047D01*
Y111437D01*
X303500D01*
Y114693D01*
D02*
G37*
G36*
X355949Y112000D02*
X354000D01*
Y110050D01*
X354475Y110145D01*
X355302Y110698D01*
X355855Y111524D01*
X355949Y112000D01*
D02*
G37*
G36*
X353000D02*
X351050D01*
X351145Y111524D01*
X351698Y110698D01*
X352524Y110145D01*
X353000Y110050D01*
Y112000D01*
D02*
G37*
G36*
X4000Y112450D02*
X3525Y112355D01*
X2698Y111802D01*
X2145Y110976D01*
X2050Y110500D01*
X4000D01*
Y112450D01*
D02*
G37*
G36*
X101500Y113921D02*
X100968Y113851D01*
X100007Y113453D01*
X99181Y112819D01*
X98547Y111993D01*
X98149Y111032D01*
X98079Y110500D01*
X101500D01*
Y113921D01*
D02*
G37*
G36*
X5000Y112450D02*
Y110500D01*
X6949D01*
X6855Y110976D01*
X6302Y111802D01*
X5475Y112355D01*
X5000Y112450D01*
D02*
G37*
G36*
X353000Y114950D02*
X352524Y114855D01*
X351698Y114302D01*
X351145Y113476D01*
X351050Y113000D01*
X353000D01*
Y114950D01*
D02*
G37*
G36*
X369953Y115693D02*
X366500D01*
Y112437D01*
X369953D01*
Y115693D01*
D02*
G37*
G36*
X354000Y114950D02*
Y113000D01*
X355949D01*
X355855Y113476D01*
X355302Y114302D01*
X354475Y114855D01*
X354000Y114950D01*
D02*
G37*
G36*
X201000Y115949D02*
Y114000D01*
X202950D01*
X202855Y114476D01*
X202302Y115302D01*
X201476Y115855D01*
X201000Y115949D01*
D02*
G37*
G36*
X200000D02*
X199524Y115855D01*
X198698Y115302D01*
X198145Y114476D01*
X198050Y114000D01*
X200000D01*
Y115949D01*
D02*
G37*
G36*
X319953Y114693D02*
X316500D01*
Y111437D01*
X319953D01*
Y114693D01*
D02*
G37*
G36*
X307953D02*
X304500D01*
Y111437D01*
X307953D01*
Y114693D01*
D02*
G37*
G36*
X294500D02*
X291047D01*
Y111437D01*
X294500D01*
Y114693D01*
D02*
G37*
G36*
X365500Y115693D02*
X362047D01*
Y112437D01*
X365500D01*
Y115693D01*
D02*
G37*
G36*
X298953Y114693D02*
X295500D01*
Y111437D01*
X298953D01*
Y114693D01*
D02*
G37*
G36*
X369953Y111437D02*
X366500D01*
Y108181D01*
X369953D01*
Y111437D01*
D02*
G37*
G36*
X294500Y110437D02*
X291047D01*
Y107181D01*
X294500D01*
Y110437D01*
D02*
G37*
G36*
X92000Y113785D02*
X91020Y113656D01*
X90107Y113278D01*
X89324Y112677D01*
X88722Y111893D01*
X88344Y110980D01*
X88215Y110000D01*
X88344Y109020D01*
X88722Y108107D01*
X89134Y107571D01*
X88887Y107071D01*
X85113D01*
X84866Y107571D01*
X85278Y108107D01*
X85656Y109020D01*
X85785Y110000D01*
X85656Y110980D01*
X85278Y111893D01*
X84676Y112677D01*
X83893Y113278D01*
X82980Y113656D01*
X82000Y113785D01*
X81020Y113656D01*
X80107Y113278D01*
X79324Y112677D01*
X78722Y111893D01*
X78344Y110980D01*
X78215Y110000D01*
X78344Y109020D01*
X78722Y108107D01*
X79134Y107571D01*
X78887Y107071D01*
X76660D01*
X75379Y108351D01*
X75656Y109020D01*
X75785Y110000D01*
X75656Y110980D01*
X75278Y111893D01*
X74677Y112677D01*
X73893Y113278D01*
X72980Y113656D01*
X72000Y113785D01*
X71020Y113656D01*
X70107Y113278D01*
X69323Y112677D01*
X68722Y111893D01*
X68344Y110980D01*
X68215Y110000D01*
X68344Y109020D01*
X68722Y108107D01*
X69323Y107324D01*
X70107Y106722D01*
X71020Y106344D01*
X72000Y106215D01*
X72980Y106344D01*
X73649Y106621D01*
X74584Y105685D01*
X74393Y105224D01*
X58507D01*
X55379Y108351D01*
X55656Y109020D01*
X55785Y110000D01*
X55656Y110980D01*
X55278Y111893D01*
X54677Y112677D01*
X53893Y113278D01*
X52980Y113656D01*
X52000Y113785D01*
X51020Y113656D01*
X50107Y113278D01*
X49323Y112677D01*
X48722Y111893D01*
X48344Y110980D01*
X48215Y110000D01*
X48344Y109020D01*
X48722Y108107D01*
X49323Y107324D01*
X50107Y106722D01*
X51020Y106344D01*
X52000Y106215D01*
X52980Y106344D01*
X53649Y106621D01*
X56384Y103885D01*
X56193Y103424D01*
X50307D01*
X45379Y108351D01*
X45656Y109020D01*
X45785Y110000D01*
X45656Y110980D01*
X45278Y111893D01*
X44677Y112677D01*
X43893Y113278D01*
X42980Y113656D01*
X42000Y113785D01*
X41020Y113656D01*
X40107Y113278D01*
X39323Y112677D01*
X38722Y111893D01*
X38344Y110980D01*
X38215Y110000D01*
X38344Y109020D01*
X38722Y108107D01*
X39323Y107324D01*
X40107Y106722D01*
X41020Y106344D01*
X42000Y106215D01*
X42980Y106344D01*
X43649Y106621D01*
X47984Y102286D01*
X47793Y101823D01*
X41907D01*
X35379Y108351D01*
X35656Y109020D01*
X35785Y110000D01*
X35656Y110980D01*
X35278Y111893D01*
X34677Y112677D01*
X33893Y113278D01*
X32980Y113656D01*
X32000Y113785D01*
X31020Y113656D01*
X30107Y113278D01*
X29324Y112677D01*
X28722Y111893D01*
X28344Y110980D01*
X28215Y110000D01*
X28344Y109020D01*
X28722Y108107D01*
X29324Y107324D01*
X30107Y106722D01*
X31020Y106344D01*
X32000Y106215D01*
X32980Y106344D01*
X33649Y106621D01*
X38584Y101686D01*
X38393Y101224D01*
X32507D01*
X25379Y108351D01*
X25656Y109020D01*
X25785Y110000D01*
X25656Y110980D01*
X25278Y111893D01*
X24677Y112677D01*
X23893Y113278D01*
X22980Y113656D01*
X22000Y113785D01*
X21020Y113656D01*
X20107Y113278D01*
X19323Y112677D01*
X18722Y111893D01*
X18344Y110980D01*
X18215Y110000D01*
X18344Y109020D01*
X18722Y108107D01*
X19323Y107324D01*
X20107Y106722D01*
X21020Y106344D01*
X22000Y106215D01*
X22980Y106344D01*
X23649Y106621D01*
X31135Y99135D01*
X31532Y98870D01*
X32000Y98777D01*
X39230D01*
X39872Y98135D01*
X40269Y97870D01*
X40737Y97777D01*
X112288D01*
X112756Y97870D01*
X113153Y98135D01*
X118595Y103577D01*
X137693D01*
X144776Y96493D01*
Y95949D01*
X144342Y95658D01*
X143833Y94897D01*
X143655Y94000D01*
X143833Y93103D01*
X144342Y92342D01*
X145103Y91834D01*
X146000Y91655D01*
X146897Y91834D01*
X147658Y92342D01*
X148167Y93103D01*
X148245Y93498D01*
X148755D01*
X148833Y93103D01*
X149342Y92342D01*
X150103Y91834D01*
X151000Y91655D01*
X151897Y91834D01*
X152658Y92342D01*
X153167Y93103D01*
X153245Y93498D01*
X153755D01*
X153833Y93103D01*
X154342Y92342D01*
X155103Y91834D01*
X156000Y91655D01*
X156897Y91834D01*
X157658Y92342D01*
X158167Y93103D01*
X158245Y93498D01*
X158755D01*
X158833Y93103D01*
X159342Y92342D01*
X160103Y91834D01*
X161000Y91655D01*
X161897Y91834D01*
X162658Y92342D01*
X163167Y93103D01*
X163345Y94000D01*
X163167Y94897D01*
X162658Y95658D01*
X162223Y95949D01*
Y97000D01*
X162130Y97468D01*
X161865Y97865D01*
X150590Y109141D01*
X150754Y109683D01*
X150833Y109699D01*
X155398Y105135D01*
X155795Y104870D01*
X156263Y104777D01*
X173051D01*
X173342Y104342D01*
X174103Y103833D01*
X175000Y103655D01*
X175897Y103833D01*
X176658Y104342D01*
X177167Y105103D01*
X177345Y106000D01*
X177167Y106897D01*
X176658Y107658D01*
X175897Y108167D01*
X175000Y108345D01*
X174103Y108167D01*
X173342Y107658D01*
X173051Y107223D01*
X156770D01*
X151928Y112065D01*
X151531Y112330D01*
X151063Y112424D01*
X115437D01*
X114969Y112330D01*
X114572Y112065D01*
X109578Y107071D01*
X105365D01*
X105118Y107571D01*
X105453Y108007D01*
X105851Y108968D01*
X105921Y109500D01*
X98079D01*
X98149Y108968D01*
X98547Y108007D01*
X98882Y107571D01*
X98635Y107071D01*
X95113D01*
X94866Y107571D01*
X95278Y108107D01*
X95656Y109020D01*
X95785Y110000D01*
X95656Y110980D01*
X95278Y111893D01*
X94677Y112677D01*
X93893Y113278D01*
X92980Y113656D01*
X92000Y113785D01*
D02*
G37*
G36*
X298953Y110437D02*
X295500D01*
Y107181D01*
X298953D01*
Y110437D01*
D02*
G37*
G36*
X319953Y110437D02*
X316500D01*
Y107181D01*
X319953D01*
Y110437D01*
D02*
G37*
G36*
X303500D02*
X300047D01*
Y107181D01*
X303500D01*
Y110437D01*
D02*
G37*
G36*
X279949Y107000D02*
X278000D01*
Y105051D01*
X278475Y105145D01*
X279302Y105698D01*
X279855Y106525D01*
X279949Y107000D01*
D02*
G37*
G36*
X277000D02*
X275050D01*
X275145Y106525D01*
X275698Y105698D01*
X276524Y105145D01*
X277000Y105051D01*
Y107000D01*
D02*
G37*
G36*
X62000Y113785D02*
X61020Y113656D01*
X60107Y113278D01*
X59324Y112677D01*
X58722Y111893D01*
X58344Y110980D01*
X58215Y110000D01*
X58344Y109020D01*
X58722Y108107D01*
X59324Y107324D01*
X60107Y106722D01*
X61020Y106344D01*
X62000Y106215D01*
X62980Y106344D01*
X63893Y106722D01*
X64676Y107324D01*
X65278Y108107D01*
X65656Y109020D01*
X65785Y110000D01*
X65656Y110980D01*
X65278Y111893D01*
X64676Y112677D01*
X63893Y113278D01*
X62980Y113656D01*
X62000Y113785D01*
D02*
G37*
G36*
X217953Y109630D02*
X214500D01*
Y106374D01*
X217953D01*
Y109630D01*
D02*
G37*
G36*
X213500D02*
X210047D01*
Y106374D01*
X213500D01*
Y109630D01*
D02*
G37*
G36*
X268000Y109950D02*
Y108000D01*
X269950D01*
X269855Y108475D01*
X269302Y109302D01*
X268476Y109855D01*
X268000Y109950D01*
D02*
G37*
G36*
X267000D02*
X266525Y109855D01*
X265698Y109302D01*
X265145Y108475D01*
X265051Y108000D01*
X267000D01*
Y109950D01*
D02*
G37*
G36*
X277000D02*
X276524Y109855D01*
X275698Y109302D01*
X275145Y108475D01*
X275050Y108000D01*
X277000D01*
Y109950D01*
D02*
G37*
G36*
X365500Y111437D02*
X362047D01*
Y108181D01*
X365500D01*
Y111437D01*
D02*
G37*
G36*
X278000Y109950D02*
Y108000D01*
X279949D01*
X279855Y108475D01*
X279302Y109302D01*
X278475Y109855D01*
X278000Y109950D01*
D02*
G37*
G36*
X4000Y109500D02*
X2050D01*
X2145Y109025D01*
X2698Y108198D01*
X3525Y107645D01*
X4000Y107551D01*
Y109500D01*
D02*
G37*
G36*
X359690Y109162D02*
X344310D01*
Y107223D01*
X342949D01*
X342658Y107658D01*
X341897Y108167D01*
X341000Y108345D01*
X340103Y108167D01*
X339342Y107658D01*
X338833Y106897D01*
X338655Y106000D01*
X338833Y105103D01*
X339342Y104342D01*
X340103Y103833D01*
X341000Y103655D01*
X341897Y103833D01*
X342658Y104342D01*
X342949Y104777D01*
X344310D01*
Y102838D01*
X359690D01*
Y103927D01*
X360152Y104118D01*
X361072Y103198D01*
X361469Y102933D01*
X361937Y102840D01*
X362247D01*
Y100507D01*
X369753D01*
Y107619D01*
X362247D01*
Y106136D01*
X361785Y105945D01*
X360865Y106865D01*
X360468Y107130D01*
X360000Y107223D01*
X359690D01*
Y109162D01*
D02*
G37*
G36*
X6949Y109500D02*
X5000D01*
Y107551D01*
X5475Y107645D01*
X6302Y108198D01*
X6855Y109025D01*
X6949Y109500D01*
D02*
G37*
G36*
X258000Y109950D02*
Y108000D01*
X259949D01*
X259855Y108475D01*
X259302Y109302D01*
X258475Y109855D01*
X258000Y109950D01*
D02*
G37*
G36*
X257000D02*
X256524Y109855D01*
X255698Y109302D01*
X255145Y108475D01*
X255050Y108000D01*
X257000D01*
Y109950D01*
D02*
G37*
G36*
X68000Y69950D02*
Y68000D01*
X69950D01*
X69855Y68476D01*
X69302Y69302D01*
X68476Y69855D01*
X68000Y69950D01*
D02*
G37*
G36*
X67000D02*
X66524Y69855D01*
X65698Y69302D01*
X65145Y68476D01*
X65051Y68000D01*
X67000D01*
Y69950D01*
D02*
G37*
G36*
X160000Y80345D02*
X159103Y80167D01*
X158342Y79658D01*
X157833Y78897D01*
X157655Y78000D01*
X157833Y77103D01*
X157961Y76912D01*
Y75493D01*
X156247D01*
Y68381D01*
X163753D01*
Y75493D01*
X162039D01*
Y76912D01*
X162167Y77103D01*
X162345Y78000D01*
X162167Y78897D01*
X161658Y79658D01*
X160897Y80167D01*
X160000Y80345D01*
D02*
G37*
G36*
X150000D02*
X149103Y80167D01*
X148342Y79658D01*
X147833Y78897D01*
X147655Y78000D01*
X147833Y77103D01*
X147961Y76912D01*
Y75493D01*
X146247D01*
Y68381D01*
X153753D01*
Y75493D01*
X152039D01*
Y76912D01*
X152167Y77103D01*
X152345Y78000D01*
X152167Y78897D01*
X151658Y79658D01*
X150897Y80167D01*
X150000Y80345D01*
D02*
G37*
G36*
X244109Y68740D02*
X239335D01*
Y67016D01*
X241984D01*
X242835Y67186D01*
X243557Y67668D01*
X244039Y68389D01*
X244109Y68740D01*
D02*
G37*
G36*
X331437Y69500D02*
X328181D01*
Y66047D01*
X331437D01*
Y69500D01*
D02*
G37*
G36*
X69950Y67000D02*
X68000D01*
Y65051D01*
X68476Y65145D01*
X69302Y65698D01*
X69855Y66524D01*
X69950Y67000D01*
D02*
G37*
G36*
X238335Y68740D02*
X233561D01*
X233630Y68389D01*
X234113Y67668D01*
X234834Y67186D01*
X235685Y67016D01*
X238335D01*
Y68740D01*
D02*
G37*
G36*
X335693Y69500D02*
X332437D01*
Y66047D01*
X335693D01*
Y69500D01*
D02*
G37*
G36*
X31682Y71753D02*
X24570D01*
Y69223D01*
X21493D01*
Y71753D01*
X14381D01*
Y64247D01*
X21493D01*
Y66777D01*
X24570D01*
Y64247D01*
X31682D01*
Y71753D01*
D02*
G37*
G36*
X15753Y113753D02*
X8247D01*
Y106247D01*
X9961D01*
Y100000D01*
X10116Y99220D01*
X10558Y98558D01*
X33758Y75358D01*
X33758Y75358D01*
X34420Y74916D01*
X35200Y74761D01*
X42355D01*
X44558Y72558D01*
X45015Y72253D01*
X44863Y71753D01*
X44507D01*
Y69223D01*
X39556D01*
Y71753D01*
X32444D01*
Y64247D01*
X34776D01*
Y62507D01*
X33135Y60865D01*
X32870Y60468D01*
X32803Y60134D01*
X32324Y59906D01*
X29365Y62865D01*
X28968Y63130D01*
X28500Y63223D01*
X11287D01*
Y64247D01*
X13619D01*
Y71753D01*
X6507D01*
Y64247D01*
X8839D01*
Y59753D01*
X6507D01*
Y52247D01*
X13619D01*
Y59753D01*
X11287D01*
Y60777D01*
X27993D01*
X30052Y58718D01*
X29859Y58204D01*
X29520Y58137D01*
X29061Y57829D01*
X28753Y57369D01*
X28645Y56827D01*
Y55294D01*
X26436D01*
X24865Y56865D01*
X24468Y57130D01*
X24000Y57223D01*
X21493D01*
Y59753D01*
X14381D01*
Y52247D01*
X16714D01*
Y51444D01*
X15493Y50223D01*
X9949D01*
X9658Y50658D01*
X8897Y51167D01*
X8000Y51345D01*
X7103Y51167D01*
X6342Y50658D01*
X5833Y49897D01*
X5655Y49000D01*
X5833Y48103D01*
X6342Y47342D01*
X7103Y46833D01*
X8000Y46655D01*
X8897Y46833D01*
X9658Y47342D01*
X9949Y47776D01*
X16000D01*
X16468Y47870D01*
X16865Y48135D01*
X18802Y50072D01*
X19067Y50469D01*
X19161Y50937D01*
Y52247D01*
X21493D01*
Y54777D01*
X23493D01*
X25064Y53206D01*
X25461Y52940D01*
X25929Y52847D01*
X28645D01*
Y51315D01*
X28753Y50772D01*
X28870Y50597D01*
X28933Y50283D01*
X29198Y49886D01*
X30949Y48135D01*
X31346Y47870D01*
X31814Y47776D01*
X43000D01*
X43468Y47870D01*
X43865Y48135D01*
X45487Y49757D01*
X46000Y49655D01*
X46897Y49833D01*
X47658Y50342D01*
X48167Y51103D01*
X48345Y52000D01*
X48167Y52897D01*
X47658Y53658D01*
X47525Y53747D01*
X47677Y54247D01*
X51682D01*
Y61753D01*
X49349D01*
Y64247D01*
X51619D01*
Y71235D01*
X52048Y71507D01*
X52119Y71514D01*
X52181Y71476D01*
Y68500D01*
X55937D01*
X59693D01*
X59693Y71953D01*
X60190Y71961D01*
X64912D01*
X65103Y71833D01*
X66000Y71655D01*
X66897Y71833D01*
X67658Y72342D01*
X68167Y73103D01*
X68345Y74000D01*
X68167Y74897D01*
X67658Y75658D01*
X66897Y76166D01*
X66000Y76345D01*
X65103Y76166D01*
X64912Y76039D01*
X64190D01*
X63693Y76047D01*
X63693Y76539D01*
Y79500D01*
X59937D01*
X56181D01*
X56181Y76524D01*
X56119Y76486D01*
X55619Y76765D01*
Y83753D01*
X54102D01*
Y87937D01*
X54102Y87937D01*
X53947Y88717D01*
X53505Y89379D01*
X53505Y89379D01*
X51680Y91204D01*
X51785Y92000D01*
X51656Y92980D01*
X51278Y93893D01*
X50677Y94677D01*
X49893Y95278D01*
X48980Y95656D01*
X48000Y95785D01*
X47020Y95656D01*
X46107Y95278D01*
X45324Y94677D01*
X44722Y93893D01*
X44344Y92980D01*
X44215Y92000D01*
X44344Y91020D01*
X44722Y90107D01*
X45324Y89324D01*
X46107Y88722D01*
X47020Y88344D01*
X48000Y88215D01*
X48796Y88320D01*
X50024Y87092D01*
Y83753D01*
X48507D01*
Y82039D01*
X40000D01*
X39803Y82000D01*
X38000D01*
Y80197D01*
X37961Y80000D01*
X38000Y79803D01*
Y78839D01*
X36045D01*
X14039Y100845D01*
Y106247D01*
X15753D01*
Y113753D01*
D02*
G37*
G36*
X348449Y72500D02*
X346500D01*
Y70551D01*
X346975Y70645D01*
X347802Y71198D01*
X348355Y72025D01*
X348449Y72500D01*
D02*
G37*
G36*
X173953Y75437D02*
X170500D01*
Y72181D01*
X173953D01*
Y75437D01*
D02*
G37*
G36*
X169500D02*
X166047D01*
Y72181D01*
X169500D01*
Y75437D01*
D02*
G37*
G36*
X345500Y72500D02*
X343550D01*
X343645Y72025D01*
X344198Y71198D01*
X345024Y70645D01*
X345500Y70551D01*
Y72500D01*
D02*
G37*
G36*
X241984Y71464D02*
X239335D01*
Y69740D01*
X244109D01*
X244039Y70091D01*
X243557Y70813D01*
X242835Y71295D01*
X241984Y71464D01*
D02*
G37*
G36*
X238335D02*
X235685D01*
X234834Y71295D01*
X234113Y70813D01*
X233630Y70091D01*
X233561Y69740D01*
X238335D01*
Y71464D01*
D02*
G37*
G36*
X189274Y71500D02*
X184500D01*
Y69776D01*
X187150D01*
X188001Y69946D01*
X188722Y70428D01*
X189204Y71149D01*
X189274Y71500D01*
D02*
G37*
G36*
X183500D02*
X178726D01*
X178796Y71149D01*
X179278Y70428D01*
X179999Y69946D01*
X180850Y69776D01*
X183500D01*
Y71500D01*
D02*
G37*
G36*
X67000Y67000D02*
X65051D01*
X65145Y66524D01*
X65698Y65698D01*
X66524Y65145D01*
X67000Y65051D01*
Y67000D01*
D02*
G37*
G36*
X113000Y59949D02*
Y58000D01*
X114950D01*
X114855Y58476D01*
X114302Y59302D01*
X113476Y59855D01*
X113000Y59949D01*
D02*
G37*
G36*
X372005Y21611D02*
X352405D01*
Y2011D01*
X372005D01*
Y21611D01*
D02*
G37*
G36*
X55500Y61953D02*
X52244D01*
Y58500D01*
X55500D01*
Y61953D01*
D02*
G37*
G36*
X232000Y59949D02*
X231524Y59855D01*
X230698Y59302D01*
X230145Y58476D01*
X230050Y58000D01*
X232000D01*
Y59949D01*
D02*
G37*
G36*
X112000D02*
X111524Y59855D01*
X110698Y59302D01*
X110145Y58476D01*
X109983Y57662D01*
X109463Y57587D01*
X109072Y58171D01*
X108351Y58653D01*
X108000Y58723D01*
Y53949D01*
X109724D01*
Y56274D01*
X110224Y56407D01*
X110698Y55698D01*
X111524Y55145D01*
X112000Y55050D01*
Y57500D01*
Y59949D01*
D02*
G37*
G36*
X127500Y59819D02*
X124047D01*
Y56563D01*
X127500D01*
Y59819D01*
D02*
G37*
G36*
X219500Y4950D02*
X219024Y4855D01*
X218198Y4302D01*
X217645Y3475D01*
X217550Y3000D01*
X219500D01*
Y4950D01*
D02*
G37*
G36*
X87500Y59449D02*
X87024Y59355D01*
X86198Y58802D01*
X85645Y57976D01*
X85550Y57500D01*
X87500D01*
Y59449D01*
D02*
G37*
G36*
X131953Y59819D02*
X128500D01*
Y56563D01*
X131953D01*
Y59819D01*
D02*
G37*
G36*
X59756Y61953D02*
X56500D01*
Y58500D01*
X59756D01*
Y61953D01*
D02*
G37*
G36*
X261760Y66279D02*
X257732D01*
X257635Y66260D01*
X254583D01*
X253810Y66106D01*
X253154Y65668D01*
X252716Y65013D01*
X252563Y64240D01*
X252716Y63467D01*
X253154Y62812D01*
X253810Y62374D01*
X254583Y62220D01*
X257635D01*
X257732Y62201D01*
X260915D01*
X261462Y61655D01*
X261215Y61194D01*
X260882Y61260D01*
X254583D01*
X253810Y61106D01*
X253154Y60668D01*
X252716Y60013D01*
X252563Y59240D01*
X252716Y58467D01*
X253154Y57812D01*
X253810Y57374D01*
X254583Y57220D01*
X256509D01*
Y52239D01*
X253930Y49660D01*
X253430Y49867D01*
Y51753D01*
X246318D01*
Y44247D01*
X253430D01*
Y46777D01*
X254000D01*
X254468Y46870D01*
X254555Y46928D01*
X255111Y46698D01*
X255145Y46525D01*
X255698Y45698D01*
X256524Y45145D01*
X257000Y45050D01*
Y47500D01*
X257500D01*
Y48000D01*
X259949D01*
X259855Y48476D01*
X259302Y49302D01*
X258475Y49855D01*
X258253Y49899D01*
X258108Y50378D01*
X258597Y50867D01*
X258863Y51264D01*
X258956Y51732D01*
Y57220D01*
X260882D01*
X261655Y57374D01*
X262310Y57812D01*
X262748Y58467D01*
X262880Y59132D01*
X263222Y59287D01*
X263387Y59312D01*
X264103Y58833D01*
X265000Y58655D01*
X265897Y58833D01*
X266658Y59342D01*
X267167Y60103D01*
X267345Y61000D01*
X267167Y61897D01*
X266658Y62658D01*
X265897Y63166D01*
X265673Y63211D01*
X263202Y65682D01*
X262540Y66124D01*
X261760Y66279D01*
D02*
G37*
G36*
X21611Y21611D02*
X2011D01*
Y2011D01*
X21611D01*
Y21611D01*
D02*
G37*
G36*
X59693Y67500D02*
X56437D01*
Y64047D01*
X59693D01*
Y67500D01*
D02*
G37*
G36*
X55437D02*
X52181D01*
Y64047D01*
X55437D01*
Y67500D01*
D02*
G37*
G36*
X335630Y63953D02*
X332374D01*
Y60500D01*
X335630D01*
Y63953D01*
D02*
G37*
G36*
X173753Y71619D02*
X166247D01*
Y64507D01*
X167961D01*
Y63088D01*
X167833Y62897D01*
X167655Y62000D01*
X167833Y61103D01*
X168342Y60342D01*
X169103Y59834D01*
X170000Y59655D01*
X170897Y59834D01*
X171658Y60342D01*
X172167Y61103D01*
X172345Y62000D01*
X172167Y62897D01*
X172039Y63088D01*
Y64507D01*
X173753D01*
Y64961D01*
X184000D01*
X184097Y64980D01*
X187150D01*
X187923Y65134D01*
X188578Y65572D01*
X189016Y66227D01*
X189170Y67000D01*
X189016Y67773D01*
X188578Y68428D01*
X187923Y68866D01*
X187150Y69020D01*
X184097D01*
X184000Y69039D01*
X173753D01*
Y71619D01*
D02*
G37*
G36*
X97556Y81753D02*
X90444D01*
Y74247D01*
X92024D01*
Y71753D01*
X90507D01*
Y70039D01*
X82000D01*
X81220Y69884D01*
X80558Y69442D01*
X79327Y68211D01*
X79103Y68167D01*
X78342Y67658D01*
X77833Y66897D01*
X77655Y66000D01*
X77833Y65103D01*
X78342Y64342D01*
X79103Y63833D01*
X80000Y63655D01*
X80897Y63833D01*
X81658Y64342D01*
X82166Y65103D01*
X82211Y65327D01*
X82845Y65961D01*
X90507D01*
Y64247D01*
X91656D01*
X91863Y63747D01*
X91058Y62942D01*
X90616Y62280D01*
X90461Y61500D01*
Y58717D01*
X89961Y58565D01*
X89802Y58802D01*
X88976Y59355D01*
X88500Y59449D01*
Y57000D01*
Y54550D01*
X88976Y54645D01*
X89802Y55198D01*
X89961Y55435D01*
X90461Y55283D01*
Y53449D01*
X90480Y53352D01*
Y50299D01*
X90634Y49526D01*
X91072Y48871D01*
X91727Y48433D01*
X92500Y48279D01*
X93273Y48433D01*
X93928Y48871D01*
X94366Y49526D01*
X94520Y50299D01*
Y53352D01*
X94539Y53449D01*
Y60655D01*
X95505Y61621D01*
X95947Y62283D01*
X96102Y63063D01*
Y64247D01*
X97619D01*
Y71753D01*
X96102D01*
Y74247D01*
X97556D01*
Y81753D01*
D02*
G37*
G36*
X331374Y63953D02*
X328118D01*
Y60500D01*
X331374D01*
Y63953D01*
D02*
G37*
G36*
X240000Y113785D02*
X239020Y113656D01*
X238107Y113278D01*
X237323Y112677D01*
X236722Y111893D01*
X236344Y110980D01*
X236215Y110000D01*
X236344Y109020D01*
X236722Y108107D01*
X237323Y107324D01*
X238107Y106722D01*
X239020Y106344D01*
X240000Y106215D01*
X240796Y106320D01*
X246961Y100155D01*
Y64345D01*
X243896Y61279D01*
X238835D01*
X238738Y61260D01*
X235685D01*
X234912Y61106D01*
X234257Y60668D01*
X233819Y60013D01*
X233815Y59996D01*
X233475Y59855D01*
X233000Y59949D01*
Y57500D01*
Y55050D01*
X233475Y55145D01*
X234302Y55698D01*
X234855Y56524D01*
X235020Y57353D01*
X235685Y57220D01*
X238738D01*
X238835Y57201D01*
X244740D01*
X245520Y57356D01*
X246182Y57798D01*
X250442Y62058D01*
X250884Y62720D01*
X251039Y63500D01*
Y101000D01*
X250884Y101780D01*
X250442Y102442D01*
X243680Y109204D01*
X243785Y110000D01*
X243656Y110980D01*
X243278Y111893D01*
X242676Y112677D01*
X241893Y113278D01*
X240980Y113656D01*
X240000Y113785D01*
D02*
G37*
G36*
X105630Y81953D02*
X102374D01*
Y78500D01*
X105630D01*
Y81953D01*
D02*
G37*
G36*
X101374D02*
X98118D01*
Y78500D01*
X101374D01*
Y81953D01*
D02*
G37*
G36*
X81500Y80500D02*
X79550D01*
X79645Y80024D01*
X80198Y79198D01*
X81024Y78645D01*
X81500Y78550D01*
Y80500D01*
D02*
G37*
G36*
Y83450D02*
X81024Y83355D01*
X80198Y82802D01*
X79645Y81976D01*
X79550Y81500D01*
X81500D01*
Y83450D01*
D02*
G37*
G36*
X262000Y79949D02*
X261525Y79855D01*
X260698Y79302D01*
X260145Y78475D01*
X260051Y78000D01*
X262000D01*
Y79949D01*
D02*
G37*
G36*
X222000D02*
X221525Y79855D01*
X220698Y79302D01*
X220145Y78475D01*
X220051Y78000D01*
X222000D01*
Y79949D01*
D02*
G37*
G36*
X235949Y79500D02*
X234000D01*
Y77551D01*
X234475Y77645D01*
X235302Y78198D01*
X235855Y79024D01*
X235949Y79500D01*
D02*
G37*
G36*
X82500Y83450D02*
Y81500D01*
X84449D01*
X84355Y81976D01*
X83802Y82802D01*
X82976Y83355D01*
X82500Y83450D01*
D02*
G37*
G36*
X223000Y79949D02*
Y78000D01*
X224950D01*
X224855Y78475D01*
X224302Y79302D01*
X223476Y79855D01*
X223000Y79949D01*
D02*
G37*
G36*
X234000Y82450D02*
Y80500D01*
X235949D01*
X235855Y80976D01*
X235302Y81802D01*
X234475Y82355D01*
X234000Y82450D01*
D02*
G37*
G36*
X233000D02*
X232524Y82355D01*
X231698Y81802D01*
X231145Y80976D01*
X231050Y80500D01*
X233000D01*
Y82450D01*
D02*
G37*
G36*
X133500Y83000D02*
X131551D01*
X131645Y82525D01*
X132198Y81698D01*
X133025Y81145D01*
X133500Y81050D01*
Y83000D01*
D02*
G37*
G36*
X63693Y83953D02*
X60437D01*
Y80500D01*
X63693D01*
Y83953D01*
D02*
G37*
G36*
X136450Y83000D02*
X134500D01*
Y81050D01*
X134976Y81145D01*
X135802Y81698D01*
X136355Y82525D01*
X136450Y83000D01*
D02*
G37*
G36*
X193563Y83953D02*
X190307D01*
Y80500D01*
X193563D01*
Y83953D01*
D02*
G37*
G36*
X84449Y80500D02*
X82500D01*
Y78550D01*
X82976Y78645D01*
X83802Y79198D01*
X84355Y80024D01*
X84449Y80500D01*
D02*
G37*
G36*
X59437Y83953D02*
X56181D01*
Y80500D01*
X59437D01*
Y83953D01*
D02*
G37*
G36*
X197819D02*
X194563D01*
Y80500D01*
X197819D01*
Y83953D01*
D02*
G37*
G36*
X233000Y79500D02*
X231050D01*
X231145Y79024D01*
X231698Y78198D01*
X232524Y77645D01*
X233000Y77551D01*
Y79500D01*
D02*
G37*
G36*
X101374Y77500D02*
X98118D01*
Y74047D01*
X101374D01*
Y77500D01*
D02*
G37*
G36*
X346500Y75450D02*
Y73500D01*
X348449D01*
X348355Y73975D01*
X347802Y74802D01*
X346975Y75355D01*
X346500Y75450D01*
D02*
G37*
G36*
X222000Y77000D02*
X220051D01*
X220145Y76525D01*
X220698Y75698D01*
X221525Y75145D01*
X222000Y75050D01*
Y77000D01*
D02*
G37*
G36*
X105630Y77500D02*
X102374D01*
Y74047D01*
X105630D01*
Y77500D01*
D02*
G37*
G36*
X183500Y74224D02*
X180850D01*
X179999Y74054D01*
X179278Y73572D01*
X178796Y72851D01*
X178726Y72500D01*
X183500D01*
Y74224D01*
D02*
G37*
G36*
X233753Y113753D02*
X226247D01*
Y106247D01*
X227961D01*
Y101000D01*
X228116Y100220D01*
X228558Y99558D01*
X236795Y91321D01*
Y76260D01*
X235685D01*
X234912Y76106D01*
X234257Y75668D01*
X233819Y75013D01*
X233665Y74240D01*
X233819Y73467D01*
X234257Y72812D01*
X234912Y72374D01*
X235685Y72220D01*
X238738D01*
X238835Y72201D01*
X238931Y72220D01*
X241984D01*
X242757Y72374D01*
X243412Y72812D01*
X243850Y73467D01*
X244004Y74240D01*
X243850Y75013D01*
X243412Y75668D01*
X242757Y76106D01*
X241984Y76260D01*
X240874D01*
Y92165D01*
X240719Y92946D01*
X240277Y93607D01*
X232039Y101845D01*
Y106247D01*
X233753D01*
Y113753D01*
D02*
G37*
G36*
X345500Y75450D02*
X345024Y75355D01*
X344198Y74802D01*
X343645Y73975D01*
X343550Y73500D01*
X345500D01*
Y75450D01*
D02*
G37*
G36*
X187150Y74224D02*
X184500D01*
Y72500D01*
X189274D01*
X189204Y72851D01*
X188722Y73572D01*
X188001Y74054D01*
X187150Y74224D01*
D02*
G37*
G36*
X7000Y87000D02*
X5051D01*
X5145Y86524D01*
X5698Y85698D01*
X6525Y85145D01*
X7000Y85050D01*
Y87000D01*
D02*
G37*
G36*
X169500Y79693D02*
X166047D01*
Y76437D01*
X169500D01*
Y79693D01*
D02*
G37*
G36*
X197819Y79500D02*
X194563D01*
Y76047D01*
X197819D01*
Y79500D01*
D02*
G37*
G36*
X117087Y83921D02*
Y82240D01*
X119555D01*
Y83921D01*
X117087D01*
D02*
G37*
G36*
X173953Y79693D02*
X170500D01*
Y76437D01*
X173953D01*
Y79693D01*
D02*
G37*
G36*
X193563Y79500D02*
X190307D01*
Y76047D01*
X193563D01*
Y79500D01*
D02*
G37*
G36*
X134500Y85949D02*
Y84000D01*
X136450D01*
X136355Y84475D01*
X135802Y85302D01*
X134976Y85855D01*
X134500Y85949D01*
D02*
G37*
G36*
X224950Y77000D02*
X223000D01*
Y75050D01*
X223476Y75145D01*
X224302Y75698D01*
X224855Y76525D01*
X224950Y77000D01*
D02*
G37*
G36*
X133500Y85949D02*
X133025Y85855D01*
X132198Y85302D01*
X131645Y84475D01*
X131551Y84000D01*
X133500D01*
Y85949D01*
D02*
G37*
%LPD*%
G36*
X43431Y37315D02*
X38155Y32039D01*
X36000D01*
X35220Y31884D01*
X34558Y31442D01*
X30558Y27442D01*
X30116Y26780D01*
X29965Y26020D01*
X28850D01*
X28077Y25866D01*
X27422Y25428D01*
X26984Y24773D01*
X26854Y24119D01*
X26354Y24168D01*
Y31462D01*
X30685D01*
X31153Y31555D01*
X31550Y31820D01*
X32897Y33166D01*
X33162Y33563D01*
X33721Y33811D01*
X34000Y33755D01*
X34543Y33863D01*
X34984Y34159D01*
X35426Y33863D01*
X35969Y33755D01*
X36511Y33863D01*
X36953Y34159D01*
X37394Y33863D01*
X37937Y33755D01*
X38480Y33863D01*
X38939Y34171D01*
X39247Y34631D01*
X39355Y35173D01*
Y36706D01*
X40929D01*
X41397Y36799D01*
X41794Y37064D01*
X42507Y37776D01*
X43239D01*
X43431Y37315D01*
D02*
G37*
G36*
X55551Y22545D02*
X55961Y22398D01*
Y21039D01*
X50898D01*
X50801Y21020D01*
X47748D01*
X46975Y20866D01*
X46320Y20428D01*
X45882Y19773D01*
X45728Y19000D01*
X45882Y18227D01*
X46320Y17572D01*
X46975Y17134D01*
X47748Y16980D01*
X50801D01*
X50898Y16961D01*
X55961D01*
Y15602D01*
X55551Y15455D01*
X55461Y15438D01*
X54820Y15866D01*
X54047Y16020D01*
X50994D01*
X50898Y16039D01*
X45845D01*
X45039Y16845D01*
Y21155D01*
X45845Y21961D01*
X50898D01*
X50994Y21980D01*
X54047D01*
X54820Y22134D01*
X55461Y22562D01*
X55551Y22545D01*
D02*
G37*
G36*
X352761Y63076D02*
X353139Y62163D01*
X353741Y61379D01*
X354525Y60777D01*
X355438Y60399D01*
X356417Y60270D01*
X357397Y60399D01*
X358310Y60777D01*
X359094Y61379D01*
X359277Y61617D01*
X359776Y61447D01*
Y56663D01*
X359277Y56494D01*
X359094Y56732D01*
X358310Y57333D01*
X357397Y57711D01*
X356417Y57840D01*
X355438Y57711D01*
X354525Y57333D01*
X353741Y56732D01*
X353139Y55948D01*
X352761Y55035D01*
X352724Y54749D01*
X352223Y54782D01*
Y63329D01*
X352724Y63362D01*
X352761Y63076D01*
D02*
G37*
G36*
X356205Y97021D02*
X356701Y96769D01*
X356833Y96103D01*
X357342Y95342D01*
X358103Y94833D01*
X359000Y94655D01*
X359897Y94833D01*
X360658Y95342D01*
X360949Y95776D01*
X362493D01*
X369777Y88493D01*
Y86948D01*
X369303Y86787D01*
X369236Y86874D01*
X368411Y87508D01*
X367449Y87906D01*
X366917Y87976D01*
Y84055D01*
Y80134D01*
X367449Y80204D01*
X368411Y80602D01*
X369236Y81236D01*
X369303Y81323D01*
X369777Y81162D01*
Y79145D01*
X368066Y77434D01*
X367397Y77711D01*
X366417Y77840D01*
X365438Y77711D01*
X364525Y77333D01*
X363741Y76732D01*
X363139Y75948D01*
X362761Y75035D01*
X362723Y74749D01*
X362224Y74782D01*
Y82544D01*
X362723Y82644D01*
X362965Y82062D01*
X363598Y81236D01*
X364424Y80602D01*
X365385Y80204D01*
X365917Y80134D01*
Y84055D01*
Y87976D01*
X365385Y87906D01*
X364424Y87508D01*
X363598Y86874D01*
X362965Y86049D01*
X362723Y85466D01*
X362224Y85566D01*
Y86000D01*
X362130Y86468D01*
X361865Y86865D01*
X358243Y90487D01*
X358345Y91000D01*
X358167Y91897D01*
X357658Y92658D01*
X356897Y93167D01*
X356000Y93345D01*
X355103Y93167D01*
X354342Y92658D01*
X353833Y91897D01*
X353724Y91345D01*
X353223Y91394D01*
Y95493D01*
X354487Y96757D01*
X355000Y96655D01*
X355897Y96833D01*
X356180Y97022D01*
X356205Y97021D01*
D02*
G37*
G36*
X284623Y92076D02*
X284235Y91496D01*
X284056Y90598D01*
X284235Y89701D01*
X284743Y88940D01*
X285178Y88650D01*
Y86098D01*
X285271Y85630D01*
X285536Y85233D01*
X287776Y82993D01*
Y69946D01*
X287544Y69876D01*
X287277Y69820D01*
X286475Y70355D01*
X286000Y70450D01*
Y68000D01*
X285000D01*
Y70450D01*
X284524Y70355D01*
X283698Y69802D01*
X283145Y68976D01*
X283036Y68430D01*
X281819D01*
Y72936D01*
X283198D01*
Y80112D01*
X283535Y80472D01*
X283535Y80802D01*
Y83925D01*
X279780D01*
Y84925D01*
X283535D01*
Y88378D01*
X282047D01*
X281970Y88613D01*
X281964Y88878D01*
X282658Y89342D01*
X283167Y90103D01*
X283345Y91000D01*
X283167Y91897D01*
X283008Y92136D01*
X283243Y92576D01*
X284391D01*
X284623Y92076D01*
D02*
G37*
G36*
X320444Y62118D02*
Y56247D01*
X322777D01*
Y50507D01*
X321513Y49243D01*
X321000Y49345D01*
X320103Y49167D01*
X319724Y48913D01*
X319223Y49180D01*
Y61551D01*
X319658Y61842D01*
X319944Y62270D01*
X320444Y62118D01*
D02*
G37*
G36*
X352761Y53075D02*
X353139Y52163D01*
X353741Y51379D01*
X354525Y50777D01*
X355438Y50399D01*
X356417Y50270D01*
X357397Y50399D01*
X358310Y50777D01*
X359094Y51379D01*
X359277Y51617D01*
X359776Y51447D01*
Y49145D01*
X358066Y47434D01*
X357397Y47711D01*
X356417Y47840D01*
X355438Y47711D01*
X354525Y47333D01*
X353741Y46732D01*
X353139Y45948D01*
X352761Y45035D01*
X352724Y44749D01*
X352223Y44782D01*
Y53329D01*
X352724Y53361D01*
X352761Y53075D01*
D02*
G37*
G36*
X314833Y75103D02*
X315342Y74342D01*
X316103Y73834D01*
X317000Y73655D01*
X317897Y73834D01*
X318088Y73961D01*
X320093D01*
X320507Y73753D01*
Y72039D01*
X317500D01*
X316720Y71884D01*
X316058Y71442D01*
X309558Y64942D01*
X309384Y64681D01*
X308884D01*
X308802Y64802D01*
X307976Y65355D01*
X307500Y65450D01*
Y63000D01*
Y60550D01*
X307976Y60645D01*
X308461Y60969D01*
X308961Y60702D01*
Y59753D01*
X307318D01*
Y52247D01*
X308961D01*
Y50798D01*
X308461Y50531D01*
X307976Y50855D01*
X307500Y50950D01*
Y48500D01*
Y46051D01*
X307976Y46145D01*
X308461Y46469D01*
X308961Y46202D01*
Y44845D01*
X307815Y43699D01*
X307273Y43864D01*
X307167Y44397D01*
X306658Y45158D01*
X305897Y45667D01*
X305000Y45845D01*
X304487Y45743D01*
X301951Y48280D01*
X302167Y48603D01*
X302345Y49500D01*
X302167Y50397D01*
X301658Y51158D01*
X301076Y51547D01*
X301228Y52047D01*
X302500D01*
Y56000D01*
Y59953D01*
X299244Y59953D01*
X299223Y60444D01*
Y60493D01*
X301487Y62757D01*
X302000Y62655D01*
X302897Y62833D01*
X303658Y63342D01*
X304167Y64103D01*
X304345Y65000D01*
X304167Y65897D01*
X303913Y66277D01*
X304181Y66777D01*
X308000D01*
X308468Y66870D01*
X308865Y67135D01*
X313865Y72135D01*
X314130Y72532D01*
X314224Y73000D01*
Y75606D01*
X314723Y75655D01*
X314833Y75103D01*
D02*
G37*
%LPC*%
G36*
X303500Y59953D02*
Y56500D01*
X306756D01*
Y59953D01*
X303500D01*
D02*
G37*
G36*
X306500Y65450D02*
X306025Y65355D01*
X305198Y64802D01*
X304645Y63976D01*
X304551Y63500D01*
X306500D01*
Y65450D01*
D02*
G37*
G36*
Y62500D02*
X304551D01*
X304645Y62024D01*
X305198Y61198D01*
X306025Y60645D01*
X306500Y60550D01*
Y62500D01*
D02*
G37*
G36*
Y50950D02*
X306025Y50855D01*
X305198Y50302D01*
X304645Y49475D01*
X304551Y49000D01*
X306500D01*
Y50950D01*
D02*
G37*
G36*
Y48000D02*
X304551D01*
X304645Y47524D01*
X305198Y46698D01*
X306025Y46145D01*
X306500Y46051D01*
Y48000D01*
D02*
G37*
G36*
X306756Y55500D02*
X303500D01*
Y52047D01*
X306756D01*
Y55500D01*
D02*
G37*
%LPD*%
G36*
X44507Y64247D02*
X46902D01*
Y61753D01*
X44570D01*
Y59725D01*
X44070Y59458D01*
X43475Y59855D01*
X43000Y59949D01*
Y57500D01*
Y55050D01*
X43475Y55145D01*
X44070Y55542D01*
X44570Y55275D01*
Y54247D01*
X44570Y54247D01*
X44570D01*
X44486Y53755D01*
X44342Y53658D01*
X43833Y52897D01*
X43655Y52000D01*
X43757Y51487D01*
X42493Y50223D01*
X39696D01*
X39440Y50636D01*
X39441Y50723D01*
X39559Y51315D01*
Y53571D01*
X37937D01*
Y54071D01*
X37437D01*
Y58349D01*
X37316Y58325D01*
X36953Y58082D01*
X36589Y58325D01*
X36468Y58349D01*
Y54071D01*
X35469D01*
Y58603D01*
X35223Y58798D01*
Y59493D01*
X36865Y61135D01*
X37130Y61532D01*
X37224Y62000D01*
Y64247D01*
X39556D01*
Y66777D01*
X44507D01*
Y64247D01*
D02*
G37*
%LPC*%
G36*
X42000Y59949D02*
X41524Y59855D01*
X40698Y59302D01*
X40145Y58476D01*
X40051Y58000D01*
X42000D01*
Y59949D01*
D02*
G37*
G36*
Y57000D02*
X40051D01*
X40145Y56524D01*
X40698Y55698D01*
X41524Y55145D01*
X42000Y55050D01*
Y57000D01*
D02*
G37*
G36*
X38437Y58349D02*
Y54571D01*
X39559D01*
Y56827D01*
X39435Y57447D01*
X39084Y57973D01*
X38558Y58325D01*
X38437Y58349D01*
D02*
G37*
%LPD*%
D10*
X170000Y75937D02*
D03*
Y68063D02*
D03*
X128000Y56063D02*
D03*
Y63937D02*
D03*
X214000Y105874D02*
D03*
Y98000D02*
D03*
Y72063D02*
D03*
Y79937D02*
D03*
X150000Y71937D02*
D03*
Y64063D02*
D03*
X160000D02*
D03*
Y71937D02*
D03*
X140000D02*
D03*
Y64063D02*
D03*
X366000Y111937D02*
D03*
Y104063D02*
D03*
X334000Y89937D02*
D03*
Y82063D02*
D03*
X321000Y89937D02*
D03*
Y82063D02*
D03*
X316000Y103063D02*
D03*
Y110937D02*
D03*
X304000D02*
D03*
Y103063D02*
D03*
X295000Y110937D02*
D03*
Y103063D02*
D03*
X64000Y17937D02*
D03*
Y10063D02*
D03*
Y28063D02*
D03*
Y35937D02*
D03*
X82000Y48000D02*
D03*
Y40126D02*
D03*
D11*
X73000Y29000D02*
D03*
D17*
X160126Y54000D02*
D03*
X168000D02*
D03*
X201937Y89000D02*
D03*
X194063D02*
D03*
Y80000D02*
D03*
X201937D02*
D03*
X242000Y48000D02*
D03*
X249874D02*
D03*
X101937Y68000D02*
D03*
X94063D02*
D03*
X140063Y54000D02*
D03*
X147937D02*
D03*
X94000Y78000D02*
D03*
X101874D02*
D03*
X324063Y70000D02*
D03*
X331937D02*
D03*
X331874Y60000D02*
D03*
X324000D02*
D03*
X303000Y56000D02*
D03*
X310874D02*
D03*
X279780Y84425D02*
D03*
X271905D02*
D03*
X279642Y76689D02*
D03*
X271768D02*
D03*
X279780Y64677D02*
D03*
X271905D02*
D03*
X279937Y55000D02*
D03*
X272063D02*
D03*
X188000Y16000D02*
D03*
X180126D02*
D03*
X100063Y6000D02*
D03*
X107937D02*
D03*
Y24000D02*
D03*
X100063D02*
D03*
X56000Y58000D02*
D03*
X48126D02*
D03*
X36000Y68000D02*
D03*
X28126D02*
D03*
X55937D02*
D03*
X48063D02*
D03*
X52063Y80000D02*
D03*
X59937D02*
D03*
X17937Y68000D02*
D03*
X10063D02*
D03*
Y56000D02*
D03*
X17937D02*
D03*
D18*
X107500Y53449D02*
D03*
X102500D02*
D03*
X97500D02*
D03*
X92500D02*
D03*
X107500Y34551D02*
D03*
X97500D02*
D03*
X102500D02*
D03*
X92500D02*
D03*
D20*
X88429Y10000D02*
D03*
X79571Y6260D02*
D03*
Y13740D02*
D03*
D23*
X221000Y98000D02*
X228000Y91000D01*
Y65000D02*
Y91000D01*
Y65000D02*
X229000Y64000D01*
X249000Y63500D02*
Y101000D01*
X244740Y59240D02*
X249000Y63500D01*
X238835Y59240D02*
X244740D01*
X229200Y44800D02*
X232000D01*
X227500Y46500D02*
X229200Y44800D01*
X194000Y46500D02*
X227500D01*
X308000Y41000D02*
X311000Y44000D01*
X308000Y38000D02*
Y41000D01*
X311000Y44000D02*
Y49000D01*
X317500Y70000D02*
X324063D01*
X311000Y63500D02*
X317500Y70000D01*
X140000Y78000D02*
Y88000D01*
Y93000D01*
Y88000D02*
X170000D01*
X137000Y96000D02*
X140000Y93000D01*
X134000Y78000D02*
X140000D01*
X130260Y74260D02*
X134000Y78000D01*
X127413Y74260D02*
X130260D01*
X133500Y67000D02*
Y71500D01*
X136437Y64063D02*
X140000D01*
X133500Y67000D02*
X136437Y64063D01*
X162500Y36500D02*
X200000D01*
X347055Y84055D02*
X356417D01*
X345063Y82063D02*
X347055Y84055D01*
X334000Y82063D02*
X345063D01*
X279642Y76689D02*
X279780Y76551D01*
Y71000D02*
Y76551D01*
Y64677D02*
Y71000D01*
X324000Y76000D02*
X332000D01*
X321000D02*
X324000D01*
X324063Y75937D01*
Y70000D02*
Y75937D01*
X317000Y76000D02*
X321000D01*
X317937Y82063D02*
X321000D01*
X314000Y86000D02*
X317937Y82063D01*
X314000Y86000D02*
Y92000D01*
X332000Y76000D02*
X334000Y78000D01*
Y82063D01*
X321000Y76000D02*
Y82063D01*
X184000Y57000D02*
Y62000D01*
X177000Y57000D02*
X184000D01*
X168000Y54000D02*
X174000D01*
X160000Y54126D02*
X160126Y54000D01*
X160000Y54126D02*
Y64063D01*
X150000D02*
X160000D01*
X150000Y71937D02*
Y78000D01*
X170000Y88000D02*
X180000Y98000D01*
X240000Y110000D02*
X249000Y101000D01*
X171063Y67000D02*
X184000D01*
X170000Y68063D02*
X171063Y67000D01*
X170000Y62000D02*
Y68063D01*
X140000Y64063D02*
X140063Y64000D01*
Y54000D02*
Y64000D01*
X122000Y70000D02*
Y76327D01*
X127413Y81740D01*
Y64524D02*
X128000Y63937D01*
X127413Y64524D02*
Y74260D01*
X177000Y8000D02*
X254000D01*
X172000Y13000D02*
X177000Y8000D01*
X172000Y13000D02*
Y22000D01*
X114937Y13000D02*
X172000D01*
X107937Y6000D02*
X114937Y13000D01*
X166200Y25200D02*
X172000D01*
X179200D01*
X180000Y26000D01*
Y16126D02*
X180126Y16000D01*
X180000Y16126D02*
Y26000D01*
X74000Y56000D02*
Y80000D01*
Y44000D02*
Y56000D01*
X81000D01*
X68000Y86000D02*
Y92000D01*
Y86000D02*
X74000Y80000D01*
X23000Y43315D02*
X34000D01*
X18000D02*
X23000D01*
X34000D02*
X40709D01*
X266000Y71000D02*
X279780D01*
X46000Y74000D02*
X66000D01*
X180000Y98000D02*
X214000D01*
X48000Y92000D02*
X52063Y87937D01*
Y80000D02*
Y87937D01*
X40000Y80000D02*
X52063D01*
X28000Y9000D02*
X32000D01*
Y19000D02*
Y24000D01*
Y9000D02*
Y14000D01*
X27000D02*
X32000D01*
X24315Y16685D02*
X27000Y14000D01*
X18000Y32685D02*
X24315D01*
Y16685D02*
Y32685D01*
X32000Y24000D02*
Y26000D01*
X36000Y30000D01*
X39000D01*
X48000Y39000D01*
X50898Y19000D02*
X58000D01*
X50898Y9000D02*
X57000D01*
X58000Y10000D01*
X63937D01*
X64000Y10063D01*
X54000Y30000D02*
X58000Y26000D01*
X48000Y30000D02*
X54000D01*
X58000Y10000D02*
Y19000D01*
Y26000D01*
X45000Y24000D02*
X50898D01*
X43000Y22000D02*
X45000Y24000D01*
X43000Y16000D02*
Y22000D01*
Y16000D02*
X45000Y14000D01*
X50898D01*
X64000Y17937D02*
Y28063D01*
X91315Y24000D02*
X100063D01*
X92500Y29500D02*
Y34551D01*
X91315Y28315D02*
X92500Y29500D01*
X91315Y24000D02*
Y28315D01*
X77449Y34551D02*
X92500D01*
X74000Y38000D02*
X77449Y34551D01*
X74000Y38000D02*
Y40800D01*
X128000Y18000D02*
X128685Y18685D01*
Y30000D01*
X139315Y18000D02*
Y30000D01*
Y18000D02*
X140000Y17315D01*
X120000Y30000D02*
X128685D01*
X115449Y34551D02*
X120000Y30000D01*
X107500Y34551D02*
X115449D01*
X92500Y53449D02*
Y61500D01*
X94063Y63063D01*
Y68000D01*
X82000D02*
X94063D01*
X80000Y66000D02*
X82000Y68000D01*
X94063D02*
Y77937D01*
X94000Y78000D02*
X94063Y77937D01*
X97500Y53449D02*
Y59500D01*
X101937Y63937D01*
Y68000D01*
X35200Y76800D02*
X40000D01*
X12000Y100000D02*
X35200Y76800D01*
X12000Y100000D02*
Y110000D01*
X40000Y76800D02*
X43200D01*
X46000Y74000D01*
X140000Y71937D02*
Y78000D01*
X229240Y64240D02*
X238835D01*
X229000Y64000D02*
X229240Y64240D01*
X176000Y56000D02*
X177000Y57000D01*
X174000Y54000D02*
X176000Y56000D01*
X232000Y48000D02*
X242000D01*
X225800Y51200D02*
X232000D01*
X221000Y56000D02*
X225800Y51200D01*
X214000Y56000D02*
X221000D01*
X208000Y62000D02*
X214000Y56000D01*
X202898Y62000D02*
X208000D01*
X202898Y67000D02*
X210000D01*
X213000Y64000D01*
X221000D01*
X186000Y48000D02*
X193000Y55000D01*
X140063Y49937D02*
Y54000D01*
Y49937D02*
X142000Y48000D01*
X186000D01*
X193000Y57000D02*
X202898D01*
X193000Y55000D02*
Y57000D01*
Y70000D01*
X202898Y72000D02*
X206000D01*
X208000Y74000D01*
Y80000D01*
X214000Y72063D02*
X218937D01*
X221000Y70000D01*
Y64000D02*
Y70000D01*
X201937Y80000D02*
X208000D01*
X201937Y89000D02*
X211000D01*
X214000Y86000D01*
Y79937D02*
Y86000D01*
X188000Y89000D02*
X194063D01*
X186000Y87000D02*
X188000Y89000D01*
X186000Y80000D02*
Y87000D01*
X180000Y80000D02*
X182800D01*
X177000Y77000D02*
X180000Y80000D01*
X311000Y95000D02*
X314000Y92000D01*
X304000Y96000D02*
Y101063D01*
Y96000D02*
X305000Y95000D01*
X311000D01*
X214000Y98000D02*
X221000D01*
X238835Y74240D02*
Y92165D01*
X230000Y101000D02*
Y110000D01*
Y101000D02*
X238835Y92165D01*
X160000Y71937D02*
Y78000D01*
X40709Y43315D02*
X41394Y44000D01*
X74000D01*
X257732Y64240D02*
X261760D01*
X265000Y61000D01*
X311000Y49000D02*
Y63500D01*
D25*
X102500Y48500D02*
Y53449D01*
Y48500D02*
X104000Y47000D01*
X131000D01*
X300000Y18000D02*
Y26500D01*
X294500Y32000D02*
X300000Y26500D01*
X137000Y41000D02*
X205663D01*
X207063Y39600D01*
X271943D01*
X135400Y39400D02*
X205000D01*
X206400Y38000D02*
X273000D01*
X205000Y39400D02*
X206400Y38000D01*
X73000Y13000D02*
Y29000D01*
Y31000D01*
X23000Y43315D02*
Y49000D01*
X300000Y48500D02*
X305000Y43500D01*
X300000Y48500D02*
Y49500D01*
X297300Y45700D02*
X299000Y44000D01*
X297300Y45700D02*
Y50618D01*
X298000Y51318D02*
Y61000D01*
X297300Y50618D02*
X298000Y51318D01*
X340000Y36500D02*
Y57000D01*
X330000Y89937D02*
X334000D01*
X328000Y87937D02*
X330000Y89937D01*
X328000Y81500D02*
Y87937D01*
X334000Y93000D02*
X341000Y100000D01*
X318000Y44000D02*
Y63500D01*
Y44000D02*
X323000Y39000D01*
X112000Y91000D02*
X120500Y99500D01*
X151063Y111200D02*
X156263Y106000D01*
X110084Y105847D02*
X115437Y111200D01*
X148400Y109600D02*
X161000Y97000D01*
X110500Y104000D02*
X116100Y109600D01*
X145000Y108000D02*
X156000Y97000D01*
X110963Y102200D02*
X116763Y108000D01*
X141600Y106400D02*
X151000Y97000D01*
X111626Y100600D02*
X117426Y106400D01*
X138200Y104800D02*
X146000Y97000D01*
X112288Y99000D02*
X118088Y104800D01*
X138200D01*
X117426Y106400D02*
X141600D01*
X116763Y108000D02*
X145000D01*
X116100Y109600D02*
X148400D01*
X115437Y111200D02*
X151063D01*
X58000Y104000D02*
X110500D01*
X76153Y105847D02*
X110084D01*
X304263Y31000D02*
X318000D01*
X299000Y36263D02*
X304263Y31000D01*
X323000Y27000D02*
Y39000D01*
X299000Y36263D02*
Y44000D01*
X295756Y37244D02*
Y43244D01*
X314000Y24000D02*
X320000Y18000D01*
X309000Y24000D02*
X314000D01*
X295756Y37244D02*
X309000Y24000D01*
X323000Y27000D02*
X325000Y25000D01*
X346000Y41000D02*
Y55000D01*
X343000Y56000D02*
X346000Y59000D01*
X343000Y44000D02*
Y56000D01*
X349400Y41072D02*
Y63600D01*
X351000Y43000D02*
Y68000D01*
X348000Y65000D02*
X349400Y63600D01*
Y41072D02*
X356417Y34055D01*
X359000Y97000D02*
X363000D01*
X371000Y89000D01*
X352000Y96000D02*
X355000Y99000D01*
X352000Y89000D02*
Y96000D01*
X351000Y43000D02*
X355000Y39000D01*
X291000Y56000D02*
Y85898D01*
X288737Y97000D02*
X299000Y86737D01*
X288074Y95400D02*
X297337Y86137D01*
X295737Y81444D02*
Y85474D01*
X287412Y93800D02*
X295737Y85474D01*
X289400Y98600D02*
X303000Y85000D01*
X298263Y92000D02*
X302000D01*
X290063Y100200D02*
X298263Y92000D01*
X295737Y81444D02*
X302182Y75000D01*
X256000Y97000D02*
X288737D01*
X299000Y85000D02*
Y86737D01*
X269400Y98600D02*
X289400D01*
X271800Y100200D02*
X290063D01*
X294937Y103000D02*
X295000Y103063D01*
X288000Y103000D02*
X294937D01*
X321999Y105999D02*
X330347D01*
X319063Y103063D02*
X321999Y105999D01*
X316000Y103063D02*
X319063D01*
X312937D02*
X316000D01*
X310000Y106000D02*
X312937Y103063D01*
X268000Y100000D02*
X269400Y98600D01*
X264400Y95400D02*
X288074D01*
X273000Y93800D02*
X287412D01*
X270200Y91000D02*
X273000Y93800D01*
X274000Y91000D02*
X281000D01*
X271905Y88906D02*
X274000Y91000D01*
X262000D02*
X270200D01*
X271905Y84425D02*
Y88906D01*
X255000Y96000D02*
X256000Y97000D01*
X263000Y94000D02*
X264400Y95400D01*
X259000Y94000D02*
X262000Y91000D01*
X294800Y54800D02*
Y64800D01*
X296400Y53400D02*
Y63400D01*
X366417Y74055D02*
X371000Y78638D01*
X361472Y39000D02*
X366417Y34055D01*
X356417Y44055D02*
X361000Y48638D01*
X313000Y73000D02*
Y83000D01*
X308000Y68000D02*
X313000Y73000D01*
X301000Y68000D02*
X308000D01*
X300000Y70000D02*
X307000D01*
X311000Y74000D01*
Y81182D01*
X371000Y78638D02*
Y89000D01*
X352000Y106000D02*
X360000D01*
X361937Y104063D01*
X366000D01*
X334000Y89937D02*
Y93000D01*
X298000Y61000D02*
X302000Y65000D01*
X320000Y8000D02*
X325000Y13000D01*
Y25000D01*
X356000Y91000D02*
X361000Y86000D01*
Y48638D02*
Y86000D01*
X355000Y39000D02*
X361472D01*
X34000Y37929D02*
Y43315D01*
X31814Y49000D02*
X43000D01*
X46000Y52000D01*
X37937Y37929D02*
X38008Y38000D01*
X17937Y50937D02*
Y56000D01*
X16000Y49000D02*
X17937Y50937D01*
X8000Y49000D02*
X16000D01*
X249874Y48000D02*
X254000D01*
X257732Y51732D01*
Y59240D01*
X271905Y60000D02*
Y64677D01*
Y55158D02*
Y60000D01*
X286000D01*
X271905Y55158D02*
X272063Y55000D01*
X267323Y64677D02*
X271905D01*
X262760Y69240D02*
X267323Y64677D01*
X257732Y69240D02*
X262760D01*
X271768Y84288D02*
X271905Y84425D01*
X271768Y76689D02*
Y84288D01*
X266689Y76689D02*
X271768D01*
X264240Y74240D02*
X266689Y76689D01*
X257732Y74240D02*
X264240D01*
X161000Y94000D02*
Y97000D01*
X156263Y106000D02*
X175000D01*
X156000Y94000D02*
Y97000D01*
X151000Y94000D02*
Y97000D01*
X146000Y94000D02*
Y97000D01*
X22000Y110000D02*
X32000Y100000D01*
X39737D01*
X72000Y110000D02*
X76153Y105847D01*
X39737Y100000D02*
X40737Y99000D01*
X32000Y110000D02*
X41400Y100600D01*
X42000Y110000D02*
X49800Y102200D01*
X52000Y110000D02*
X58000Y104000D01*
X40737Y99000D02*
X112288D01*
X41400Y100600D02*
X111626D01*
X49800Y102200D02*
X110963D01*
X112000Y80000D02*
Y91000D01*
Y80000D02*
X114000Y78000D01*
X116587D01*
X48126Y58000D02*
Y67937D01*
X48063Y68000D02*
X48126Y67937D01*
X36000Y68000D02*
X48063D01*
X17937Y56000D02*
X24000D01*
X25929Y54071D02*
X30063D01*
X24000Y56000D02*
X25929Y54071D01*
X32032Y34032D02*
Y37929D01*
X30685Y32685D02*
X32032Y34032D01*
X24315Y32685D02*
X30685D01*
X25000Y38000D02*
X29992D01*
X30063Y37929D01*
X17937Y68000D02*
X28126D01*
X31854Y54249D02*
X32032Y54071D01*
X10063Y56000D02*
Y62000D01*
Y68000D01*
X34000Y54071D02*
Y60000D01*
X36000Y62000D01*
Y68000D01*
X64000Y10063D02*
X70063D01*
X73000Y13000D01*
X79571Y6260D02*
X99803D01*
X100063Y6000D01*
X88429Y10000D02*
X92000D01*
X97000Y15000D01*
X104000D01*
X107937Y18937D01*
Y24000D01*
X106000Y29000D02*
X107937Y27063D01*
X104000Y29000D02*
X106000D01*
X102500Y30500D02*
X104000Y29000D01*
X102500Y30500D02*
Y34551D01*
X107937Y24000D02*
Y27063D01*
X82000Y40126D02*
X95874D01*
X97500Y38500D01*
Y34551D02*
Y38500D01*
X100063Y6000D02*
Y10063D01*
X102000Y12000D01*
X107000D01*
X118000Y23000D01*
X122000D01*
Y37000D02*
X133000D01*
X296400Y63400D02*
X301000Y68000D01*
X294800Y64800D02*
X300000Y70000D01*
X274000Y8000D02*
Y31000D01*
X296400Y53400D01*
X264000Y8000D02*
Y24000D01*
X294800Y54800D01*
X271943Y39600D02*
X289000Y56657D01*
X273000Y38000D02*
X291000Y56000D01*
X133000Y37000D02*
X135400Y39400D01*
X131000Y47000D02*
X137000Y41000D01*
X303000Y81000D02*
X306000D01*
X302182Y75000D02*
X306000D01*
X297337Y83663D02*
Y86137D01*
Y83663D02*
X303000Y78000D01*
X299000Y85000D02*
X303000Y81000D01*
X310000Y86000D02*
Y91000D01*
Y86000D02*
X313000Y83000D01*
X306000Y86182D02*
Y90000D01*
Y86182D02*
X311000Y81182D01*
X262000Y100000D02*
X263000D01*
X265700Y102700D02*
X269300D01*
X263000Y100000D02*
X265700Y102700D01*
X269300D02*
X271800Y100200D01*
X42000Y39000D02*
X48000D01*
X40929Y37929D02*
X42000Y39000D01*
X37937Y37929D02*
X40929D01*
X30063Y50751D02*
X31814Y49000D01*
X30063Y50751D02*
Y54071D01*
X321000Y47000D02*
X324000Y50000D01*
Y60000D01*
X289449Y87449D02*
X291000Y85898D01*
X286402Y86098D02*
Y90598D01*
Y86098D02*
X289000Y83500D01*
Y56657D02*
Y83500D01*
X32032Y54071D02*
Y58469D01*
X28500Y62000D02*
X32032Y58469D01*
X10063Y62000D02*
X28500D01*
X341000Y106000D02*
X352000D01*
D26*
X362205Y11811D02*
D03*
X11811D02*
D03*
D27*
X366417Y34055D02*
D03*
Y44055D02*
D03*
X356417D02*
D03*
X366417Y54055D02*
D03*
X356417D02*
D03*
X366417Y64055D02*
D03*
X356417D02*
D03*
X366417Y74055D02*
D03*
X356417D02*
D03*
X366417Y84055D02*
D03*
X356417D02*
D03*
X8000Y42000D02*
D03*
X22000Y110000D02*
D03*
X42000D02*
D03*
X52000D02*
D03*
X62000D02*
D03*
X72000D02*
D03*
X82000D02*
D03*
X92000D02*
D03*
X102000D02*
D03*
X32000D02*
D03*
X48000Y92000D02*
D03*
X58000D02*
D03*
X180000Y26000D02*
D03*
X190000D02*
D03*
X240000Y110000D02*
D03*
X328000Y38000D02*
D03*
X318000D02*
D03*
X340000Y8000D02*
D03*
X330000Y18000D02*
D03*
Y8000D02*
D03*
X320000Y18000D02*
D03*
Y8000D02*
D03*
X310000Y18000D02*
D03*
Y8000D02*
D03*
X300000Y18000D02*
D03*
Y8000D02*
D03*
X264000D02*
D03*
X274000D02*
D03*
X284000D02*
D03*
X128000Y18000D02*
D03*
D28*
X356417Y34055D02*
D03*
X8000Y32000D02*
D03*
X128000Y8000D02*
D03*
D29*
X12000Y110000D02*
D03*
X68000Y92000D02*
D03*
X200000Y26000D02*
D03*
X230000Y110000D02*
D03*
X308000Y38000D02*
D03*
X340000Y18000D02*
D03*
X254000Y8000D02*
D03*
D30*
X370000Y97000D02*
D03*
X218000Y42500D02*
D03*
X175500Y44000D02*
D03*
X95500Y44500D02*
D03*
X134000Y83500D02*
D03*
X200500Y113500D02*
D03*
X233500Y80000D02*
D03*
X346000Y73000D02*
D03*
X294500Y32000D02*
D03*
X194000Y46500D02*
D03*
X23000Y49000D02*
D03*
X305000Y43500D02*
D03*
X300000Y49500D02*
D03*
X340000Y36500D02*
D03*
X328000Y81500D02*
D03*
X341000Y100000D02*
D03*
X318000Y63500D02*
D03*
X133500Y71500D02*
D03*
X200000Y36500D02*
D03*
X162500D02*
D03*
X120500Y99500D02*
D03*
X318000Y31000D02*
D03*
X346000Y55000D02*
D03*
X343000Y44000D02*
D03*
X346000Y59000D02*
D03*
Y41000D02*
D03*
X348000Y65000D02*
D03*
X359000Y97000D02*
D03*
X355000Y99000D02*
D03*
X352000Y89000D02*
D03*
X351000Y68000D02*
D03*
X289449Y87449D02*
D03*
X286402Y90598D02*
D03*
X288000Y103000D02*
D03*
X341000Y106000D02*
D03*
X268000Y100000D02*
D03*
X263000Y94000D02*
D03*
X259000D02*
D03*
X255000Y96000D02*
D03*
X317000Y76000D02*
D03*
X303000Y78000D02*
D03*
X306000Y81000D02*
D03*
Y75000D02*
D03*
X303000Y85000D02*
D03*
X332000Y76000D02*
D03*
X150000Y78000D02*
D03*
X302000Y65000D02*
D03*
X356000Y91000D02*
D03*
X340000Y57000D02*
D03*
X314000Y92000D02*
D03*
X310000Y106000D02*
D03*
X170000Y62000D02*
D03*
X122000Y70000D02*
D03*
X166200Y25200D02*
D03*
X81000Y56000D02*
D03*
X46000Y52000D02*
D03*
X8000Y49000D02*
D03*
X286000Y60000D02*
D03*
X266000Y71000D02*
D03*
X66000Y74000D02*
D03*
X137000Y96000D02*
D03*
X161000Y94000D02*
D03*
X175000Y106000D02*
D03*
X146000Y94000D02*
D03*
X151000D02*
D03*
X156000D02*
D03*
X48000Y39000D02*
D03*
Y30000D02*
D03*
X25000Y38000D02*
D03*
X122000Y23000D02*
D03*
X80000Y66000D02*
D03*
X140000Y78000D02*
D03*
X122000Y37000D02*
D03*
X221000Y56000D02*
D03*
X229000Y64000D02*
D03*
X176000Y56000D02*
D03*
X295756Y43244D02*
D03*
X281000Y91000D02*
D03*
X221000Y64000D02*
D03*
X193000Y70000D02*
D03*
X208000Y80000D02*
D03*
X177000Y77000D02*
D03*
X310000Y91000D02*
D03*
X302000Y92000D02*
D03*
X306000Y90000D02*
D03*
X262000Y100000D02*
D03*
X311000Y49000D02*
D03*
X160000Y78000D02*
D03*
X321000Y47000D02*
D03*
X265000Y61000D02*
D03*
X162500Y17500D02*
D03*
X157500Y7500D02*
D03*
X67500Y67500D02*
D03*
X12500Y37500D02*
D03*
X347500Y27500D02*
D03*
X242500Y17500D02*
D03*
X347500Y7500D02*
D03*
X237500Y27500D02*
D03*
X262500Y77500D02*
D03*
X257500Y27500D02*
D03*
X82500Y17500D02*
D03*
X367500Y27500D02*
D03*
X357500D02*
D03*
X277500Y107500D02*
D03*
X177500Y87500D02*
D03*
X292500Y17500D02*
D03*
X257500Y107500D02*
D03*
X42500Y57500D02*
D03*
X292500Y37500D02*
D03*
X282500Y17500D02*
D03*
X92500D02*
D03*
X267500Y107500D02*
D03*
X232500Y57500D02*
D03*
X112500D02*
D03*
X247500Y27500D02*
D03*
X217500Y87500D02*
D03*
X212500Y17500D02*
D03*
X52500Y37500D02*
D03*
X252500Y17500D02*
D03*
X202500D02*
D03*
X122500D02*
D03*
X37500Y87500D02*
D03*
X267500Y47500D02*
D03*
X7500Y87500D02*
D03*
X222500Y77500D02*
D03*
X257500Y47500D02*
D03*
X167500Y7500D02*
D03*
X222500Y17500D02*
D03*
X4500Y110000D02*
D03*
X52500Y48000D02*
D03*
X49000Y3000D02*
D03*
X65500D02*
D03*
X115000Y26500D02*
D03*
X88000Y57000D02*
D03*
X82000Y81000D02*
D03*
X26000Y98000D02*
D03*
X191000Y3000D02*
D03*
X220000Y2500D02*
D03*
X244500Y3000D02*
D03*
X315000Y45500D02*
D03*
X307000Y48500D02*
D03*
Y63000D02*
D03*
X285500Y68000D02*
D03*
X353500Y112500D02*
D03*
X346000Y99500D02*
D03*
D31*
X182800Y80000D02*
D03*
X186000D02*
D03*
D32*
X232000Y51200D02*
D03*
Y44800D02*
D03*
Y48000D02*
D03*
X172000Y25200D02*
D03*
Y22000D02*
D03*
X74000Y44000D02*
D03*
Y40800D02*
D03*
X40000Y76800D02*
D03*
Y80000D02*
D03*
D33*
X184000Y72000D02*
D03*
Y67000D02*
D03*
Y62000D02*
D03*
Y57000D02*
D03*
X202898Y72000D02*
D03*
Y62000D02*
D03*
Y67000D02*
D03*
Y57000D02*
D03*
X257732Y59240D02*
D03*
Y64240D02*
D03*
Y69240D02*
D03*
Y74240D02*
D03*
X238835Y59240D02*
D03*
Y69240D02*
D03*
Y64240D02*
D03*
Y74240D02*
D03*
X50898Y9000D02*
D03*
Y14000D02*
D03*
Y19000D02*
D03*
Y24000D02*
D03*
X32000Y9000D02*
D03*
Y19000D02*
D03*
Y14000D02*
D03*
Y24000D02*
D03*
D34*
X116587Y81740D02*
D03*
Y74260D02*
D03*
Y78000D02*
D03*
X127413Y81740D02*
D03*
Y74260D02*
D03*
D35*
X330347Y105999D02*
D03*
X352000Y106000D02*
D03*
D36*
X139315Y30000D02*
D03*
X128685D02*
D03*
X80685Y24000D02*
D03*
X91315D02*
D03*
D37*
X140000Y17315D02*
D03*
Y6685D02*
D03*
X18000Y32685D02*
D03*
Y43315D02*
D03*
D38*
X37937Y37929D02*
D03*
Y54071D02*
D03*
X35969D02*
D03*
X32032Y37929D02*
D03*
X35969D02*
D03*
X34000D02*
D03*
X30063D02*
D03*
X34000Y54071D02*
D03*
X32032D02*
D03*
X30063D02*
D03*
M02*
