G04 Layer_Color=255*
%FSLAX25Y25*%
%MOIN*%
G70*
G01*
G75*
%ADD10R,0.05905X0.05512*%
%ADD11P,0.06392X8X112.5*%
%ADD12R,0.14961X0.16732*%
%ADD13P,0.20044X4X360.0*%
%ADD14R,0.06299X0.15748*%
%ADD15R,0.15748X0.06299*%
%ADD16R,0.09842X0.09842*%
%ADD17R,0.05512X0.05905*%
%ADD18O,0.02362X0.08661*%
%ADD19P,0.06392X8X22.5*%
%ADD20R,0.04528X0.02362*%
%ADD21O,0.02165X0.06890*%
%ADD22O,0.06890X0.02165*%
%ADD26R,0.18000X0.18000*%
%ADD27C,0.05905*%
%ADD28R,0.05905X0.05905*%
%ADD29R,0.05905X0.05905*%
D10*
X130000Y92063D02*
D03*
Y99937D02*
D03*
X140000Y71937D02*
D03*
Y64063D02*
D03*
X150000Y71937D02*
D03*
Y64063D02*
D03*
X160000D02*
D03*
Y71937D02*
D03*
X184000Y63937D02*
D03*
Y56063D02*
D03*
Y72063D02*
D03*
Y79937D02*
D03*
X214000D02*
D03*
Y72063D02*
D03*
X202000Y62063D02*
D03*
Y69937D02*
D03*
X214000Y56063D02*
D03*
Y63937D02*
D03*
X183000Y104063D02*
D03*
Y111937D02*
D03*
D11*
X8000Y60000D02*
D03*
X23000Y58000D02*
D03*
X112000Y110000D02*
D03*
X132000Y30000D02*
D03*
X202000Y52000D02*
D03*
D12*
X35433Y40846D02*
D03*
Y14272D02*
D03*
D13*
X64234Y51766D02*
D03*
X103766Y12234D02*
D03*
D14*
X18000Y93843D02*
D03*
Y74158D02*
D03*
X150000Y29842D02*
D03*
Y10158D02*
D03*
X230000Y29842D02*
D03*
Y10158D02*
D03*
X242000Y62157D02*
D03*
Y81842D02*
D03*
X273000Y62157D02*
D03*
Y81842D02*
D03*
D15*
X94157Y88000D02*
D03*
X113842D02*
D03*
D16*
X90000Y66000D02*
D03*
X107717D02*
D03*
D17*
X131937Y110000D02*
D03*
X124063D02*
D03*
X129937Y54000D02*
D03*
X122063D02*
D03*
Y64000D02*
D03*
X129937D02*
D03*
X201937Y80000D02*
D03*
X194063D02*
D03*
D18*
X141000Y87102D02*
D03*
X146000D02*
D03*
X151000D02*
D03*
X156000D02*
D03*
X161000D02*
D03*
X166000D02*
D03*
X171000D02*
D03*
X141000Y106000D02*
D03*
X146000D02*
D03*
X151000D02*
D03*
X156000D02*
D03*
X161000D02*
D03*
X166000D02*
D03*
X171000D02*
D03*
D19*
X122000Y30000D02*
D03*
X194000Y52000D02*
D03*
X288000Y109000D02*
D03*
X340000Y31000D02*
D03*
D20*
X191571Y111740D02*
D03*
Y104260D02*
D03*
X200429Y108000D02*
D03*
D21*
X333748Y100244D02*
D03*
X330598D02*
D03*
X327449D02*
D03*
X324299D02*
D03*
X321150D02*
D03*
X318000D02*
D03*
X314850D02*
D03*
X311701D02*
D03*
X308551D02*
D03*
X305402D02*
D03*
X302252D02*
D03*
Y55756D02*
D03*
X305402D02*
D03*
X308551D02*
D03*
X311701D02*
D03*
X314850D02*
D03*
X318000D02*
D03*
X321150D02*
D03*
X324299D02*
D03*
X327449D02*
D03*
X330598D02*
D03*
X333748D02*
D03*
D22*
X295756Y93748D02*
D03*
Y90598D02*
D03*
Y87449D02*
D03*
Y84299D02*
D03*
Y81150D02*
D03*
Y78000D02*
D03*
Y74850D02*
D03*
Y71701D02*
D03*
Y68551D02*
D03*
Y65402D02*
D03*
Y62252D02*
D03*
X340244D02*
D03*
Y65402D02*
D03*
Y68551D02*
D03*
Y71701D02*
D03*
Y74850D02*
D03*
Y78000D02*
D03*
Y81150D02*
D03*
Y84299D02*
D03*
Y87449D02*
D03*
Y90598D02*
D03*
Y93748D02*
D03*
D26*
X362205Y11811D02*
D03*
X11811D02*
D03*
D27*
X366417Y34055D02*
D03*
Y44055D02*
D03*
X356417D02*
D03*
X366417Y54055D02*
D03*
X356417D02*
D03*
X366417Y64055D02*
D03*
X356417D02*
D03*
X366417Y74055D02*
D03*
X356417D02*
D03*
X366417Y84055D02*
D03*
X356417D02*
D03*
X8000Y42000D02*
D03*
X22000Y110000D02*
D03*
X42000D02*
D03*
X52000D02*
D03*
X62000D02*
D03*
X72000D02*
D03*
X82000D02*
D03*
X92000D02*
D03*
X102000D02*
D03*
X32000D02*
D03*
X48000Y92000D02*
D03*
X58000D02*
D03*
X180000Y26000D02*
D03*
X190000D02*
D03*
X240000Y110000D02*
D03*
X328000Y38000D02*
D03*
X318000D02*
D03*
X340000Y8000D02*
D03*
X330000Y18000D02*
D03*
Y8000D02*
D03*
X320000Y18000D02*
D03*
Y8000D02*
D03*
X310000Y18000D02*
D03*
Y8000D02*
D03*
X300000Y18000D02*
D03*
Y8000D02*
D03*
X264000D02*
D03*
X274000D02*
D03*
X284000D02*
D03*
X128000Y18000D02*
D03*
D28*
X356417Y34055D02*
D03*
X8000Y32000D02*
D03*
X128000Y8000D02*
D03*
D29*
X12000Y110000D02*
D03*
X68000Y92000D02*
D03*
X200000Y26000D02*
D03*
X230000Y110000D02*
D03*
X308000Y38000D02*
D03*
X340000Y18000D02*
D03*
X254000Y8000D02*
D03*
M02*
