G04 Layer_Physical_Order=1*
G04 Layer_Color=255*
%FSLAX25Y25*%
%MOIN*%
G70*
G01*
G75*
%ADD10R,0.05905X0.05512*%
%ADD11P,0.06392X8X112.5*%
%ADD12R,0.14961X0.16732*%
%ADD13P,0.20044X4X360.0*%
%ADD14R,0.06299X0.15748*%
%ADD15R,0.15748X0.06299*%
%ADD16R,0.09842X0.09842*%
%ADD17R,0.05512X0.05905*%
%ADD18O,0.02362X0.08661*%
%ADD19P,0.06392X8X22.5*%
%ADD20R,0.04528X0.02362*%
%ADD21O,0.02165X0.06890*%
%ADD22O,0.06890X0.02165*%
%ADD23C,0.02400*%
%ADD24C,0.01600*%
%ADD25C,0.00800*%
%ADD26R,0.18000X0.18000*%
%ADD27C,0.05905*%
%ADD28R,0.05905X0.05905*%
%ADD29R,0.05905X0.05905*%
%ADD30C,0.03000*%
G36*
X374016Y0D02*
X244873D01*
X244751Y450D01*
X244751Y452D01*
X245194Y589D01*
X245476Y645D01*
X246302Y1198D01*
X246855Y2025D01*
X246950Y2500D01*
X242051D01*
X242145Y2025D01*
X242698Y1198D01*
X243525Y645D01*
X243806Y589D01*
X244249Y452D01*
X244249Y450D01*
X244127Y0D01*
X221658D01*
X221507Y500D01*
X221802Y698D01*
X222355Y1524D01*
X222449Y2000D01*
X217550D01*
X217645Y1524D01*
X218198Y698D01*
X218493Y500D01*
X218342Y0D01*
X191373D01*
X191251Y450D01*
X191251Y452D01*
X191694Y589D01*
X191975Y645D01*
X192802Y1198D01*
X193355Y2025D01*
X193449Y2500D01*
X188550D01*
X188645Y2025D01*
X189198Y1198D01*
X190024Y645D01*
X190306Y589D01*
X190749Y452D01*
X190749Y450D01*
X190627Y0D01*
X65873D01*
X65751Y450D01*
X65751Y452D01*
X66194Y589D01*
X66475Y645D01*
X67302Y1198D01*
X67855Y2025D01*
X67949Y2500D01*
X63051D01*
X63145Y2025D01*
X63698Y1198D01*
X64525Y645D01*
X64806Y589D01*
X65249Y452D01*
X65249Y450D01*
X65127Y0D01*
X49373D01*
X49251Y450D01*
X49251Y452D01*
X49694Y589D01*
X49975Y645D01*
X50802Y1198D01*
X51355Y2025D01*
X51450Y2500D01*
X46551D01*
X46645Y2025D01*
X47198Y1198D01*
X48024Y645D01*
X48306Y589D01*
X48749Y452D01*
X48749Y450D01*
X48627Y0D01*
X0D01*
Y118110D01*
X374016D01*
Y0D01*
D02*
G37*
%LPC*%
G36*
X189500Y29921D02*
X188968Y29851D01*
X188007Y29453D01*
X187181Y28819D01*
X186547Y27993D01*
X186149Y27032D01*
X186079Y26500D01*
X189500D01*
Y29921D01*
D02*
G37*
G36*
X369950Y27000D02*
X368000D01*
Y25051D01*
X368476Y25145D01*
X369302Y25698D01*
X369855Y26524D01*
X369950Y27000D01*
D02*
G37*
G36*
X190500Y29921D02*
Y26500D01*
X193921D01*
X193851Y27032D01*
X193453Y27993D01*
X192819Y28819D01*
X191993Y29453D01*
X191032Y29851D01*
X190500Y29921D01*
D02*
G37*
G36*
X115500Y28949D02*
Y27000D01*
X117449D01*
X117355Y27476D01*
X116802Y28302D01*
X115975Y28855D01*
X115500Y28949D01*
D02*
G37*
G36*
X114500D02*
X114024Y28855D01*
X113198Y28302D01*
X112645Y27476D01*
X112550Y27000D01*
X114500D01*
Y28949D01*
D02*
G37*
G36*
X349950Y27000D02*
X348000D01*
Y25051D01*
X348476Y25145D01*
X349302Y25698D01*
X349855Y26524D01*
X349950Y27000D01*
D02*
G37*
G36*
X347000D02*
X345051D01*
X345145Y26524D01*
X345698Y25698D01*
X346525Y25145D01*
X347000Y25051D01*
Y27000D01*
D02*
G37*
G36*
X357000D02*
X355050D01*
X355145Y26524D01*
X355698Y25698D01*
X356524Y25145D01*
X357000Y25051D01*
Y27000D01*
D02*
G37*
G36*
X367000D02*
X365051D01*
X365145Y26524D01*
X365698Y25698D01*
X366525Y25145D01*
X367000Y25051D01*
Y27000D01*
D02*
G37*
G36*
X359949D02*
X358000D01*
Y25051D01*
X358475Y25145D01*
X359302Y25698D01*
X359855Y26524D01*
X359949Y27000D01*
D02*
G37*
G36*
X305000Y45845D02*
X304103Y45667D01*
X303342Y45158D01*
X302833Y44397D01*
X302655Y43500D01*
X302833Y42603D01*
X303342Y41842D01*
X304103Y41333D01*
X304247Y41305D01*
Y34247D01*
X305961D01*
Y27039D01*
X271000D01*
X270220Y26884D01*
X269558Y26442D01*
X254869Y11753D01*
X250247D01*
Y4247D01*
X257753D01*
Y8869D01*
X271845Y22961D01*
X320155D01*
X320952Y22164D01*
X320719Y21690D01*
X320000Y21785D01*
X319020Y21656D01*
X318107Y21278D01*
X317323Y20676D01*
X316722Y19893D01*
X316344Y18980D01*
X316215Y18000D01*
X316344Y17020D01*
X316722Y16107D01*
X317323Y15324D01*
X318107Y14722D01*
X319020Y14344D01*
X320000Y14215D01*
X320980Y14344D01*
X321893Y14722D01*
X322461Y15158D01*
X322961Y14911D01*
Y13000D01*
X323116Y12220D01*
X323558Y11558D01*
X326320Y8796D01*
X326215Y8000D01*
X326344Y7020D01*
X326722Y6107D01*
X327324Y5324D01*
X328107Y4722D01*
X329020Y4344D01*
X330000Y4215D01*
X330980Y4344D01*
X331893Y4722D01*
X332677Y5324D01*
X333278Y6107D01*
X333656Y7020D01*
X333785Y8000D01*
X333656Y8980D01*
X333278Y9893D01*
X332677Y10677D01*
X331893Y11278D01*
X330980Y11656D01*
X330000Y11785D01*
X329204Y11680D01*
X327039Y13845D01*
Y14911D01*
X327539Y15158D01*
X328107Y14722D01*
X329020Y14344D01*
X330000Y14215D01*
X330980Y14344D01*
X331893Y14722D01*
X332677Y15324D01*
X333278Y16107D01*
X333656Y17020D01*
X333785Y18000D01*
X333656Y18980D01*
X333278Y19893D01*
X332677Y20676D01*
X331893Y21278D01*
X331224Y21555D01*
Y22000D01*
X331130Y22468D01*
X330865Y22865D01*
X325465Y28265D01*
X325068Y28530D01*
X324600Y28624D01*
X320050D01*
X319799Y29123D01*
X319838Y29177D01*
X327093D01*
X336247Y20022D01*
Y14247D01*
X343753D01*
Y21753D01*
X337978D01*
X330416Y29315D01*
X330607Y29776D01*
X336247D01*
Y29124D01*
X338124Y27247D01*
X341876D01*
X343753Y29124D01*
Y32876D01*
X341876Y34753D01*
X341921Y35234D01*
X342167Y35603D01*
X342345Y36500D01*
X342167Y37397D01*
X341658Y38158D01*
X340897Y38667D01*
X340000Y38845D01*
X339103Y38667D01*
X338342Y38158D01*
X337833Y37397D01*
X337655Y36500D01*
X337833Y35603D01*
X338079Y35234D01*
X338124Y34753D01*
X336247Y32876D01*
Y32223D01*
X329890D01*
X329249Y32865D01*
X328852Y33130D01*
X328384Y33224D01*
X324507D01*
X321379Y36351D01*
X321656Y37020D01*
X321785Y38000D01*
X321656Y38980D01*
X321278Y39893D01*
X320676Y40677D01*
X319893Y41278D01*
X318980Y41656D01*
X318000Y41785D01*
X317020Y41656D01*
X316107Y41278D01*
X315323Y40677D01*
X314722Y39893D01*
X314224Y39996D01*
Y40603D01*
X314130Y41071D01*
X313865Y41468D01*
X310968Y44365D01*
X310571Y44630D01*
X310103Y44723D01*
X306949D01*
X306658Y45158D01*
X305897Y45667D01*
X305000Y45845D01*
D02*
G37*
G36*
X347000Y29950D02*
X346525Y29855D01*
X345698Y29302D01*
X345145Y28475D01*
X345051Y28000D01*
X347000D01*
Y29950D01*
D02*
G37*
G36*
X258000D02*
Y28000D01*
X259949D01*
X259855Y28475D01*
X259302Y29302D01*
X258475Y29855D01*
X258000Y29950D01*
D02*
G37*
G36*
X348000D02*
Y28000D01*
X349950D01*
X349855Y28475D01*
X349302Y29302D01*
X348476Y29855D01*
X348000Y29950D01*
D02*
G37*
G36*
X366417Y37840D02*
X365438Y37711D01*
X364525Y37333D01*
X363741Y36732D01*
X363139Y35948D01*
X362761Y35035D01*
X362632Y34055D01*
X362761Y33075D01*
X363139Y32163D01*
X363741Y31379D01*
X364525Y30777D01*
X365438Y30399D01*
X366313Y30284D01*
X366425Y29848D01*
X366426Y29789D01*
X365698Y29302D01*
X365145Y28475D01*
X365051Y28000D01*
X369950D01*
X369855Y28475D01*
X369302Y29302D01*
X368476Y29855D01*
X367742Y30001D01*
X367691Y30521D01*
X368310Y30777D01*
X369094Y31379D01*
X369695Y32163D01*
X370074Y33075D01*
X370202Y34055D01*
X370074Y35035D01*
X369695Y35948D01*
X369094Y36732D01*
X368310Y37333D01*
X367397Y37711D01*
X366417Y37840D01*
D02*
G37*
G36*
X360170Y37808D02*
X352665D01*
Y30302D01*
X356363D01*
X356418Y30149D01*
X356446Y29802D01*
X355698Y29302D01*
X355145Y28475D01*
X355050Y28000D01*
X359949D01*
X359855Y28475D01*
X359302Y29302D01*
X358554Y29802D01*
X358582Y30149D01*
X358637Y30302D01*
X360170D01*
Y37808D01*
D02*
G37*
G36*
X238000Y29950D02*
Y28000D01*
X239949D01*
X239855Y28475D01*
X239302Y29302D01*
X238475Y29855D01*
X238000Y29950D01*
D02*
G37*
G36*
X237000D02*
X236525Y29855D01*
X235698Y29302D01*
X235145Y28475D01*
X235051Y28000D01*
X237000D01*
Y29950D01*
D02*
G37*
G36*
X247000D02*
X246525Y29855D01*
X245698Y29302D01*
X245145Y28475D01*
X245051Y28000D01*
X247000D01*
Y29950D01*
D02*
G37*
G36*
X257000D02*
X256524Y29855D01*
X255698Y29302D01*
X255145Y28475D01*
X255050Y28000D01*
X257000D01*
Y29950D01*
D02*
G37*
G36*
X248000D02*
Y28000D01*
X249950D01*
X249855Y28475D01*
X249302Y29302D01*
X248476Y29855D01*
X248000Y29950D01*
D02*
G37*
G36*
X259949Y27000D02*
X258000D01*
Y25051D01*
X258475Y25145D01*
X259302Y25698D01*
X259855Y26524D01*
X259949Y27000D01*
D02*
G37*
G36*
X293000Y19950D02*
Y18000D01*
X294950D01*
X294855Y18475D01*
X294302Y19302D01*
X293476Y19855D01*
X293000Y19950D01*
D02*
G37*
G36*
X292000D02*
X291525Y19855D01*
X290698Y19302D01*
X290145Y18475D01*
X290051Y18000D01*
X292000D01*
Y19950D01*
D02*
G37*
G36*
X122000Y39345D02*
X121103Y39167D01*
X120342Y38658D01*
X119833Y37897D01*
X119655Y37000D01*
X119833Y36103D01*
X120342Y35342D01*
X120776Y35051D01*
Y33753D01*
X120124D01*
X118247Y31876D01*
Y28124D01*
X120124Y26247D01*
X120776D01*
Y24949D01*
X120342Y24658D01*
X119833Y23897D01*
X119655Y23000D01*
X119833Y22103D01*
X120342Y21342D01*
X121103Y20833D01*
X122000Y20655D01*
X122897Y20833D01*
X123658Y21342D01*
X124167Y22103D01*
X124345Y23000D01*
X124167Y23897D01*
X123658Y24658D01*
X123223Y24949D01*
Y26247D01*
X123876D01*
X125753Y28124D01*
Y31876D01*
X123876Y33753D01*
X123223D01*
Y35051D01*
X123658Y35342D01*
X124167Y36103D01*
X124345Y37000D01*
X124167Y37897D01*
X123658Y38658D01*
X122897Y39167D01*
X122000Y39345D01*
D02*
G37*
G36*
X133876Y33753D02*
X130124D01*
X128247Y31876D01*
Y28124D01*
X129961Y26410D01*
Y22845D01*
X128796Y21680D01*
X128000Y21785D01*
X127020Y21656D01*
X126107Y21278D01*
X125323Y20676D01*
X124722Y19893D01*
X124623Y19654D01*
X124016Y19494D01*
X123476Y19855D01*
X123000Y19950D01*
Y17500D01*
Y15051D01*
X123476Y15145D01*
X124302Y15698D01*
X124351Y15770D01*
X124966Y15790D01*
X125323Y15324D01*
X126107Y14722D01*
X127020Y14344D01*
X128000Y14215D01*
X128980Y14344D01*
X129893Y14722D01*
X130676Y15324D01*
X131278Y16107D01*
X131656Y17020D01*
X131785Y18000D01*
X131680Y18796D01*
X133442Y20558D01*
X133884Y21220D01*
X134039Y22000D01*
Y26410D01*
X135753Y28124D01*
Y31876D01*
X133876Y33753D01*
D02*
G37*
G36*
X200000Y38845D02*
X199103Y38667D01*
X198342Y38158D01*
X197833Y37397D01*
X197655Y36500D01*
X197833Y35603D01*
X197961Y35412D01*
Y29753D01*
X196247D01*
Y22247D01*
X203753D01*
Y23961D01*
X220000D01*
X220780Y24116D01*
X221442Y24558D01*
X224687Y27803D01*
X226050D01*
Y21169D01*
X233950D01*
Y38517D01*
X226050D01*
Y31882D01*
X223843D01*
X223062Y31727D01*
X222401Y31284D01*
X219155Y28039D01*
X203753D01*
Y29753D01*
X202039D01*
Y35412D01*
X202167Y35603D01*
X202345Y36500D01*
X202167Y37397D01*
X201658Y38158D01*
X200897Y38667D01*
X200000Y38845D01*
D02*
G37*
G36*
X252000Y19950D02*
X251524Y19855D01*
X250698Y19302D01*
X250145Y18475D01*
X250050Y18000D01*
X252000D01*
Y19950D01*
D02*
G37*
G36*
X243000D02*
Y18000D01*
X244950D01*
X244855Y18475D01*
X244302Y19302D01*
X243476Y19855D01*
X243000Y19950D01*
D02*
G37*
G36*
X253000D02*
Y18000D01*
X254949D01*
X254855Y18475D01*
X254302Y19302D01*
X253475Y19855D01*
X253000Y19950D01*
D02*
G37*
G36*
X283000D02*
Y18000D01*
X284949D01*
X284855Y18475D01*
X284302Y19302D01*
X283475Y19855D01*
X283000Y19950D01*
D02*
G37*
G36*
X282000D02*
X281524Y19855D01*
X280698Y19302D01*
X280145Y18475D01*
X280050Y18000D01*
X282000D01*
Y19950D01*
D02*
G37*
G36*
X189500Y25500D02*
X186079D01*
X186149Y24968D01*
X186547Y24007D01*
X187181Y23181D01*
X188007Y22547D01*
X188968Y22149D01*
X189500Y22079D01*
Y25500D01*
D02*
G37*
G36*
X239949Y27000D02*
X238000D01*
Y25051D01*
X238475Y25145D01*
X239302Y25698D01*
X239855Y26524D01*
X239949Y27000D01*
D02*
G37*
G36*
X237000D02*
X235051D01*
X235145Y26524D01*
X235698Y25698D01*
X236525Y25145D01*
X237000Y25051D01*
Y27000D01*
D02*
G37*
G36*
X247000D02*
X245051D01*
X245145Y26524D01*
X245698Y25698D01*
X246525Y25145D01*
X247000Y25051D01*
Y27000D01*
D02*
G37*
G36*
X257000D02*
X255050D01*
X255145Y26524D01*
X255698Y25698D01*
X256524Y25145D01*
X257000Y25051D01*
Y27000D01*
D02*
G37*
G36*
X249950D02*
X248000D01*
Y25051D01*
X248476Y25145D01*
X249302Y25698D01*
X249855Y26524D01*
X249950Y27000D01*
D02*
G37*
G36*
X180000Y29785D02*
X179020Y29656D01*
X178107Y29278D01*
X177323Y28677D01*
X176722Y27893D01*
X176344Y26980D01*
X176215Y26000D01*
X176344Y25020D01*
X176722Y24107D01*
X177323Y23324D01*
X178107Y22722D01*
X179020Y22344D01*
X180000Y22215D01*
X180980Y22344D01*
X181893Y22722D01*
X182676Y23324D01*
X183278Y24107D01*
X183656Y25020D01*
X183785Y26000D01*
X183656Y26980D01*
X183278Y27893D01*
X182676Y28677D01*
X181893Y29278D01*
X180980Y29656D01*
X180000Y29785D01*
D02*
G37*
G36*
X193921Y25500D02*
X190500D01*
Y22079D01*
X191032Y22149D01*
X191993Y22547D01*
X192819Y23181D01*
X193453Y24007D01*
X193851Y24968D01*
X193921Y25500D01*
D02*
G37*
G36*
X153950Y38517D02*
X146050D01*
Y21169D01*
X153950D01*
Y27803D01*
X160713D01*
X163989Y24527D01*
X164033Y24303D01*
X164542Y23542D01*
X165303Y23033D01*
X166200Y22855D01*
X167097Y23033D01*
X167858Y23542D01*
X168367Y24303D01*
X168545Y25200D01*
X168367Y26097D01*
X167858Y26858D01*
X167097Y27367D01*
X166873Y27411D01*
X162999Y31284D01*
X162338Y31727D01*
X161557Y31882D01*
X153950D01*
Y38517D01*
D02*
G37*
G36*
X117449Y26000D02*
X115500D01*
Y24050D01*
X115975Y24145D01*
X116802Y24698D01*
X117355Y25525D01*
X117449Y26000D01*
D02*
G37*
G36*
X114500D02*
X112550D01*
X112645Y25525D01*
X113198Y24698D01*
X114024Y24145D01*
X114500Y24050D01*
Y26000D01*
D02*
G37*
G36*
X327500Y37500D02*
X324079D01*
X324149Y36968D01*
X324547Y36007D01*
X325181Y35181D01*
X326007Y34547D01*
X326968Y34149D01*
X327500Y34079D01*
Y37500D01*
D02*
G37*
G36*
X176000Y46450D02*
Y44500D01*
X177950D01*
X177855Y44976D01*
X177302Y45802D01*
X176476Y46355D01*
X176000Y46450D01*
D02*
G37*
G36*
X175000D02*
X174524Y46355D01*
X173698Y45802D01*
X173145Y44976D01*
X173050Y44500D01*
X175000D01*
Y46450D01*
D02*
G37*
G36*
X95000Y46949D02*
X94525Y46855D01*
X93698Y46302D01*
X93145Y45476D01*
X93050Y45000D01*
X95000D01*
Y46949D01*
D02*
G37*
G36*
X257000Y47000D02*
X255050D01*
X255145Y46525D01*
X255698Y45698D01*
X256524Y45145D01*
X257000Y45050D01*
Y47000D01*
D02*
G37*
G36*
X96000Y46949D02*
Y45000D01*
X97949D01*
X97855Y45476D01*
X97302Y46302D01*
X96475Y46855D01*
X96000Y46949D01*
D02*
G37*
G36*
X217500Y44949D02*
X217024Y44855D01*
X216198Y44302D01*
X215645Y43475D01*
X215550Y43000D01*
X217500D01*
Y44949D01*
D02*
G37*
G36*
X8500Y45921D02*
Y42500D01*
X11921D01*
X11851Y43032D01*
X11453Y43993D01*
X10819Y44819D01*
X9993Y45453D01*
X9032Y45851D01*
X8500Y45921D01*
D02*
G37*
G36*
X218500Y44949D02*
Y43000D01*
X220449D01*
X220355Y43475D01*
X219802Y44302D01*
X218975Y44855D01*
X218500Y44949D01*
D02*
G37*
G36*
X317449Y45000D02*
X315500D01*
Y43051D01*
X315975Y43145D01*
X316802Y43698D01*
X317355Y44524D01*
X317449Y45000D01*
D02*
G37*
G36*
X314500D02*
X312550D01*
X312645Y44524D01*
X313198Y43698D01*
X314024Y43145D01*
X314500Y43051D01*
Y45000D01*
D02*
G37*
G36*
X259949Y47000D02*
X258000D01*
Y45050D01*
X258475Y45145D01*
X259302Y45698D01*
X259855Y46525D01*
X259949Y47000D01*
D02*
G37*
G36*
X24876Y61753D02*
X21124D01*
X19247Y59876D01*
Y56124D01*
X21124Y54247D01*
X21777D01*
Y50949D01*
X21342Y50658D01*
X20833Y49897D01*
X20655Y49000D01*
X20833Y48103D01*
X21342Y47342D01*
X22103Y46833D01*
X23000Y46655D01*
X23897Y46833D01*
X24658Y47342D01*
X25167Y48103D01*
X25345Y49000D01*
X25167Y49897D01*
X24658Y50658D01*
X24224Y50949D01*
Y54247D01*
X24876D01*
X26753Y56124D01*
Y59876D01*
X24876Y61753D01*
D02*
G37*
G36*
X9876Y63753D02*
X6124D01*
X4247Y61876D01*
Y58124D01*
X6124Y56247D01*
X6776D01*
Y50949D01*
X6342Y50658D01*
X5833Y49897D01*
X5655Y49000D01*
X5833Y48103D01*
X6342Y47342D01*
X7103Y46833D01*
X8000Y46655D01*
X8897Y46833D01*
X9658Y47342D01*
X10166Y48103D01*
X10345Y49000D01*
X10166Y49897D01*
X9658Y50658D01*
X9223Y50949D01*
Y56247D01*
X9876D01*
X11753Y58124D01*
Y61876D01*
X9876Y63753D01*
D02*
G37*
G36*
X257000Y49949D02*
X256524Y49855D01*
X255698Y49302D01*
X255145Y48476D01*
X255050Y48000D01*
X257000D01*
Y49949D01*
D02*
G37*
G36*
X267000D02*
X266525Y49855D01*
X265698Y49302D01*
X265145Y48476D01*
X265051Y48000D01*
X267000D01*
Y49949D01*
D02*
G37*
G36*
X258000D02*
Y48000D01*
X259949D01*
X259855Y48476D01*
X259302Y49302D01*
X258475Y49855D01*
X258000Y49949D01*
D02*
G37*
G36*
X269950Y47000D02*
X268000D01*
Y45050D01*
X268476Y45145D01*
X269302Y45698D01*
X269855Y46525D01*
X269950Y47000D01*
D02*
G37*
G36*
X267000D02*
X265051D01*
X265145Y46525D01*
X265698Y45698D01*
X266525Y45145D01*
X267000Y45050D01*
Y47000D01*
D02*
G37*
G36*
X52000Y47500D02*
X50050D01*
X50145Y47025D01*
X50698Y46198D01*
X51525Y45645D01*
X52000Y45551D01*
Y47500D01*
D02*
G37*
G36*
X315500Y47949D02*
Y46000D01*
X317449D01*
X317355Y46475D01*
X316802Y47302D01*
X315975Y47855D01*
X315500Y47949D01*
D02*
G37*
G36*
X54949Y47500D02*
X53000D01*
Y45551D01*
X53475Y45645D01*
X54302Y46198D01*
X54855Y47025D01*
X54949Y47500D01*
D02*
G37*
G36*
X7500Y45921D02*
X6968Y45851D01*
X6007Y45453D01*
X5181Y44819D01*
X4547Y43993D01*
X4149Y43032D01*
X4079Y42500D01*
X7500D01*
Y45921D01*
D02*
G37*
G36*
X11921Y41500D02*
X8500D01*
Y38079D01*
X9032Y38149D01*
X9619Y38392D01*
X10057Y38032D01*
X10051Y38000D01*
X12000D01*
Y39950D01*
X11968Y39943D01*
X11608Y40381D01*
X11851Y40968D01*
X11921Y41500D01*
D02*
G37*
G36*
X294950Y37000D02*
X293000D01*
Y35050D01*
X293476Y35145D01*
X294302Y35698D01*
X294855Y36525D01*
X294950Y37000D01*
D02*
G37*
G36*
X13000Y39950D02*
Y38000D01*
X14950D01*
X14855Y38475D01*
X14302Y39302D01*
X13476Y39855D01*
X13000Y39950D01*
D02*
G37*
G36*
X292000D02*
X291525Y39855D01*
X290698Y39302D01*
X290145Y38475D01*
X290051Y38000D01*
X292000D01*
Y39950D01*
D02*
G37*
G36*
X53000D02*
Y38000D01*
X54949D01*
X54855Y38475D01*
X54302Y39302D01*
X53475Y39855D01*
X53000Y39950D01*
D02*
G37*
G36*
X81000Y58345D02*
X80103Y58166D01*
X79342Y57658D01*
X78834Y56897D01*
X78655Y56000D01*
X78834Y55103D01*
X79342Y54342D01*
X80103Y53834D01*
X80327Y53789D01*
X85558Y48558D01*
X86220Y48116D01*
X87000Y47961D01*
X101655D01*
X109058Y40558D01*
X109720Y40116D01*
X110500Y39961D01*
X156155D01*
X160289Y35827D01*
X160333Y35603D01*
X160842Y34842D01*
X161603Y34333D01*
X162500Y34155D01*
X163397Y34333D01*
X164158Y34842D01*
X164667Y35603D01*
X164845Y36500D01*
X164667Y37397D01*
X164158Y38158D01*
X163397Y38667D01*
X163173Y38711D01*
X158442Y43442D01*
X157780Y43884D01*
X157000Y44039D01*
X111345D01*
X103942Y51442D01*
X103280Y51884D01*
X102500Y52039D01*
X87845D01*
X83211Y56673D01*
X83166Y56897D01*
X82658Y57658D01*
X81897Y58166D01*
X81000Y58345D01*
D02*
G37*
G36*
X331921Y37500D02*
X328500D01*
Y34079D01*
X329032Y34149D01*
X329993Y34547D01*
X330819Y35181D01*
X331453Y36007D01*
X331851Y36968D01*
X331921Y37500D01*
D02*
G37*
G36*
X14950Y37000D02*
X13000D01*
Y35050D01*
X13476Y35145D01*
X14302Y35698D01*
X14855Y36525D01*
X14950Y37000D01*
D02*
G37*
G36*
X292000D02*
X290051D01*
X290145Y36525D01*
X290698Y35698D01*
X291525Y35145D01*
X292000Y35050D01*
Y37000D01*
D02*
G37*
G36*
X54949D02*
X53000D01*
Y35050D01*
X53475Y35145D01*
X54302Y35698D01*
X54855Y36525D01*
X54949Y37000D01*
D02*
G37*
G36*
X293000Y39950D02*
Y38000D01*
X294950D01*
X294855Y38475D01*
X294302Y39302D01*
X293476Y39855D01*
X293000Y39950D01*
D02*
G37*
G36*
X175000Y43500D02*
X173050D01*
X173145Y43025D01*
X173698Y42198D01*
X174524Y41645D01*
X175000Y41550D01*
Y43500D01*
D02*
G37*
G36*
X46000Y54345D02*
X45103Y54167D01*
X44342Y53658D01*
X43833Y52897D01*
X43655Y52000D01*
X43833Y51103D01*
X44342Y50342D01*
X45103Y49833D01*
X46000Y49655D01*
X46374Y49729D01*
X46777Y49378D01*
Y41039D01*
X43713D01*
Y50013D01*
X27153D01*
Y39779D01*
X26674Y39634D01*
X26658Y39658D01*
X25897Y40167D01*
X25000Y40345D01*
X24103Y40167D01*
X23342Y39658D01*
X22833Y38897D01*
X22655Y38000D01*
X22833Y37103D01*
X22961Y36912D01*
Y32000D01*
X23116Y31220D01*
X23558Y30558D01*
X26558Y27558D01*
X27220Y27116D01*
X28000Y26961D01*
X47000D01*
X47780Y27116D01*
X48442Y27558D01*
X48673Y27789D01*
X48897Y27833D01*
X49658Y28342D01*
X50167Y29103D01*
X50345Y30000D01*
X50167Y30897D01*
X49658Y31658D01*
X48897Y32167D01*
X48000Y32345D01*
X47103Y32167D01*
X46342Y31658D01*
X45928Y31039D01*
X29132D01*
X29031Y31180D01*
X29287Y31680D01*
X43713D01*
Y36961D01*
X46912D01*
X47103Y36833D01*
X48000Y36655D01*
X48897Y36833D01*
X49494Y37232D01*
X49979Y37091D01*
X50042Y37043D01*
X50145Y36525D01*
X50698Y35698D01*
X51525Y35145D01*
X52000Y35050D01*
Y37500D01*
Y39950D01*
X51525Y39855D01*
X50783Y39360D01*
X50426Y39432D01*
X50242Y39520D01*
X50167Y39897D01*
X49658Y40658D01*
X49224Y40949D01*
Y50000D01*
X49130Y50468D01*
X48865Y50865D01*
X48243Y51487D01*
X48345Y52000D01*
X48167Y52897D01*
X47658Y53658D01*
X46897Y54167D01*
X46000Y54345D01*
D02*
G37*
G36*
X177950Y43500D02*
X176000D01*
Y41550D01*
X176476Y41645D01*
X177302Y42198D01*
X177855Y43025D01*
X177950Y43500D01*
D02*
G37*
G36*
X97949Y44000D02*
X96000D01*
Y42050D01*
X96475Y42145D01*
X97302Y42698D01*
X97855Y43525D01*
X97949Y44000D01*
D02*
G37*
G36*
X95000D02*
X93050D01*
X93145Y43525D01*
X93698Y42698D01*
X94525Y42145D01*
X95000Y42050D01*
Y44000D01*
D02*
G37*
G36*
X327500Y41921D02*
X326968Y41851D01*
X326007Y41453D01*
X325181Y40819D01*
X324547Y39993D01*
X324149Y39032D01*
X324079Y38500D01*
X327500D01*
Y41921D01*
D02*
G37*
G36*
X7500Y41500D02*
X4079D01*
X4149Y40968D01*
X4547Y40007D01*
X5181Y39181D01*
X6007Y38547D01*
X6968Y38149D01*
X7500Y38079D01*
Y41500D01*
D02*
G37*
G36*
X328500Y41921D02*
Y38500D01*
X331921D01*
X331851Y39032D01*
X331453Y39993D01*
X330819Y40819D01*
X329993Y41453D01*
X329032Y41851D01*
X328500Y41921D01*
D02*
G37*
G36*
X220449Y42000D02*
X218500D01*
Y40051D01*
X218975Y40145D01*
X219802Y40698D01*
X220355Y41524D01*
X220449Y42000D01*
D02*
G37*
G36*
X217500D02*
X215550D01*
X215645Y41524D01*
X216198Y40698D01*
X217024Y40145D01*
X217500Y40051D01*
Y42000D01*
D02*
G37*
G36*
X159950Y7000D02*
X158000D01*
Y5051D01*
X158475Y5145D01*
X159302Y5698D01*
X159855Y6525D01*
X159950Y7000D01*
D02*
G37*
G36*
X157000D02*
X155051D01*
X155145Y6525D01*
X155698Y5698D01*
X156525Y5145D01*
X157000Y5051D01*
Y7000D01*
D02*
G37*
G36*
X167000D02*
X165050D01*
X165145Y6525D01*
X165698Y5698D01*
X166525Y5145D01*
X167000Y5051D01*
Y7000D01*
D02*
G37*
G36*
X347000D02*
X345051D01*
X345145Y6525D01*
X345698Y5698D01*
X346525Y5145D01*
X347000Y5051D01*
Y7000D01*
D02*
G37*
G36*
X169949D02*
X168000D01*
Y5051D01*
X168475Y5145D01*
X169302Y5698D01*
X169855Y6525D01*
X169949Y7000D01*
D02*
G37*
G36*
X274000Y11785D02*
X273020Y11656D01*
X272107Y11278D01*
X271323Y10677D01*
X270722Y9893D01*
X270344Y8980D01*
X270215Y8000D01*
X270344Y7020D01*
X270722Y6107D01*
X271323Y5324D01*
X272107Y4722D01*
X273020Y4344D01*
X274000Y4215D01*
X274980Y4344D01*
X275893Y4722D01*
X276677Y5324D01*
X277278Y6107D01*
X277656Y7020D01*
X277785Y8000D01*
X277656Y8980D01*
X277278Y9893D01*
X276677Y10677D01*
X275893Y11278D01*
X274980Y11656D01*
X274000Y11785D01*
D02*
G37*
G36*
X264000D02*
X263020Y11656D01*
X262107Y11278D01*
X261323Y10677D01*
X260722Y9893D01*
X260344Y8980D01*
X260215Y8000D01*
X260344Y7020D01*
X260722Y6107D01*
X261323Y5324D01*
X262107Y4722D01*
X263020Y4344D01*
X264000Y4215D01*
X264980Y4344D01*
X265893Y4722D01*
X266676Y5324D01*
X267278Y6107D01*
X267656Y7020D01*
X267785Y8000D01*
X267656Y8980D01*
X267278Y9893D01*
X266676Y10677D01*
X265893Y11278D01*
X264980Y11656D01*
X264000Y11785D01*
D02*
G37*
G36*
X310000D02*
X309020Y11656D01*
X308107Y11278D01*
X307324Y10677D01*
X306722Y9893D01*
X306344Y8980D01*
X306215Y8000D01*
X306344Y7020D01*
X306722Y6107D01*
X307324Y5324D01*
X308107Y4722D01*
X309020Y4344D01*
X310000Y4215D01*
X310980Y4344D01*
X311893Y4722D01*
X312677Y5324D01*
X313278Y6107D01*
X313656Y7020D01*
X313785Y8000D01*
X313656Y8980D01*
X313278Y9893D01*
X312677Y10677D01*
X311893Y11278D01*
X310980Y11656D01*
X310000Y11785D01*
D02*
G37*
G36*
X103766Y23388D02*
X92612Y12234D01*
X103766Y1081D01*
X108645Y5961D01*
X124247D01*
Y4247D01*
X131753D01*
Y11753D01*
X124247D01*
Y10039D01*
X113377D01*
X113186Y10501D01*
X114919Y12234D01*
X103766Y23388D01*
D02*
G37*
G36*
X320000Y11785D02*
X319020Y11656D01*
X318107Y11278D01*
X317323Y10677D01*
X316722Y9893D01*
X316344Y8980D01*
X316215Y8000D01*
X316344Y7020D01*
X316722Y6107D01*
X317323Y5324D01*
X318107Y4722D01*
X319020Y4344D01*
X320000Y4215D01*
X320980Y4344D01*
X321893Y4722D01*
X322676Y5324D01*
X323278Y6107D01*
X323656Y7020D01*
X323785Y8000D01*
X323656Y8980D01*
X323278Y9893D01*
X322676Y10677D01*
X321893Y11278D01*
X320980Y11656D01*
X320000Y11785D01*
D02*
G37*
G36*
X349950Y7000D02*
X348000D01*
Y5051D01*
X348476Y5145D01*
X349302Y5698D01*
X349855Y6525D01*
X349950Y7000D01*
D02*
G37*
G36*
X348000Y9950D02*
Y8000D01*
X349950D01*
X349855Y8475D01*
X349302Y9302D01*
X348476Y9855D01*
X348000Y9950D01*
D02*
G37*
G36*
X347000D02*
X346525Y9855D01*
X345698Y9302D01*
X345145Y8475D01*
X345051Y8000D01*
X347000D01*
Y9950D01*
D02*
G37*
G36*
X339500Y11921D02*
X338968Y11851D01*
X338007Y11453D01*
X337181Y10819D01*
X336547Y9993D01*
X336149Y9032D01*
X336079Y8500D01*
X339500D01*
Y11921D01*
D02*
G37*
G36*
X283500D02*
X282968Y11851D01*
X282007Y11453D01*
X281181Y10819D01*
X280547Y9993D01*
X280149Y9032D01*
X280079Y8500D01*
X283500D01*
Y11921D01*
D02*
G37*
G36*
X299500D02*
X298968Y11851D01*
X298007Y11453D01*
X297181Y10819D01*
X296547Y9993D01*
X296149Y9032D01*
X296079Y8500D01*
X299500D01*
Y11921D01*
D02*
G37*
G36*
X157000Y9950D02*
X156525Y9855D01*
X155698Y9302D01*
X155145Y8475D01*
X155051Y8000D01*
X157000D01*
Y9950D01*
D02*
G37*
G36*
X12000Y37000D02*
X10051D01*
X10145Y36525D01*
X10366Y36194D01*
X10130Y35753D01*
X4247D01*
Y28247D01*
X8869D01*
X12558Y24558D01*
X13220Y24116D01*
X14000Y23961D01*
X22860D01*
X27153Y19668D01*
Y5105D01*
X43713D01*
Y23438D01*
X29151D01*
X25147Y27442D01*
X24485Y27884D01*
X23705Y28039D01*
X14845D01*
X11753Y31131D01*
Y34706D01*
X12000Y34909D01*
Y37000D01*
D02*
G37*
G36*
X158000Y9950D02*
Y8000D01*
X159950D01*
X159855Y8475D01*
X159302Y9302D01*
X158475Y9855D01*
X158000Y9950D01*
D02*
G37*
G36*
X168000D02*
Y8000D01*
X169949D01*
X169855Y8475D01*
X169302Y9302D01*
X168475Y9855D01*
X168000Y9950D01*
D02*
G37*
G36*
X167000D02*
X166525Y9855D01*
X165698Y9302D01*
X165145Y8475D01*
X165050Y8000D01*
X167000D01*
Y9950D01*
D02*
G37*
G36*
X343921Y7500D02*
X340500D01*
Y4079D01*
X341032Y4149D01*
X341993Y4547D01*
X342819Y5181D01*
X343453Y6007D01*
X343851Y6968D01*
X343921Y7500D01*
D02*
G37*
G36*
X219500Y4950D02*
X219024Y4855D01*
X218198Y4302D01*
X217645Y3475D01*
X217550Y3000D01*
X219500D01*
Y4950D01*
D02*
G37*
G36*
X372005Y21611D02*
X352405D01*
Y2011D01*
X372005D01*
Y21611D01*
D02*
G37*
G36*
X220500Y4950D02*
Y3000D01*
X222449D01*
X222355Y3475D01*
X221802Y4302D01*
X220975Y4855D01*
X220500Y4950D01*
D02*
G37*
G36*
X49500Y5449D02*
Y3500D01*
X51450D01*
X51355Y3976D01*
X50802Y4802D01*
X49975Y5355D01*
X49500Y5449D01*
D02*
G37*
G36*
X48500D02*
X48024Y5355D01*
X47198Y4802D01*
X46645Y3976D01*
X46551Y3500D01*
X48500D01*
Y5449D01*
D02*
G37*
G36*
X154150Y9657D02*
X150500D01*
Y1283D01*
X154150D01*
Y9657D01*
D02*
G37*
G36*
X149500D02*
X145850D01*
Y1283D01*
X149500D01*
Y9657D01*
D02*
G37*
G36*
X229500D02*
X225850D01*
Y1283D01*
X229500D01*
Y9657D01*
D02*
G37*
G36*
X21611Y21611D02*
X2011D01*
Y2011D01*
X21611D01*
Y21611D01*
D02*
G37*
G36*
X234150Y9657D02*
X230500D01*
Y1283D01*
X234150D01*
Y9657D01*
D02*
G37*
G36*
X65000Y5449D02*
X64525Y5355D01*
X63698Y4802D01*
X63145Y3976D01*
X63051Y3500D01*
X65000D01*
Y5449D01*
D02*
G37*
G36*
X339500Y7500D02*
X336079D01*
X336149Y6968D01*
X336547Y6007D01*
X337181Y5181D01*
X338007Y4547D01*
X338968Y4149D01*
X339500Y4079D01*
Y7500D01*
D02*
G37*
G36*
X299500D02*
X296079D01*
X296149Y6968D01*
X296547Y6007D01*
X297181Y5181D01*
X298007Y4547D01*
X298968Y4149D01*
X299500Y4079D01*
Y7500D01*
D02*
G37*
G36*
X283500D02*
X280079D01*
X280149Y6968D01*
X280547Y6007D01*
X281181Y5181D01*
X282007Y4547D01*
X282968Y4149D01*
X283500Y4079D01*
Y7500D01*
D02*
G37*
G36*
X303921D02*
X300500D01*
Y4079D01*
X301032Y4149D01*
X301993Y4547D01*
X302819Y5181D01*
X303453Y6007D01*
X303851Y6968D01*
X303921Y7500D01*
D02*
G37*
G36*
X287921D02*
X284500D01*
Y4079D01*
X285032Y4149D01*
X285993Y4547D01*
X286819Y5181D01*
X287453Y6007D01*
X287851Y6968D01*
X287921Y7500D01*
D02*
G37*
G36*
X190500Y5449D02*
X190024Y5355D01*
X189198Y4802D01*
X188645Y3976D01*
X188550Y3500D01*
X190500D01*
Y5449D01*
D02*
G37*
G36*
X66000D02*
Y3500D01*
X67949D01*
X67855Y3976D01*
X67302Y4802D01*
X66475Y5355D01*
X66000Y5449D01*
D02*
G37*
G36*
X191500D02*
Y3500D01*
X193449D01*
X193355Y3976D01*
X192802Y4802D01*
X191975Y5355D01*
X191500Y5449D01*
D02*
G37*
G36*
X245000D02*
Y3500D01*
X246950D01*
X246855Y3976D01*
X246302Y4802D01*
X245476Y5355D01*
X245000Y5449D01*
D02*
G37*
G36*
X244000D02*
X243525Y5355D01*
X242698Y4802D01*
X242145Y3976D01*
X242051Y3500D01*
X244000D01*
Y5449D01*
D02*
G37*
G36*
X284500Y11921D02*
Y8500D01*
X287921D01*
X287851Y9032D01*
X287453Y9993D01*
X286819Y10819D01*
X285993Y11453D01*
X285032Y11851D01*
X284500Y11921D01*
D02*
G37*
G36*
X294950Y17000D02*
X293000D01*
Y15051D01*
X293476Y15145D01*
X294302Y15698D01*
X294855Y16524D01*
X294950Y17000D01*
D02*
G37*
G36*
X292000D02*
X290051D01*
X290145Y16524D01*
X290698Y15698D01*
X291525Y15145D01*
X292000Y15051D01*
Y17000D01*
D02*
G37*
G36*
X82000Y19950D02*
X81524Y19855D01*
X80698Y19302D01*
X80145Y18475D01*
X80050Y18000D01*
X82000D01*
Y19950D01*
D02*
G37*
G36*
X92000D02*
X91524Y19855D01*
X90698Y19302D01*
X90145Y18475D01*
X90051Y18000D01*
X92000D01*
Y19950D01*
D02*
G37*
G36*
X83000D02*
Y18000D01*
X84949D01*
X84855Y18475D01*
X84302Y19302D01*
X83476Y19855D01*
X83000Y19950D01*
D02*
G37*
G36*
X252000Y17000D02*
X250050D01*
X250145Y16524D01*
X250698Y15698D01*
X251524Y15145D01*
X252000Y15051D01*
Y17000D01*
D02*
G37*
G36*
X244950D02*
X243000D01*
Y15051D01*
X243476Y15145D01*
X244302Y15698D01*
X244855Y16524D01*
X244950Y17000D01*
D02*
G37*
G36*
X254949D02*
X253000D01*
Y15051D01*
X253475Y15145D01*
X254302Y15698D01*
X254855Y16524D01*
X254949Y17000D01*
D02*
G37*
G36*
X284949D02*
X283000D01*
Y15051D01*
X283475Y15145D01*
X284302Y15698D01*
X284855Y16524D01*
X284949Y17000D01*
D02*
G37*
G36*
X282000D02*
X280050D01*
X280145Y16524D01*
X280698Y15698D01*
X281524Y15145D01*
X282000Y15051D01*
Y17000D01*
D02*
G37*
G36*
X93000Y19950D02*
Y18000D01*
X94950D01*
X94855Y18475D01*
X94302Y19302D01*
X93476Y19855D01*
X93000Y19950D01*
D02*
G37*
G36*
X213000D02*
Y18000D01*
X214949D01*
X214855Y18475D01*
X214302Y19302D01*
X213475Y19855D01*
X213000Y19950D01*
D02*
G37*
G36*
X212000D02*
X211525Y19855D01*
X210698Y19302D01*
X210145Y18475D01*
X210051Y18000D01*
X212000D01*
Y19950D01*
D02*
G37*
G36*
X222000D02*
X221525Y19855D01*
X220698Y19302D01*
X220145Y18475D01*
X220051Y18000D01*
X222000D01*
Y19950D01*
D02*
G37*
G36*
X242000D02*
X241525Y19855D01*
X240698Y19302D01*
X240145Y18475D01*
X240051Y18000D01*
X242000D01*
Y19950D01*
D02*
G37*
G36*
X223000D02*
Y18000D01*
X224950D01*
X224855Y18475D01*
X224302Y19302D01*
X223476Y19855D01*
X223000Y19950D01*
D02*
G37*
G36*
X162000D02*
X161524Y19855D01*
X160698Y19302D01*
X160145Y18475D01*
X160050Y18000D01*
X162000D01*
Y19950D01*
D02*
G37*
G36*
X122000D02*
X121525Y19855D01*
X120698Y19302D01*
X120145Y18475D01*
X120051Y18000D01*
X122000D01*
Y19950D01*
D02*
G37*
G36*
X163000D02*
Y18000D01*
X164950D01*
X164855Y18475D01*
X164302Y19302D01*
X163476Y19855D01*
X163000Y19950D01*
D02*
G37*
G36*
X203000D02*
Y18000D01*
X204949D01*
X204855Y18475D01*
X204302Y19302D01*
X203475Y19855D01*
X203000Y19950D01*
D02*
G37*
G36*
X202000D02*
X201524Y19855D01*
X200698Y19302D01*
X200145Y18475D01*
X200050Y18000D01*
X202000D01*
Y19950D01*
D02*
G37*
G36*
X242000Y17000D02*
X240051D01*
X240145Y16524D01*
X240698Y15698D01*
X241525Y15145D01*
X242000Y15051D01*
Y17000D01*
D02*
G37*
G36*
X300000Y21785D02*
X299020Y21656D01*
X298107Y21278D01*
X297323Y20676D01*
X296722Y19893D01*
X296344Y18980D01*
X296215Y18000D01*
X296344Y17020D01*
X296722Y16107D01*
X297323Y15324D01*
X298107Y14722D01*
X299020Y14344D01*
X300000Y14215D01*
X300980Y14344D01*
X301893Y14722D01*
X302677Y15324D01*
X303278Y16107D01*
X303656Y17020D01*
X303785Y18000D01*
X303656Y18980D01*
X303278Y19893D01*
X302677Y20676D01*
X301893Y21278D01*
X300980Y21656D01*
X300000Y21785D01*
D02*
G37*
G36*
X234150Y19031D02*
X230500D01*
Y10657D01*
X234150D01*
Y19031D01*
D02*
G37*
G36*
X310000Y21785D02*
X309020Y21656D01*
X308107Y21278D01*
X307324Y20676D01*
X306722Y19893D01*
X306344Y18980D01*
X306215Y18000D01*
X306344Y17020D01*
X306722Y16107D01*
X307324Y15324D01*
X308107Y14722D01*
X309020Y14344D01*
X310000Y14215D01*
X310980Y14344D01*
X311893Y14722D01*
X312677Y15324D01*
X313278Y16107D01*
X313656Y17020D01*
X313785Y18000D01*
X313656Y18980D01*
X313278Y19893D01*
X312677Y20676D01*
X311893Y21278D01*
X310980Y21656D01*
X310000Y21785D01*
D02*
G37*
G36*
X84949Y17000D02*
X83000D01*
Y15051D01*
X83476Y15145D01*
X84302Y15698D01*
X84855Y16524D01*
X84949Y17000D01*
D02*
G37*
G36*
X82000D02*
X80050D01*
X80145Y16524D01*
X80698Y15698D01*
X81524Y15145D01*
X82000Y15051D01*
Y17000D01*
D02*
G37*
G36*
X300500Y11921D02*
Y8500D01*
X303921D01*
X303851Y9032D01*
X303453Y9993D01*
X302819Y10819D01*
X301993Y11453D01*
X301032Y11851D01*
X300500Y11921D01*
D02*
G37*
G36*
X340500D02*
Y8500D01*
X343921D01*
X343851Y9032D01*
X343453Y9993D01*
X342819Y10819D01*
X341993Y11453D01*
X341032Y11851D01*
X340500Y11921D01*
D02*
G37*
G36*
X149500Y19031D02*
X145850D01*
Y10657D01*
X149500D01*
Y19031D01*
D02*
G37*
G36*
X154150D02*
X150500D01*
Y10657D01*
X154150D01*
Y19031D01*
D02*
G37*
G36*
X229500D02*
X225850D01*
Y10657D01*
X229500D01*
Y19031D01*
D02*
G37*
G36*
X92000Y17000D02*
X90051D01*
X90145Y16524D01*
X90698Y15698D01*
X91524Y15145D01*
X92000Y15051D01*
Y17000D01*
D02*
G37*
G36*
X212000D02*
X210051D01*
X210145Y16524D01*
X210698Y15698D01*
X211525Y15145D01*
X212000Y15051D01*
Y17000D01*
D02*
G37*
G36*
X204949D02*
X203000D01*
Y15051D01*
X203475Y15145D01*
X204302Y15698D01*
X204855Y16524D01*
X204949Y17000D01*
D02*
G37*
G36*
X214949D02*
X213000D01*
Y15051D01*
X213475Y15145D01*
X214302Y15698D01*
X214855Y16524D01*
X214949Y17000D01*
D02*
G37*
G36*
X224950D02*
X223000D01*
Y15051D01*
X223476Y15145D01*
X224302Y15698D01*
X224855Y16524D01*
X224950Y17000D01*
D02*
G37*
G36*
X222000D02*
X220051D01*
X220145Y16524D01*
X220698Y15698D01*
X221525Y15145D01*
X222000Y15051D01*
Y17000D01*
D02*
G37*
G36*
X122000D02*
X120051D01*
X120145Y16524D01*
X120698Y15698D01*
X121525Y15145D01*
X122000Y15051D01*
Y17000D01*
D02*
G37*
G36*
X94950D02*
X93000D01*
Y15051D01*
X93476Y15145D01*
X94302Y15698D01*
X94855Y16524D01*
X94950Y17000D01*
D02*
G37*
G36*
X162000D02*
X160050D01*
X160145Y16524D01*
X160698Y15698D01*
X161524Y15145D01*
X162000Y15051D01*
Y17000D01*
D02*
G37*
G36*
X202000D02*
X200050D01*
X200145Y16524D01*
X200698Y15698D01*
X201524Y15145D01*
X202000Y15051D01*
Y17000D01*
D02*
G37*
G36*
X164950D02*
X163000D01*
Y15051D01*
X163476Y15145D01*
X164302Y15698D01*
X164855Y16524D01*
X164950Y17000D01*
D02*
G37*
G36*
X268000Y49949D02*
Y48000D01*
X269950D01*
X269855Y48476D01*
X269302Y49302D01*
X268476Y49855D01*
X268000Y49949D01*
D02*
G37*
G36*
X21950Y102516D02*
X14050D01*
Y85168D01*
X21950D01*
Y89961D01*
X35783D01*
X35935Y89461D01*
X35698Y89302D01*
X35145Y88476D01*
X35050Y88000D01*
X39950D01*
X39855Y88476D01*
X39302Y89302D01*
X39065Y89461D01*
X39217Y89961D01*
X44835D01*
X45324Y89324D01*
X46107Y88722D01*
X47020Y88344D01*
X48000Y88215D01*
X48980Y88344D01*
X49893Y88722D01*
X50677Y89324D01*
X51278Y90107D01*
X51656Y91020D01*
X51785Y92000D01*
X51656Y92980D01*
X51278Y93893D01*
X50677Y94677D01*
X49893Y95278D01*
X48980Y95656D01*
X48000Y95785D01*
X47020Y95656D01*
X46107Y95278D01*
X45324Y94677D01*
X44835Y94039D01*
X21950D01*
Y102516D01*
D02*
G37*
G36*
X61921Y91500D02*
X58500D01*
Y88079D01*
X59032Y88149D01*
X59993Y88547D01*
X60819Y89181D01*
X61453Y90007D01*
X61851Y90968D01*
X61921Y91500D01*
D02*
G37*
G36*
X343000Y113224D02*
X307000D01*
X306532Y113130D01*
X306135Y112865D01*
X294891Y101621D01*
X294625Y101224D01*
X294532Y100756D01*
Y95668D01*
X293394D01*
X292659Y95521D01*
X292036Y95105D01*
X291620Y94483D01*
X291474Y93748D01*
X291620Y93014D01*
X292036Y92391D01*
Y92285D01*
X291592Y91822D01*
X289531D01*
X289224Y92197D01*
Y101051D01*
X289658Y101342D01*
X290167Y102103D01*
X290345Y103000D01*
X290167Y103897D01*
X289658Y104658D01*
X289525Y104747D01*
X289677Y105247D01*
X289876D01*
X291753Y107124D01*
Y110876D01*
X289876Y112753D01*
X286124D01*
X284247Y110876D01*
Y107124D01*
X286124Y105247D01*
X286323D01*
X286475Y104747D01*
X286342Y104658D01*
X285833Y103897D01*
X285655Y103000D01*
X285833Y102103D01*
X286342Y101342D01*
X286776Y101051D01*
Y93251D01*
X286402Y92944D01*
X285504Y92765D01*
X284743Y92257D01*
X284235Y91496D01*
X284056Y90598D01*
X284110Y90327D01*
X283650Y90081D01*
X283243Y90487D01*
X283345Y91000D01*
X283167Y91897D01*
X282658Y92658D01*
X281897Y93167D01*
X281000Y93345D01*
X280103Y93167D01*
X279342Y92658D01*
X278833Y91897D01*
X278655Y91000D01*
X278833Y90103D01*
X279342Y89342D01*
X280103Y88833D01*
X281000Y88655D01*
X281513Y88757D01*
X286836Y83434D01*
X287233Y83169D01*
X287701Y83076D01*
X291573D01*
X291786Y82576D01*
X291592Y82373D01*
X290150D01*
X289681Y82280D01*
X289284Y82015D01*
X285135Y77865D01*
X284870Y77468D01*
X284776Y77000D01*
Y73500D01*
X284870Y73032D01*
X285135Y72635D01*
X287000Y70769D01*
X286978Y70620D01*
X286494Y70365D01*
X286435Y70363D01*
X286000Y70450D01*
Y68000D01*
Y65551D01*
X286475Y65645D01*
X286836Y65886D01*
X287277Y65650D01*
Y63007D01*
X286513Y62243D01*
X286000Y62345D01*
X285103Y62167D01*
X284342Y61658D01*
X283833Y60897D01*
X283655Y60000D01*
X283833Y59103D01*
X284342Y58342D01*
X285103Y57833D01*
X286000Y57655D01*
X286897Y57833D01*
X287658Y58342D01*
X288167Y59103D01*
X288345Y60000D01*
X288243Y60513D01*
X289365Y61635D01*
X289630Y62032D01*
X289723Y62500D01*
Y71000D01*
X289630Y71468D01*
X289365Y71865D01*
X287224Y74007D01*
Y76493D01*
X290656Y79926D01*
X291677D01*
X291987Y79443D01*
X291960Y79242D01*
X291620Y78735D01*
X291474Y78000D01*
X291620Y77265D01*
X292036Y76643D01*
X291793Y76204D01*
X291432Y75663D01*
X291370Y75350D01*
X295756D01*
Y74350D01*
X291370D01*
X291432Y74038D01*
X291793Y73497D01*
X292036Y73058D01*
X291620Y72435D01*
X291474Y71701D01*
X291620Y70966D01*
X291960Y70459D01*
X292006Y70126D01*
X291960Y69793D01*
X291620Y69286D01*
X291474Y68551D01*
X291620Y67817D01*
X292036Y67194D01*
Y66759D01*
X291620Y66136D01*
X291474Y65402D01*
X291620Y64667D01*
X292036Y64044D01*
Y63609D01*
X291620Y62986D01*
X291474Y62252D01*
X291620Y61517D01*
X292036Y60895D01*
X292659Y60479D01*
X293394Y60332D01*
X294532D01*
Y45193D01*
X294098Y44902D01*
X293589Y44142D01*
X293411Y43244D01*
X293589Y42347D01*
X294098Y41586D01*
X294859Y41078D01*
X295756Y40899D01*
X296653Y41078D01*
X297414Y41586D01*
X297922Y42347D01*
X298101Y43244D01*
X297922Y44142D01*
X297414Y44902D01*
X296979Y45193D01*
Y60332D01*
X298118D01*
X298853Y60479D01*
X299476Y60895D01*
X299892Y61517D01*
X300038Y62252D01*
X299892Y62986D01*
X299706Y63264D01*
X299806Y63599D01*
X300138Y63647D01*
X300342Y63342D01*
X301103Y62833D01*
X302000Y62655D01*
X302897Y62833D01*
X303658Y63342D01*
X304167Y64103D01*
X304345Y65000D01*
X304167Y65897D01*
X303658Y66658D01*
X302897Y67167D01*
X302000Y67345D01*
X301103Y67167D01*
X300342Y66658D01*
X300320Y66625D01*
X299565D01*
X299476Y66759D01*
Y67194D01*
X299892Y67817D01*
X300038Y68551D01*
X299892Y69286D01*
X299552Y69793D01*
X299506Y70126D01*
X299552Y70459D01*
X299892Y70966D01*
X300038Y71701D01*
X299892Y72435D01*
X299476Y73058D01*
X299719Y73497D01*
X300080Y74038D01*
X300154Y74409D01*
X300696Y74573D01*
X304135Y71135D01*
X304532Y70870D01*
X305000Y70776D01*
X313000D01*
X313468Y70870D01*
X313865Y71135D01*
X316487Y73757D01*
X317000Y73655D01*
X317897Y73834D01*
X318658Y74342D01*
X319167Y75103D01*
X319345Y76000D01*
X319167Y76897D01*
X318658Y77658D01*
X317897Y78167D01*
X317000Y78345D01*
X316103Y78167D01*
X315342Y77658D01*
X314833Y76897D01*
X314655Y76000D01*
X314757Y75487D01*
X312493Y73224D01*
X308703D01*
X308420Y73724D01*
X308452Y73777D01*
X309869D01*
X310338Y73870D01*
X310735Y74135D01*
X318776Y82177D01*
X322663D01*
X323131Y82270D01*
X323528Y82535D01*
X333518Y92524D01*
X336435D01*
X336525Y92391D01*
Y91956D01*
X336108Y91333D01*
X335962Y90598D01*
X336108Y89864D01*
X336525Y89241D01*
Y88806D01*
X336108Y88183D01*
X335962Y87449D01*
X336108Y86714D01*
X336448Y86207D01*
X336494Y85874D01*
X336448Y85541D01*
X336108Y85034D01*
X335962Y84299D01*
X336108Y83565D01*
X336525Y82942D01*
Y82507D01*
X336108Y81884D01*
X335962Y81150D01*
X336108Y80415D01*
X336525Y79792D01*
X336281Y79353D01*
X335920Y78813D01*
X335858Y78500D01*
X340244D01*
Y77500D01*
X335858D01*
X335864Y77467D01*
X335625Y77264D01*
X335420Y77140D01*
X335000Y77223D01*
X333949D01*
X333658Y77658D01*
X332897Y78167D01*
X332000Y78345D01*
X331103Y78167D01*
X330342Y77658D01*
X329833Y76897D01*
X329655Y76000D01*
X329833Y75103D01*
X330342Y74342D01*
X331103Y73834D01*
X332000Y73655D01*
X332897Y73834D01*
X333658Y74342D01*
X333949Y74777D01*
X334493D01*
X335284Y73985D01*
X335681Y73720D01*
X336150Y73627D01*
X336340Y73345D01*
X336278Y73050D01*
X336172Y72791D01*
X335836Y72566D01*
X333135Y69865D01*
X332870Y69468D01*
X332776Y69000D01*
Y62000D01*
X332870Y61532D01*
X333135Y61135D01*
X333764Y60505D01*
X333562Y60001D01*
X333014Y59891D01*
X332506Y59552D01*
X332173Y59506D01*
X331841Y59552D01*
X331333Y59891D01*
X330598Y60038D01*
X329864Y59891D01*
X329356Y59552D01*
X329024Y59506D01*
X328691Y59552D01*
X328183Y59891D01*
X327449Y60038D01*
X326714Y59891D01*
X326092Y59475D01*
X325657D01*
X325034Y59891D01*
X324299Y60038D01*
X323565Y59891D01*
X323057Y59552D01*
X322724Y59506D01*
X322392Y59552D01*
X321884Y59891D01*
X321150Y60038D01*
X320415Y59891D01*
X319792Y59475D01*
X319353Y59719D01*
X318813Y60080D01*
X318500Y60142D01*
Y55756D01*
Y51370D01*
X318813Y51432D01*
X319353Y51793D01*
X319436Y51839D01*
X319720Y51756D01*
X319926Y51628D01*
Y49049D01*
X319342Y48658D01*
X318833Y47897D01*
X318655Y47000D01*
X318833Y46103D01*
X319342Y45342D01*
X320103Y44833D01*
X321000Y44655D01*
X321897Y44833D01*
X322658Y45342D01*
X323167Y46103D01*
X323345Y47000D01*
X323167Y47897D01*
X322658Y48658D01*
X322373Y48849D01*
Y51612D01*
X322700Y51811D01*
X323092Y51618D01*
X323169Y51233D01*
X323434Y50836D01*
X329735Y44535D01*
X330132Y44270D01*
X330600Y44177D01*
X336912D01*
X340953Y40135D01*
X341350Y39870D01*
X341818Y39777D01*
X344051D01*
X344342Y39342D01*
X345103Y38833D01*
X346000Y38655D01*
X346897Y38833D01*
X347658Y39342D01*
X348167Y40103D01*
X348345Y41000D01*
X348167Y41897D01*
X347658Y42658D01*
X346897Y43167D01*
X346000Y43345D01*
X345624Y43270D01*
X345270Y43624D01*
X345345Y44000D01*
X345167Y44897D01*
X344658Y45658D01*
X343897Y46167D01*
X343000Y46345D01*
X342487Y46243D01*
X341416Y47315D01*
X341607Y47776D01*
X354315D01*
X354419Y47556D01*
X354451Y47276D01*
X353741Y46732D01*
X353139Y45948D01*
X352761Y45035D01*
X352632Y44055D01*
X352761Y43075D01*
X353139Y42163D01*
X353741Y41379D01*
X354525Y40777D01*
X355438Y40399D01*
X356417Y40270D01*
X357397Y40399D01*
X358310Y40777D01*
X359094Y41379D01*
X359695Y42163D01*
X360073Y43075D01*
X360202Y44055D01*
X360073Y45035D01*
X359695Y45948D01*
X359094Y46732D01*
X358384Y47276D01*
X358415Y47556D01*
X358520Y47776D01*
X361362D01*
X361830Y47870D01*
X362227Y48135D01*
X364769Y50676D01*
X365438Y50399D01*
X366417Y50270D01*
X367397Y50399D01*
X368310Y50777D01*
X369094Y51379D01*
X369276Y51617D01*
X369777Y51447D01*
Y49145D01*
X368066Y47434D01*
X367397Y47711D01*
X366417Y47840D01*
X365438Y47711D01*
X364525Y47333D01*
X363741Y46732D01*
X363139Y45948D01*
X362761Y45035D01*
X362632Y44055D01*
X362761Y43075D01*
X363139Y42163D01*
X363741Y41379D01*
X364525Y40777D01*
X365438Y40399D01*
X366417Y40270D01*
X367397Y40399D01*
X368310Y40777D01*
X369094Y41379D01*
X369695Y42163D01*
X370074Y43075D01*
X370202Y44055D01*
X370074Y45035D01*
X369796Y45704D01*
X371865Y47773D01*
X372130Y48170D01*
X372223Y48638D01*
Y76500D01*
X372130Y76968D01*
X371865Y77365D01*
X369365Y79865D01*
X368968Y80130D01*
X368662Y80191D01*
X368544Y80694D01*
X368545Y80705D01*
X369236Y81236D01*
X369870Y82062D01*
X370268Y83023D01*
X370338Y83555D01*
X366417D01*
Y84055D01*
X365917D01*
Y87976D01*
X365385Y87906D01*
X364424Y87508D01*
X363598Y86874D01*
X363224Y86386D01*
X362723Y86556D01*
Y91000D01*
X362630Y91468D01*
X362365Y91865D01*
X359873Y94358D01*
X360021Y94916D01*
X360658Y95342D01*
X361167Y96103D01*
X361345Y97000D01*
X361167Y97897D01*
X360658Y98658D01*
X359897Y99167D01*
X359000Y99345D01*
X358103Y99167D01*
X357820Y98978D01*
X357795Y98979D01*
X357299Y99231D01*
X357167Y99897D01*
X356658Y100658D01*
X355897Y101166D01*
X355481Y101249D01*
X343865Y112865D01*
X343468Y113130D01*
X343000Y113224D01*
D02*
G37*
G36*
X58500Y95921D02*
Y92500D01*
X61921D01*
X61851Y93032D01*
X61453Y93993D01*
X60819Y94819D01*
X59993Y95453D01*
X59032Y95851D01*
X58500Y95921D01*
D02*
G37*
G36*
X57500D02*
X56968Y95851D01*
X56007Y95453D01*
X55181Y94819D01*
X54547Y93993D01*
X54149Y93032D01*
X54079Y92500D01*
X57500D01*
Y95921D01*
D02*
G37*
G36*
X178000Y89950D02*
Y88000D01*
X179949D01*
X179855Y88476D01*
X179302Y89302D01*
X178475Y89855D01*
X178000Y89950D01*
D02*
G37*
G36*
X177000D02*
X176524Y89855D01*
X175698Y89302D01*
X175145Y88476D01*
X175050Y88000D01*
X177000D01*
Y89950D01*
D02*
G37*
G36*
X217000D02*
X216525Y89855D01*
X215698Y89302D01*
X215145Y88476D01*
X215051Y88000D01*
X217000D01*
Y89950D01*
D02*
G37*
G36*
X57500Y91500D02*
X54079D01*
X54149Y90968D01*
X54547Y90007D01*
X55181Y89181D01*
X56007Y88547D01*
X56968Y88149D01*
X57500Y88079D01*
Y91500D01*
D02*
G37*
G36*
X218000Y89950D02*
Y88000D01*
X219950D01*
X219855Y88476D01*
X219302Y89302D01*
X218476Y89855D01*
X218000Y89950D01*
D02*
G37*
G36*
X62000Y113785D02*
X61020Y113656D01*
X60107Y113278D01*
X59324Y112677D01*
X58722Y111893D01*
X58344Y110980D01*
X58215Y110000D01*
X58344Y109020D01*
X58722Y108107D01*
X59324Y107324D01*
X60107Y106722D01*
X61020Y106344D01*
X62000Y106215D01*
X62980Y106344D01*
X63205Y106437D01*
X75141Y94501D01*
X74949Y94039D01*
X71753D01*
Y95753D01*
X64247D01*
Y88247D01*
X71753D01*
Y89961D01*
X75155D01*
X78558Y86558D01*
X79220Y86116D01*
X80000Y85961D01*
X85483D01*
Y84050D01*
X102831D01*
Y91950D01*
X103327Y91961D01*
X104969D01*
Y88500D01*
X122716D01*
Y90746D01*
X123179Y90938D01*
X123495Y90621D01*
X124157Y90179D01*
X124937Y90024D01*
X124937Y90024D01*
X126247D01*
Y88507D01*
X133753D01*
Y88710D01*
X134215Y88902D01*
X137456Y85660D01*
X138117Y85218D01*
X138898Y85063D01*
X138980D01*
Y83953D01*
X139134Y83180D01*
X139572Y82525D01*
X140227Y82087D01*
X141000Y81933D01*
X141773Y82087D01*
X142428Y82525D01*
X142866Y83180D01*
X143020Y83953D01*
Y87006D01*
X143039Y87102D01*
X143020Y87199D01*
Y90252D01*
X142866Y91025D01*
X142428Y91680D01*
X141773Y92118D01*
X141000Y92272D01*
X140227Y92118D01*
X139572Y91680D01*
X139134Y91025D01*
X139040Y90551D01*
X138497Y90387D01*
X135379Y93505D01*
X134717Y93947D01*
X133937Y94102D01*
X133753D01*
Y95619D01*
X126247D01*
Y94185D01*
X125747Y94137D01*
X124442Y95442D01*
X123780Y95884D01*
X123000Y96039D01*
X79370D01*
X65741Y109668D01*
X65785Y110000D01*
X65656Y110980D01*
X65278Y111893D01*
X64676Y112677D01*
X63893Y113278D01*
X62980Y113656D01*
X62000Y113785D01*
D02*
G37*
G36*
X369500Y99449D02*
X369024Y99355D01*
X368198Y98802D01*
X367645Y97975D01*
X367550Y97500D01*
X369500D01*
Y99449D01*
D02*
G37*
G36*
X133953Y99437D02*
X130500D01*
Y96181D01*
X133953D01*
Y99437D01*
D02*
G37*
G36*
X370500Y99449D02*
Y97500D01*
X372449D01*
X372355Y97975D01*
X371802Y98802D01*
X370975Y99355D01*
X370500Y99449D01*
D02*
G37*
G36*
X26500Y100450D02*
Y98500D01*
X28449D01*
X28355Y98975D01*
X27802Y99802D01*
X26976Y100355D01*
X26500Y100450D01*
D02*
G37*
G36*
X25500D02*
X25025Y100355D01*
X24198Y99802D01*
X23645Y98975D01*
X23550Y98500D01*
X25500D01*
Y100450D01*
D02*
G37*
G36*
X372449Y96500D02*
X370500D01*
Y94551D01*
X370975Y94645D01*
X371802Y95198D01*
X372355Y96025D01*
X372449Y96500D01*
D02*
G37*
G36*
X369500D02*
X367550D01*
X367645Y96025D01*
X368198Y95198D01*
X369024Y94645D01*
X369500Y94551D01*
Y96500D01*
D02*
G37*
G36*
X25500Y97500D02*
X23550D01*
X23645Y97025D01*
X24198Y96198D01*
X25025Y95645D01*
X25500Y95551D01*
Y97500D01*
D02*
G37*
G36*
X129500Y99437D02*
X126047D01*
Y96181D01*
X129500D01*
Y99437D01*
D02*
G37*
G36*
X28449Y97500D02*
X26500D01*
Y95551D01*
X26976Y95645D01*
X27802Y96198D01*
X28355Y97025D01*
X28449Y97500D01*
D02*
G37*
G36*
X133500Y85949D02*
X133025Y85855D01*
X132198Y85302D01*
X131645Y84475D01*
X131551Y84000D01*
X133500D01*
Y85949D01*
D02*
G37*
G36*
X122716Y87500D02*
X114342D01*
Y83850D01*
X122716D01*
Y87500D01*
D02*
G37*
G36*
X134500Y85949D02*
Y84000D01*
X136450D01*
X136355Y84475D01*
X135802Y85302D01*
X134976Y85855D01*
X134500Y85949D01*
D02*
G37*
G36*
X7000Y87000D02*
X5051D01*
X5145Y86524D01*
X5698Y85698D01*
X6525Y85145D01*
X7000Y85050D01*
Y87000D01*
D02*
G37*
G36*
X366917Y87976D02*
Y84555D01*
X370338D01*
X370268Y85087D01*
X369870Y86049D01*
X369236Y86874D01*
X368411Y87508D01*
X367449Y87906D01*
X366917Y87976D01*
D02*
G37*
G36*
X272500Y90716D02*
X268850D01*
Y82342D01*
X272500D01*
Y90716D01*
D02*
G37*
G36*
X241500D02*
X237850D01*
Y82342D01*
X241500D01*
Y90716D01*
D02*
G37*
G36*
X246150D02*
X242500D01*
Y82342D01*
X246150D01*
Y90716D01*
D02*
G37*
G36*
X113342Y87500D02*
X104969D01*
Y83850D01*
X113342D01*
Y87500D01*
D02*
G37*
G36*
X277150Y90716D02*
X273500D01*
Y82342D01*
X277150D01*
Y90716D01*
D02*
G37*
G36*
X9950Y87000D02*
X8000D01*
Y85050D01*
X8475Y85145D01*
X9302Y85698D01*
X9855Y86524D01*
X9950Y87000D01*
D02*
G37*
G36*
X170500Y92376D02*
X170149Y92307D01*
X169428Y91825D01*
X168946Y91103D01*
X168776Y90252D01*
Y87602D01*
X170500D01*
Y92376D01*
D02*
G37*
G36*
X219950Y87000D02*
X218000D01*
Y85050D01*
X218476Y85145D01*
X219302Y85698D01*
X219855Y86524D01*
X219950Y87000D01*
D02*
G37*
G36*
X171500Y92376D02*
Y87602D01*
X173224D01*
Y90252D01*
X173055Y91103D01*
X172573Y91825D01*
X171851Y92307D01*
X171500Y92376D01*
D02*
G37*
G36*
X8000Y89950D02*
Y88000D01*
X9950D01*
X9855Y88476D01*
X9302Y89302D01*
X8475Y89855D01*
X8000Y89950D01*
D02*
G37*
G36*
X7000D02*
X6525Y89855D01*
X5698Y89302D01*
X5145Y88476D01*
X5051Y88000D01*
X7000D01*
Y89950D01*
D02*
G37*
G36*
X39950Y87000D02*
X38000D01*
Y85050D01*
X38475Y85145D01*
X39302Y85698D01*
X39855Y86524D01*
X39950Y87000D01*
D02*
G37*
G36*
X37000D02*
X35050D01*
X35145Y86524D01*
X35698Y85698D01*
X36525Y85145D01*
X37000Y85050D01*
Y87000D01*
D02*
G37*
G36*
X177000D02*
X175050D01*
X175145Y86524D01*
X175698Y85698D01*
X176524Y85145D01*
X177000Y85050D01*
Y87000D01*
D02*
G37*
G36*
X217000D02*
X215051D01*
X215145Y86524D01*
X215698Y85698D01*
X216525Y85145D01*
X217000Y85050D01*
Y87000D01*
D02*
G37*
G36*
X179949D02*
X178000D01*
Y85050D01*
X178475Y85145D01*
X179302Y85698D01*
X179855Y86524D01*
X179949Y87000D01*
D02*
G37*
G36*
X267000Y109950D02*
X266525Y109855D01*
X265698Y109302D01*
X265145Y108475D01*
X265051Y108000D01*
X267000D01*
Y109950D01*
D02*
G37*
G36*
X258000D02*
Y108000D01*
X259949D01*
X259855Y108475D01*
X259302Y109302D01*
X258475Y109855D01*
X258000Y109950D01*
D02*
G37*
G36*
X268000D02*
Y108000D01*
X269950D01*
X269855Y108475D01*
X269302Y109302D01*
X268476Y109855D01*
X268000Y109950D01*
D02*
G37*
G36*
X278000D02*
Y108000D01*
X279949D01*
X279855Y108475D01*
X279302Y109302D01*
X278475Y109855D01*
X278000Y109950D01*
D02*
G37*
G36*
X277000D02*
X276524Y109855D01*
X275698Y109302D01*
X275145Y108475D01*
X275050Y108000D01*
X277000D01*
Y109950D01*
D02*
G37*
G36*
X233753Y113753D02*
X226247D01*
Y106247D01*
X233753D01*
Y113753D01*
D02*
G37*
G36*
X15753D02*
X8247D01*
Y106247D01*
X15753D01*
Y113753D01*
D02*
G37*
G36*
X4000Y109500D02*
X2050D01*
X2145Y109025D01*
X2698Y108198D01*
X3525Y107645D01*
X4000Y107551D01*
Y109500D01*
D02*
G37*
G36*
X257000Y109950D02*
X256524Y109855D01*
X255698Y109302D01*
X255145Y108475D01*
X255050Y108000D01*
X257000D01*
Y109950D01*
D02*
G37*
G36*
X6949Y109500D02*
X5000D01*
Y107551D01*
X5475Y107645D01*
X6302Y108198D01*
X6855Y109025D01*
X6949Y109500D01*
D02*
G37*
G36*
X353000Y112000D02*
X351050D01*
X351145Y111524D01*
X351698Y110698D01*
X352524Y110145D01*
X353000Y110050D01*
Y112000D01*
D02*
G37*
G36*
X354000Y114950D02*
Y113000D01*
X355949D01*
X355855Y113476D01*
X355302Y114302D01*
X354475Y114855D01*
X354000Y114950D01*
D02*
G37*
G36*
X353000D02*
X352524Y114855D01*
X351698Y114302D01*
X351145Y113476D01*
X351050Y113000D01*
X353000D01*
Y114950D01*
D02*
G37*
G36*
X175000Y116224D02*
X87000D01*
X86532Y116130D01*
X86135Y115865D01*
X83649Y113379D01*
X82980Y113656D01*
X82000Y113785D01*
X81020Y113656D01*
X80107Y113278D01*
X79324Y112677D01*
X78722Y111893D01*
X78344Y110980D01*
X78215Y110000D01*
X78344Y109020D01*
X78722Y108107D01*
X79324Y107324D01*
X80107Y106722D01*
X81020Y106344D01*
X82000Y106215D01*
X82980Y106344D01*
X83893Y106722D01*
X84676Y107324D01*
X85278Y108107D01*
X85656Y109020D01*
X85785Y110000D01*
X85656Y110980D01*
X85379Y111649D01*
X87507Y113777D01*
X90004D01*
X90107Y113278D01*
X89324Y112677D01*
X88722Y111893D01*
X88344Y110980D01*
X88215Y110000D01*
X88344Y109020D01*
X88722Y108107D01*
X89324Y107324D01*
X90107Y106722D01*
X91020Y106344D01*
X92000Y106215D01*
X92980Y106344D01*
X93649Y106621D01*
X97135Y103135D01*
X97532Y102870D01*
X98000Y102777D01*
X115493D01*
X118257Y100013D01*
X118155Y99500D01*
X118333Y98603D01*
X118842Y97842D01*
X119603Y97334D01*
X120500Y97155D01*
X121397Y97334D01*
X122158Y97842D01*
X122667Y98603D01*
X122845Y99500D01*
X122667Y100397D01*
X122158Y101158D01*
X121397Y101666D01*
X120500Y101845D01*
X119987Y101743D01*
X116865Y104865D01*
X116468Y105130D01*
X116000Y105224D01*
X113224D01*
Y106247D01*
X113876D01*
X115753Y108124D01*
Y111876D01*
X114353Y113277D01*
X114560Y113777D01*
X120307D01*
Y110500D01*
X124063D01*
X127819D01*
Y113300D01*
X127881Y113356D01*
X128063Y113327D01*
X128381Y113136D01*
Y106247D01*
X135493D01*
Y106247D01*
X135759Y106357D01*
X137558Y104558D01*
X138220Y104116D01*
X138961Y103969D01*
Y100845D01*
X136327Y98211D01*
X136103Y98167D01*
X135342Y97658D01*
X134833Y96897D01*
X134655Y96000D01*
X134833Y95103D01*
X135342Y94342D01*
X136103Y93834D01*
X137000Y93655D01*
X137897Y93834D01*
X138658Y94342D01*
X139167Y95103D01*
X139211Y95327D01*
X142442Y98558D01*
X142884Y99220D01*
X143039Y100000D01*
Y106000D01*
X143020Y106097D01*
Y109150D01*
X142866Y109923D01*
X142428Y110578D01*
X141773Y111016D01*
X141000Y111170D01*
X140227Y111016D01*
X139572Y110578D01*
X139134Y109923D01*
X139057Y109534D01*
X138514Y109370D01*
X136442Y111442D01*
X135780Y111884D01*
X135493Y111941D01*
X135493Y113753D01*
X135983Y113777D01*
X147393D01*
X147584Y113315D01*
X145300Y111030D01*
X145227Y111016D01*
X144572Y110578D01*
X144134Y109923D01*
X143980Y109150D01*
Y102850D01*
X144134Y102077D01*
X144572Y101422D01*
X145227Y100984D01*
X146000Y100830D01*
X146773Y100984D01*
X147428Y101422D01*
X147866Y102077D01*
X148020Y102850D01*
Y109150D01*
X147866Y109923D01*
X147781Y110050D01*
X149507Y111776D01*
X173493D01*
X177161Y108108D01*
X177125Y107860D01*
X176892Y107760D01*
X176595Y107700D01*
X175897Y108167D01*
X175000Y108345D01*
X174103Y108167D01*
X173520Y107777D01*
X173020Y108008D01*
Y109150D01*
X172866Y109923D01*
X172428Y110578D01*
X171773Y111016D01*
X171000Y111170D01*
X170227Y111016D01*
X169572Y110578D01*
X169134Y109923D01*
X168980Y109150D01*
Y102850D01*
X169134Y102077D01*
X169572Y101422D01*
X170227Y100984D01*
X171000Y100830D01*
X171773Y100984D01*
X172428Y101422D01*
X172866Y102077D01*
X173020Y102850D01*
Y103992D01*
X173520Y104223D01*
X174103Y103833D01*
X175000Y103655D01*
X175897Y103833D01*
X176658Y104342D01*
X176777Y104519D01*
X177277Y104367D01*
Y101157D01*
X177370Y100689D01*
X177635Y100292D01*
X178841Y99085D01*
X178650Y98624D01*
X168607D01*
X166759Y100472D01*
X166763Y100636D01*
X166881Y101056D01*
X167428Y101422D01*
X167866Y102077D01*
X168020Y102850D01*
Y109150D01*
X167866Y109923D01*
X167428Y110578D01*
X166773Y111016D01*
X166000Y111170D01*
X165227Y111016D01*
X164572Y110578D01*
X164134Y109923D01*
X163980Y109150D01*
Y102850D01*
X164134Y102077D01*
X164370Y101724D01*
X164103Y101224D01*
X163507D01*
X162781Y101950D01*
X162866Y102077D01*
X163020Y102850D01*
Y109150D01*
X162866Y109923D01*
X162428Y110578D01*
X161773Y111016D01*
X161000Y111170D01*
X160227Y111016D01*
X159572Y110578D01*
X159134Y109923D01*
X158980Y109150D01*
Y103457D01*
X158480Y103250D01*
X158020Y103710D01*
Y109150D01*
X157866Y109923D01*
X157428Y110578D01*
X156773Y111016D01*
X156000Y111170D01*
X155227Y111016D01*
X154572Y110578D01*
X154134Y109923D01*
X153980Y109150D01*
Y102850D01*
X154134Y102077D01*
X154572Y101422D01*
X155227Y100984D01*
X156000Y100830D01*
X156773Y100984D01*
X157080Y101189D01*
X159784Y98485D01*
X159593Y98023D01*
X156707D01*
X152781Y101950D01*
X152866Y102077D01*
X153020Y102850D01*
Y109150D01*
X152866Y109923D01*
X152428Y110578D01*
X151773Y111016D01*
X151000Y111170D01*
X150227Y111016D01*
X149572Y110578D01*
X149134Y109923D01*
X148980Y109150D01*
Y102850D01*
X149134Y102077D01*
X149572Y101422D01*
X150227Y100984D01*
X150300Y100970D01*
X154742Y96527D01*
X154679Y95884D01*
X154342Y95658D01*
X153833Y94897D01*
X153755Y94503D01*
X153245D01*
X153167Y94897D01*
X152658Y95658D01*
X151897Y96166D01*
X151000Y96345D01*
X150103Y96166D01*
X149342Y95658D01*
X148833Y94897D01*
X148755Y94503D01*
X148245D01*
X148167Y94897D01*
X147658Y95658D01*
X146897Y96166D01*
X146000Y96345D01*
X145103Y96166D01*
X144342Y95658D01*
X143833Y94897D01*
X143655Y94000D01*
X143833Y93103D01*
X144342Y92342D01*
X144503Y92234D01*
X144563Y91747D01*
X144537Y91628D01*
X144134Y91025D01*
X143980Y90252D01*
Y83953D01*
X144134Y83180D01*
X144572Y82525D01*
X145227Y82087D01*
X146000Y81933D01*
X146773Y82087D01*
X147428Y82525D01*
X147866Y83180D01*
X148020Y83953D01*
Y90252D01*
X147866Y91025D01*
X147463Y91628D01*
X147436Y91747D01*
X147497Y92234D01*
X147658Y92342D01*
X148167Y93103D01*
X148245Y93498D01*
X148755D01*
X148833Y93103D01*
X149342Y92342D01*
X149503Y92234D01*
X149564Y91747D01*
X149537Y91628D01*
X149134Y91025D01*
X148980Y90252D01*
Y83953D01*
X149134Y83180D01*
X149572Y82525D01*
X150227Y82087D01*
X151000Y81933D01*
X151773Y82087D01*
X152428Y82525D01*
X152866Y83180D01*
X153020Y83953D01*
Y90252D01*
X152866Y91025D01*
X152463Y91628D01*
X152436Y91747D01*
X152497Y92234D01*
X152658Y92342D01*
X153167Y93103D01*
X153245Y93498D01*
X153755D01*
X153833Y93103D01*
X154342Y92342D01*
X154503Y92234D01*
X154563Y91747D01*
X154537Y91628D01*
X154134Y91025D01*
X153980Y90252D01*
Y83953D01*
X154134Y83180D01*
X154572Y82525D01*
X155227Y82087D01*
X156000Y81933D01*
X156773Y82087D01*
X157428Y82525D01*
X157866Y83180D01*
X158020Y83953D01*
Y90252D01*
X157866Y91025D01*
X157463Y91628D01*
X157437Y91747D01*
X157497Y92234D01*
X157658Y92342D01*
X158167Y93103D01*
X158245Y93498D01*
X158755D01*
X158833Y93103D01*
X159342Y92342D01*
X159503Y92234D01*
X159564Y91747D01*
X159537Y91628D01*
X159134Y91025D01*
X158980Y90252D01*
Y83953D01*
X159134Y83180D01*
X159572Y82525D01*
X160227Y82087D01*
X161000Y81933D01*
X161773Y82087D01*
X162428Y82525D01*
X162866Y83180D01*
X163020Y83953D01*
Y90252D01*
X162866Y91025D01*
X162463Y91628D01*
X162436Y91747D01*
X162497Y92234D01*
X162658Y92342D01*
X163167Y93103D01*
X163345Y94000D01*
X163167Y94897D01*
X163060Y95057D01*
X163287Y95504D01*
X163704Y95540D01*
X165909Y93335D01*
X166306Y93070D01*
X166774Y92976D01*
X250030D01*
X254472Y88535D01*
X254869Y88270D01*
X255337Y88177D01*
X262218D01*
X262687Y88270D01*
X263084Y88535D01*
X268865Y94317D01*
X269130Y94713D01*
X269223Y95182D01*
Y98051D01*
X269658Y98342D01*
X270167Y99103D01*
X270345Y100000D01*
X270167Y100897D01*
X269658Y101658D01*
X268897Y102166D01*
X268000Y102345D01*
X267103Y102166D01*
X266342Y101658D01*
X265833Y100897D01*
X265655Y100000D01*
X265833Y99103D01*
X266342Y98342D01*
X266776Y98051D01*
Y95688D01*
X265677Y94589D01*
X265199Y94735D01*
X265167Y94897D01*
X264658Y95658D01*
X263897Y96166D01*
X263000Y96345D01*
X262103Y96166D01*
X261342Y95658D01*
X261250Y95521D01*
X260750D01*
X260658Y95658D01*
X260224Y95949D01*
Y96000D01*
X260130Y96468D01*
X259865Y96865D01*
X258416Y98314D01*
X258607Y98777D01*
X260051D01*
X260342Y98342D01*
X261103Y97834D01*
X262000Y97655D01*
X262897Y97834D01*
X263658Y98342D01*
X264167Y99103D01*
X264345Y100000D01*
X264167Y100897D01*
X263658Y101658D01*
X262897Y102166D01*
X262000Y102345D01*
X261103Y102166D01*
X260342Y101658D01*
X260051Y101224D01*
X257769D01*
X257528Y101465D01*
X257131Y101730D01*
X256663Y101823D01*
X212907D01*
X205865Y108865D01*
X205468Y109130D01*
X205000Y109223D01*
X203493D01*
Y109981D01*
X197365D01*
Y106019D01*
X203493D01*
Y106776D01*
X204493D01*
X210584Y100686D01*
X210393Y100224D01*
X187418D01*
X186953Y100307D01*
Y103563D01*
X183000D01*
Y104063D01*
X182500D01*
Y107819D01*
X179724D01*
Y108381D01*
X186753D01*
Y110517D01*
X188507D01*
Y109759D01*
X194635D01*
Y113721D01*
X188507D01*
Y112964D01*
X186753D01*
Y115493D01*
X179247D01*
Y113161D01*
X178570D01*
X175865Y115865D01*
X175468Y116130D01*
X175000Y116224D01*
D02*
G37*
G36*
X201000Y115949D02*
Y114000D01*
X202950D01*
X202855Y114476D01*
X202302Y115302D01*
X201476Y115855D01*
X201000Y115949D01*
D02*
G37*
G36*
X200000D02*
X199524Y115855D01*
X198698Y115302D01*
X198145Y114476D01*
X198050Y114000D01*
X200000D01*
Y115949D01*
D02*
G37*
G36*
X4000Y112450D02*
X3525Y112355D01*
X2698Y111802D01*
X2145Y110976D01*
X2050Y110500D01*
X4000D01*
Y112450D01*
D02*
G37*
G36*
X355949Y112000D02*
X354000D01*
Y110050D01*
X354475Y110145D01*
X355302Y110698D01*
X355855Y111524D01*
X355949Y112000D01*
D02*
G37*
G36*
X5000Y112450D02*
Y110500D01*
X6949D01*
X6855Y110976D01*
X6302Y111802D01*
X5475Y112355D01*
X5000Y112450D01*
D02*
G37*
G36*
X202950Y113000D02*
X201000D01*
Y111050D01*
X201476Y111145D01*
X202302Y111698D01*
X202855Y112524D01*
X202950Y113000D01*
D02*
G37*
G36*
X200000D02*
X198050D01*
X198145Y112524D01*
X198698Y111698D01*
X199524Y111145D01*
X200000Y111050D01*
Y113000D01*
D02*
G37*
G36*
X194835Y106441D02*
X192071D01*
Y104760D01*
X194835D01*
Y106441D01*
D02*
G37*
G36*
X191071D02*
X188307D01*
Y104760D01*
X191071D01*
Y106441D01*
D02*
G37*
G36*
X257000Y107000D02*
X255050D01*
X255145Y106525D01*
X255698Y105698D01*
X256524Y105145D01*
X257000Y105051D01*
Y107000D01*
D02*
G37*
G36*
X267000D02*
X265051D01*
X265145Y106525D01*
X265698Y105698D01*
X266525Y105145D01*
X267000Y105051D01*
Y107000D01*
D02*
G37*
G36*
X259949D02*
X258000D01*
Y105051D01*
X258475Y105145D01*
X259302Y105698D01*
X259855Y106525D01*
X259949Y107000D01*
D02*
G37*
G36*
X133953Y103693D02*
X130500D01*
Y100437D01*
X133953D01*
Y103693D01*
D02*
G37*
G36*
X129500D02*
X126047D01*
Y100437D01*
X129500D01*
Y103693D01*
D02*
G37*
G36*
X191071Y103760D02*
X188307D01*
Y102079D01*
X191071D01*
Y103760D01*
D02*
G37*
G36*
X186953Y107819D02*
X183500D01*
Y104563D01*
X186953D01*
Y107819D01*
D02*
G37*
G36*
X194835Y103760D02*
X192071D01*
Y102079D01*
X194835D01*
Y103760D01*
D02*
G37*
G36*
X269950Y107000D02*
X268000D01*
Y105051D01*
X268476Y105145D01*
X269302Y105698D01*
X269855Y106525D01*
X269950Y107000D01*
D02*
G37*
G36*
X42000Y113785D02*
X41020Y113656D01*
X40107Y113278D01*
X39323Y112677D01*
X38722Y111893D01*
X38344Y110980D01*
X38215Y110000D01*
X38344Y109020D01*
X38722Y108107D01*
X39323Y107324D01*
X40107Y106722D01*
X41020Y106344D01*
X42000Y106215D01*
X42980Y106344D01*
X43893Y106722D01*
X44677Y107324D01*
X45278Y108107D01*
X45656Y109020D01*
X45785Y110000D01*
X45656Y110980D01*
X45278Y111893D01*
X44677Y112677D01*
X43893Y113278D01*
X42980Y113656D01*
X42000Y113785D01*
D02*
G37*
G36*
X32000D02*
X31020Y113656D01*
X30107Y113278D01*
X29324Y112677D01*
X28722Y111893D01*
X28344Y110980D01*
X28215Y110000D01*
X28344Y109020D01*
X28722Y108107D01*
X29324Y107324D01*
X30107Y106722D01*
X31020Y106344D01*
X32000Y106215D01*
X32980Y106344D01*
X33893Y106722D01*
X34677Y107324D01*
X35278Y108107D01*
X35656Y109020D01*
X35785Y110000D01*
X35656Y110980D01*
X35278Y111893D01*
X34677Y112677D01*
X33893Y113278D01*
X32980Y113656D01*
X32000Y113785D01*
D02*
G37*
G36*
X52000D02*
X51020Y113656D01*
X50107Y113278D01*
X49323Y112677D01*
X48722Y111893D01*
X48344Y110980D01*
X48215Y110000D01*
X48344Y109020D01*
X48722Y108107D01*
X49323Y107324D01*
X50107Y106722D01*
X51020Y106344D01*
X52000Y106215D01*
X52980Y106344D01*
X53893Y106722D01*
X54677Y107324D01*
X55278Y108107D01*
X55656Y109020D01*
X55785Y110000D01*
X55656Y110980D01*
X55278Y111893D01*
X54677Y112677D01*
X53893Y113278D01*
X52980Y113656D01*
X52000Y113785D01*
D02*
G37*
G36*
X240000D02*
X239020Y113656D01*
X238107Y113278D01*
X237323Y112677D01*
X236722Y111893D01*
X236344Y110980D01*
X236215Y110000D01*
X236344Y109020D01*
X236722Y108107D01*
X237323Y107324D01*
X238107Y106722D01*
X239020Y106344D01*
X240000Y106215D01*
X240980Y106344D01*
X241893Y106722D01*
X242676Y107324D01*
X243278Y108107D01*
X243656Y109020D01*
X243785Y110000D01*
X243656Y110980D01*
X243278Y111893D01*
X242676Y112677D01*
X241893Y113278D01*
X240980Y113656D01*
X240000Y113785D01*
D02*
G37*
G36*
X72000D02*
X71020Y113656D01*
X70107Y113278D01*
X69323Y112677D01*
X68722Y111893D01*
X68344Y110980D01*
X68215Y110000D01*
X68344Y109020D01*
X68722Y108107D01*
X69323Y107324D01*
X70107Y106722D01*
X71020Y106344D01*
X72000Y106215D01*
X72980Y106344D01*
X73893Y106722D01*
X74677Y107324D01*
X75278Y108107D01*
X75656Y109020D01*
X75785Y110000D01*
X75656Y110980D01*
X75278Y111893D01*
X74677Y112677D01*
X73893Y113278D01*
X72980Y113656D01*
X72000Y113785D01*
D02*
G37*
G36*
X279949Y107000D02*
X278000D01*
Y105051D01*
X278475Y105145D01*
X279302Y105698D01*
X279855Y106525D01*
X279949Y107000D01*
D02*
G37*
G36*
X277000D02*
X275050D01*
X275145Y106525D01*
X275698Y105698D01*
X276524Y105145D01*
X277000Y105051D01*
Y107000D01*
D02*
G37*
G36*
X123563Y109500D02*
X120307D01*
Y106047D01*
X123563D01*
Y109500D01*
D02*
G37*
G36*
X22000Y113785D02*
X21020Y113656D01*
X20107Y113278D01*
X19323Y112677D01*
X18722Y111893D01*
X18344Y110980D01*
X18215Y110000D01*
X18344Y109020D01*
X18722Y108107D01*
X19323Y107324D01*
X20107Y106722D01*
X21020Y106344D01*
X22000Y106215D01*
X22980Y106344D01*
X23893Y106722D01*
X24677Y107324D01*
X25278Y108107D01*
X25656Y109020D01*
X25785Y110000D01*
X25656Y110980D01*
X25278Y111893D01*
X24677Y112677D01*
X23893Y113278D01*
X22980Y113656D01*
X22000Y113785D01*
D02*
G37*
G36*
X127819Y109500D02*
X124563D01*
Y106047D01*
X127819D01*
Y109500D01*
D02*
G37*
G36*
X307500Y65450D02*
Y63500D01*
X309450D01*
X309355Y63976D01*
X308802Y64802D01*
X307976Y65355D01*
X307500Y65450D01*
D02*
G37*
G36*
X306500D02*
X306025Y65355D01*
X305198Y64802D01*
X304645Y63976D01*
X304551Y63500D01*
X306500D01*
Y65450D01*
D02*
G37*
G36*
X266000Y73345D02*
X265103Y73167D01*
X264342Y72658D01*
X263833Y71897D01*
X263789Y71673D01*
X256313Y64197D01*
X245950D01*
Y70832D01*
X238050D01*
Y64197D01*
X231687D01*
X231211Y64673D01*
X231167Y64897D01*
X230658Y65658D01*
X229897Y66167D01*
X229000Y66345D01*
X228103Y66167D01*
X227342Y65658D01*
X226833Y64897D01*
X226655Y64000D01*
X226833Y63103D01*
X227342Y62342D01*
X228103Y61834D01*
X228327Y61789D01*
X229401Y60716D01*
X230062Y60273D01*
X230842Y60118D01*
X231019D01*
X231170Y59618D01*
X230698Y59302D01*
X230145Y58476D01*
X230050Y58000D01*
X234949D01*
X234855Y58476D01*
X234302Y59302D01*
X233830Y59618D01*
X233981Y60118D01*
X238050D01*
Y53483D01*
X245950D01*
Y60118D01*
X257157D01*
X257938Y60273D01*
X258599Y60716D01*
X266673Y68789D01*
X266897Y68834D01*
X267658Y69342D01*
X268167Y70103D01*
X268345Y71000D01*
X268167Y71897D01*
X267658Y72658D01*
X266897Y73167D01*
X266000Y73345D01*
D02*
G37*
G36*
X69950Y67000D02*
X68000D01*
Y65051D01*
X68476Y65145D01*
X69302Y65698D01*
X69855Y66524D01*
X69950Y67000D01*
D02*
G37*
G36*
X67000D02*
X65051D01*
X65145Y66524D01*
X65698Y65698D01*
X66524Y65145D01*
X67000Y65051D01*
Y67000D01*
D02*
G37*
G36*
X121563Y53500D02*
X118307D01*
Y50047D01*
X121563D01*
Y53500D01*
D02*
G37*
G36*
X125819D02*
X122563D01*
Y50047D01*
X125819D01*
Y53500D01*
D02*
G37*
G36*
X306500Y62500D02*
X304551D01*
X304645Y62024D01*
X305198Y61198D01*
X306025Y60645D01*
X306500Y60550D01*
Y62500D01*
D02*
G37*
G36*
X177000Y79345D02*
X176103Y79167D01*
X175342Y78658D01*
X174833Y77897D01*
X174655Y77000D01*
X174833Y76103D01*
X174961Y75912D01*
Y75000D01*
X175116Y74220D01*
X175558Y73558D01*
X178495Y70621D01*
X179157Y70179D01*
X179937Y70024D01*
X180247D01*
Y68507D01*
X181961D01*
Y67493D01*
X180247D01*
Y60381D01*
X187753D01*
Y61898D01*
X190218D01*
X191961Y60155D01*
Y55590D01*
X190247Y53876D01*
Y50124D01*
X191961Y48410D01*
Y47588D01*
X191833Y47397D01*
X191655Y46500D01*
X191833Y45603D01*
X192342Y44842D01*
X193103Y44333D01*
X194000Y44155D01*
X194897Y44333D01*
X195658Y44842D01*
X196167Y45603D01*
X196345Y46500D01*
X196167Y47397D01*
X196039Y47588D01*
Y48410D01*
X197749Y50120D01*
X198000Y50122D01*
X198251Y50120D01*
X200124Y48247D01*
X203876D01*
X205753Y50124D01*
Y53876D01*
X205680Y53949D01*
X206570Y54839D01*
X210247D01*
Y52507D01*
X217753D01*
Y54777D01*
X219051D01*
X219342Y54342D01*
X220103Y53834D01*
X221000Y53655D01*
X221897Y53834D01*
X222658Y54342D01*
X223167Y55103D01*
X223345Y56000D01*
X223167Y56897D01*
X222658Y57658D01*
X221897Y58166D01*
X221000Y58345D01*
X220103Y58166D01*
X219342Y57658D01*
X219051Y57223D01*
X217753D01*
Y59619D01*
X210247D01*
Y57287D01*
X206063D01*
X205595Y57193D01*
X205198Y56928D01*
X203949Y55680D01*
X203876Y55753D01*
X200124D01*
X198251Y53880D01*
X198000Y53878D01*
X197749Y53880D01*
X196039Y55590D01*
Y60370D01*
X196367Y60550D01*
X196539Y60592D01*
X197157Y60179D01*
X197937Y60024D01*
X198247Y59676D01*
Y58507D01*
X205753D01*
Y60024D01*
X207063D01*
X207843Y60179D01*
X208505Y60621D01*
X209442Y61558D01*
X209747Y62015D01*
X210247Y61863D01*
Y60381D01*
X217753D01*
Y61961D01*
X219912D01*
X220103Y61834D01*
X221000Y61655D01*
X221897Y61834D01*
X222658Y62342D01*
X223167Y63103D01*
X223345Y64000D01*
X223167Y64897D01*
X222658Y65658D01*
X221897Y66167D01*
X221000Y66345D01*
X220103Y66167D01*
X219912Y66039D01*
X217753D01*
Y67493D01*
X210539D01*
X210247Y67493D01*
X210039Y67907D01*
Y68093D01*
X210247Y68507D01*
X217753D01*
Y75619D01*
X210247D01*
Y74102D01*
X210063D01*
X209283Y73947D01*
X208621Y73505D01*
X206558Y71442D01*
X206453Y71284D01*
X205953Y71436D01*
Y73693D01*
X202500D01*
Y69937D01*
Y66181D01*
X205476Y66181D01*
X205514Y66119D01*
X205235Y65619D01*
X198247D01*
Y65290D01*
X197785Y65099D01*
X195039Y67845D01*
Y68912D01*
X195167Y69103D01*
X195345Y70000D01*
X195167Y70897D01*
X194658Y71658D01*
X193897Y72167D01*
X193000Y72345D01*
X192103Y72167D01*
X191342Y71658D01*
X190833Y70897D01*
X190655Y70000D01*
X190833Y69103D01*
X190961Y68912D01*
Y67000D01*
X191065Y66475D01*
X190743Y66004D01*
X190693Y65976D01*
X187753D01*
Y67493D01*
X186039D01*
Y68507D01*
X187753D01*
Y75619D01*
X180247D01*
Y75290D01*
X179785Y75099D01*
X179039Y75845D01*
Y75912D01*
X179167Y76103D01*
X179345Y77000D01*
X179167Y77897D01*
X178658Y78658D01*
X177897Y79167D01*
X177000Y79345D01*
D02*
G37*
G36*
X309450Y62500D02*
X307500D01*
Y60550D01*
X307976Y60645D01*
X308802Y61198D01*
X309355Y62024D01*
X309450Y62500D01*
D02*
G37*
G36*
X17500Y73658D02*
X13850D01*
Y65284D01*
X17500D01*
Y73658D01*
D02*
G37*
G36*
X53000Y50450D02*
Y48500D01*
X54949D01*
X54855Y48976D01*
X54302Y49802D01*
X53475Y50355D01*
X53000Y50450D01*
D02*
G37*
G36*
X150000Y80345D02*
X149103Y80167D01*
X148342Y79658D01*
X147833Y78897D01*
X147655Y78000D01*
X147833Y77103D01*
X147961Y76912D01*
Y75493D01*
X146247D01*
Y68381D01*
X153753D01*
Y75493D01*
X152039D01*
Y76912D01*
X152167Y77103D01*
X152345Y78000D01*
X152167Y78897D01*
X151658Y79658D01*
X150897Y80167D01*
X150000Y80345D01*
D02*
G37*
G36*
X160000D02*
X159103Y80167D01*
X158342Y79658D01*
X157833Y78897D01*
X157655Y78000D01*
X157833Y77103D01*
X157961Y76912D01*
Y75493D01*
X156247D01*
Y68381D01*
X163753D01*
Y75493D01*
X162039D01*
Y76912D01*
X162167Y77103D01*
X162345Y78000D01*
X162167Y78897D01*
X161658Y79658D01*
X160897Y80167D01*
X160000Y80345D01*
D02*
G37*
G36*
X201500Y73693D02*
X198047D01*
Y70437D01*
X201500D01*
Y73693D01*
D02*
G37*
G36*
X285000Y70450D02*
X284524Y70355D01*
X283698Y69802D01*
X283145Y68976D01*
X283050Y68500D01*
X285000D01*
Y70450D01*
D02*
G37*
G36*
Y67500D02*
X283050D01*
X283145Y67024D01*
X283698Y66198D01*
X284524Y65645D01*
X285000Y65551D01*
Y67500D01*
D02*
G37*
G36*
X22150Y73658D02*
X18500D01*
Y65284D01*
X22150D01*
Y73658D01*
D02*
G37*
G36*
X201500Y69437D02*
X198047D01*
Y66181D01*
X201500D01*
Y69437D01*
D02*
G37*
G36*
X68000Y69950D02*
Y68000D01*
X69950D01*
X69855Y68476D01*
X69302Y69302D01*
X68476Y69855D01*
X68000Y69950D01*
D02*
G37*
G36*
X67000D02*
X66524Y69855D01*
X65698Y69302D01*
X65145Y68476D01*
X65051Y68000D01*
X67000D01*
Y69950D01*
D02*
G37*
G36*
X44949Y57000D02*
X43000D01*
Y55050D01*
X43475Y55145D01*
X44302Y55698D01*
X44855Y56524D01*
X44949Y57000D01*
D02*
G37*
G36*
X42000D02*
X40051D01*
X40145Y56524D01*
X40698Y55698D01*
X41524Y55145D01*
X42000Y55050D01*
Y57000D01*
D02*
G37*
G36*
X112000D02*
X110050D01*
X110145Y56524D01*
X110698Y55698D01*
X111524Y55145D01*
X112000Y55050D01*
Y57000D01*
D02*
G37*
G36*
X232000D02*
X230050D01*
X230145Y56524D01*
X230698Y55698D01*
X231524Y55145D01*
X232000Y55050D01*
Y57000D01*
D02*
G37*
G36*
X114950D02*
X113000D01*
Y55050D01*
X113476Y55145D01*
X114302Y55698D01*
X114855Y56524D01*
X114950Y57000D01*
D02*
G37*
G36*
X121563Y57953D02*
X118307D01*
Y54500D01*
X121563D01*
Y57953D01*
D02*
G37*
G36*
X276950Y70832D02*
X269050D01*
Y64197D01*
X266158D01*
X265377Y64041D01*
X264716Y63599D01*
X264327Y63211D01*
X264103Y63166D01*
X263342Y62658D01*
X262833Y61897D01*
X262655Y61000D01*
X262833Y60103D01*
X263342Y59342D01*
X264103Y58833D01*
X265000Y58655D01*
X265897Y58833D01*
X266658Y59342D01*
X267167Y60103D01*
X267170Y60118D01*
X269050D01*
Y53483D01*
X276950D01*
Y70832D01*
D02*
G37*
G36*
X125819Y57953D02*
X122563D01*
Y54500D01*
X125819D01*
Y57953D01*
D02*
G37*
G36*
X90450Y56500D02*
X88500D01*
Y54550D01*
X88976Y54645D01*
X89802Y55198D01*
X90355Y56024D01*
X90450Y56500D01*
D02*
G37*
G36*
X87500D02*
X85550D01*
X85645Y56024D01*
X86198Y55198D01*
X87024Y54645D01*
X87500Y54550D01*
Y56500D01*
D02*
G37*
G36*
X234949Y57000D02*
X233000D01*
Y55050D01*
X233475Y55145D01*
X234302Y55698D01*
X234855Y56524D01*
X234949Y57000D01*
D02*
G37*
G36*
X317500Y60142D02*
X317187Y60080D01*
X316647Y59719D01*
X316208Y59475D01*
X315585Y59891D01*
X314850Y60038D01*
X314116Y59891D01*
X313608Y59552D01*
X313276Y59506D01*
X312943Y59552D01*
X312435Y59891D01*
X311701Y60038D01*
X310966Y59891D01*
X310344Y59475D01*
X309909D01*
X309286Y59891D01*
X308551Y60038D01*
X307817Y59891D01*
X307309Y59552D01*
X306976Y59506D01*
X306644Y59552D01*
X306136Y59891D01*
X305402Y60038D01*
X304667Y59891D01*
X304159Y59552D01*
X303827Y59506D01*
X303494Y59552D01*
X302987Y59891D01*
X302252Y60038D01*
X301517Y59891D01*
X300895Y59475D01*
X300479Y58853D01*
X300332Y58118D01*
Y53394D01*
X300479Y52659D01*
X300859Y52090D01*
X300513Y51743D01*
X300000Y51845D01*
X299103Y51666D01*
X298342Y51158D01*
X297833Y50397D01*
X297655Y49500D01*
X297833Y48603D01*
X298342Y47842D01*
X299103Y47333D01*
X299417Y47271D01*
X299562Y46792D01*
X299135Y46365D01*
X298870Y45968D01*
X298777Y45500D01*
Y38007D01*
X295013Y34243D01*
X294500Y34345D01*
X293603Y34167D01*
X292842Y33658D01*
X292333Y32897D01*
X292155Y32000D01*
X292333Y31103D01*
X292842Y30342D01*
X293603Y29833D01*
X294500Y29655D01*
X295397Y29833D01*
X296158Y30342D01*
X296667Y31103D01*
X296845Y32000D01*
X296743Y32513D01*
X300865Y36635D01*
X301130Y37032D01*
X301223Y37500D01*
Y44993D01*
X304122Y47892D01*
X304601Y47747D01*
X304645Y47524D01*
X305198Y46698D01*
X306025Y46145D01*
X306500Y46051D01*
Y48500D01*
X307500D01*
Y46051D01*
X307976Y46145D01*
X308802Y46698D01*
X309233Y47342D01*
X309342D01*
X310103Y46833D01*
X311000Y46655D01*
X311897Y46833D01*
X312517Y47247D01*
X312658Y47342D01*
X313010Y47021D01*
X312933Y46907D01*
X312645Y46475D01*
X312550Y46000D01*
X314500D01*
Y47949D01*
X314024Y47855D01*
X313339Y47397D01*
X313198Y47302D01*
X312846Y47623D01*
X312923Y47737D01*
X313167Y48103D01*
X313345Y49000D01*
X313243Y49513D01*
X315292Y51562D01*
X315585Y51620D01*
X316208Y52036D01*
X316647Y51793D01*
X317187Y51432D01*
X317500Y51370D01*
Y55756D01*
Y60142D01*
D02*
G37*
G36*
X187753Y59619D02*
X180247D01*
Y58102D01*
X176994D01*
X176897Y58166D01*
X176000Y58345D01*
X175103Y58166D01*
X174342Y57658D01*
X173833Y56897D01*
X173655Y56000D01*
X173833Y55103D01*
X174342Y54342D01*
X175103Y53834D01*
X176000Y53655D01*
X176897Y53834D01*
X177182Y54024D01*
X180247D01*
Y52507D01*
X187753D01*
Y59619D01*
D02*
G37*
G36*
X163753Y67619D02*
X156247D01*
Y60507D01*
X163753D01*
Y61656D01*
X164253Y61863D01*
X165558Y60558D01*
X166220Y60116D01*
X167000Y59961D01*
X168912D01*
X169103Y59834D01*
X170000Y59655D01*
X170897Y59834D01*
X171658Y60342D01*
X172167Y61103D01*
X172345Y62000D01*
X172167Y62897D01*
X171658Y63658D01*
X170897Y64166D01*
X170000Y64345D01*
X169103Y64166D01*
X168912Y64039D01*
X167845D01*
X166379Y65505D01*
X165717Y65947D01*
X164937Y66102D01*
X163753D01*
Y67619D01*
D02*
G37*
G36*
X133493Y67753D02*
X126381D01*
Y60247D01*
X127898D01*
Y57753D01*
X126381D01*
Y50247D01*
X133493D01*
Y57753D01*
X131976D01*
Y60247D01*
X133493D01*
Y61961D01*
X136247D01*
Y60507D01*
X143753D01*
Y62024D01*
X146247D01*
Y60507D01*
X153753D01*
Y67619D01*
X146247D01*
Y66102D01*
X143753D01*
Y67619D01*
X136247D01*
Y66039D01*
X133493D01*
Y67753D01*
D02*
G37*
G36*
X107217Y65500D02*
X101795D01*
Y60079D01*
X107217D01*
Y65500D01*
D02*
G37*
G36*
X88500Y59449D02*
Y57500D01*
X90450D01*
X90355Y57976D01*
X89802Y58802D01*
X88976Y59355D01*
X88500Y59449D01*
D02*
G37*
G36*
X87500D02*
X87024Y59355D01*
X86198Y58802D01*
X85645Y57976D01*
X85550Y57500D01*
X87500D01*
Y59449D01*
D02*
G37*
G36*
X42000Y59949D02*
X41524Y59855D01*
X40698Y59302D01*
X40145Y58476D01*
X40051Y58000D01*
X42000D01*
Y59949D01*
D02*
G37*
G36*
X113638Y65500D02*
X108217D01*
Y60079D01*
X110959D01*
X111111Y59579D01*
X110698Y59302D01*
X110145Y58476D01*
X110050Y58000D01*
X114950D01*
X114855Y58476D01*
X114302Y59302D01*
X113793Y59643D01*
X113638Y60079D01*
X113638Y60302D01*
Y65500D01*
D02*
G37*
G36*
X43000Y59949D02*
Y58000D01*
X44949D01*
X44855Y58476D01*
X44302Y59302D01*
X43475Y59855D01*
X43000Y59949D01*
D02*
G37*
G36*
X81500Y80500D02*
X79550D01*
X79645Y80024D01*
X80198Y79198D01*
X81024Y78645D01*
X81500Y78550D01*
Y80500D01*
D02*
G37*
G36*
X263000Y79949D02*
Y78000D01*
X264949D01*
X264855Y78475D01*
X264302Y79302D01*
X263475Y79855D01*
X263000Y79949D01*
D02*
G37*
G36*
X328000Y83845D02*
X327103Y83666D01*
X326342Y83158D01*
X325833Y82397D01*
X325655Y81500D01*
X325674Y81404D01*
X322135Y77865D01*
X321870Y77468D01*
X321777Y77000D01*
Y68507D01*
X318921Y65651D01*
X318897Y65667D01*
X318000Y65845D01*
X317103Y65667D01*
X316342Y65158D01*
X315833Y64397D01*
X315655Y63500D01*
X315833Y62603D01*
X316342Y61842D01*
X317103Y61334D01*
X318000Y61155D01*
X318897Y61334D01*
X319658Y61842D01*
X320167Y62603D01*
X320345Y63500D01*
X320326Y63596D01*
X323865Y67135D01*
X324130Y67532D01*
X324223Y68000D01*
Y76493D01*
X327079Y79349D01*
X327103Y79334D01*
X328000Y79155D01*
X328897Y79334D01*
X329658Y79842D01*
X330167Y80603D01*
X330345Y81500D01*
X330167Y82397D01*
X329658Y83158D01*
X328897Y83666D01*
X328000Y83845D01*
D02*
G37*
G36*
X84449Y80500D02*
X82500D01*
Y78550D01*
X82976Y78645D01*
X83802Y79198D01*
X84355Y80024D01*
X84449Y80500D01*
D02*
G37*
G36*
X262000Y79949D02*
X261525Y79855D01*
X260698Y79302D01*
X260145Y78475D01*
X260051Y78000D01*
X262000D01*
Y79949D01*
D02*
G37*
G36*
X222000D02*
X221525Y79855D01*
X220698Y79302D01*
X220145Y78475D01*
X220051Y78000D01*
X222000D01*
Y79949D01*
D02*
G37*
G36*
X235949Y79500D02*
X234000D01*
Y77551D01*
X234475Y77645D01*
X235302Y78198D01*
X235855Y79024D01*
X235949Y79500D01*
D02*
G37*
G36*
X223000Y79949D02*
Y78000D01*
X224950D01*
X224855Y78475D01*
X224302Y79302D01*
X223476Y79855D01*
X223000Y79949D01*
D02*
G37*
G36*
X170500Y86602D02*
X168776D01*
Y83953D01*
X168946Y83102D01*
X169428Y82380D01*
X170149Y81898D01*
X170500Y81828D01*
Y86602D01*
D02*
G37*
G36*
X183500Y83693D02*
X180047D01*
Y80437D01*
X183500D01*
Y83693D01*
D02*
G37*
G36*
X136450Y83000D02*
X134500D01*
Y81050D01*
X134976Y81145D01*
X135802Y81698D01*
X136355Y82525D01*
X136450Y83000D01*
D02*
G37*
G36*
X133500D02*
X131551D01*
X131645Y82525D01*
X132198Y81698D01*
X133025Y81145D01*
X133500Y81050D01*
Y83000D01*
D02*
G37*
G36*
X81500Y83450D02*
X81024Y83355D01*
X80198Y82802D01*
X79645Y81976D01*
X79550Y81500D01*
X81500D01*
Y83450D01*
D02*
G37*
G36*
X82500D02*
Y81500D01*
X84449D01*
X84355Y81976D01*
X83802Y82802D01*
X82976Y83355D01*
X82500Y83450D01*
D02*
G37*
G36*
X234000Y82450D02*
Y80500D01*
X235949D01*
X235855Y80976D01*
X235302Y81802D01*
X234475Y82355D01*
X234000Y82450D01*
D02*
G37*
G36*
X193563Y83953D02*
X190307D01*
Y80500D01*
X193563D01*
Y83953D01*
D02*
G37*
G36*
X187953Y83693D02*
X184500D01*
Y80437D01*
X187953D01*
Y83693D01*
D02*
G37*
G36*
X233000Y82450D02*
X232524Y82355D01*
X231698Y81802D01*
X231145Y80976D01*
X231050Y80500D01*
X233000D01*
Y82450D01*
D02*
G37*
G36*
X197819Y83953D02*
X194563D01*
Y80500D01*
X197819D01*
Y83953D01*
D02*
G37*
G36*
X233000Y79500D02*
X231050D01*
X231145Y79024D01*
X231698Y78198D01*
X232524Y77645D01*
X233000Y77551D01*
Y79500D01*
D02*
G37*
G36*
X22150Y83031D02*
X18500D01*
Y74657D01*
X22150D01*
Y83031D01*
D02*
G37*
G36*
X17500D02*
X13850D01*
Y74657D01*
X17500D01*
Y83031D01*
D02*
G37*
G36*
X224950Y77000D02*
X223000D01*
Y75050D01*
X223476Y75145D01*
X224302Y75698D01*
X224855Y76525D01*
X224950Y77000D01*
D02*
G37*
G36*
X222000D02*
X220051D01*
X220145Y76525D01*
X220698Y75698D01*
X221525Y75145D01*
X222000Y75050D01*
Y77000D01*
D02*
G37*
G36*
X277150Y81343D02*
X273500D01*
Y72969D01*
X277150D01*
Y81343D01*
D02*
G37*
G36*
X166000Y92272D02*
X165227Y92118D01*
X164572Y91680D01*
X164134Y91025D01*
X163980Y90252D01*
Y83953D01*
X164134Y83180D01*
X164572Y82525D01*
X165227Y82087D01*
X166000Y81933D01*
X166773Y82087D01*
X167428Y82525D01*
X167866Y83180D01*
X168020Y83953D01*
Y90252D01*
X167866Y91025D01*
X167428Y91680D01*
X166773Y92118D01*
X166000Y92272D01*
D02*
G37*
G36*
X52000Y50450D02*
X51525Y50355D01*
X50698Y49802D01*
X50145Y48976D01*
X50050Y48500D01*
X52000D01*
Y50450D01*
D02*
G37*
G36*
X272500Y81343D02*
X268850D01*
Y72969D01*
X272500D01*
Y81343D01*
D02*
G37*
G36*
X246150D02*
X242500D01*
Y72969D01*
X246150D01*
Y81343D01*
D02*
G37*
G36*
X241500D02*
X237850D01*
Y72969D01*
X241500D01*
Y81343D01*
D02*
G37*
G36*
X183500Y79437D02*
X180047D01*
Y76181D01*
X183500D01*
Y79437D01*
D02*
G37*
G36*
X197819Y79500D02*
X194563D01*
Y76047D01*
X197819D01*
Y79500D01*
D02*
G37*
G36*
X205493Y83753D02*
X198381D01*
Y76247D01*
X205493D01*
Y77961D01*
X206912D01*
X207103Y77833D01*
X208000Y77655D01*
X208897Y77833D01*
X208994Y77898D01*
X210247D01*
Y76381D01*
X217753D01*
Y83493D01*
X210247D01*
Y81976D01*
X209182D01*
X208897Y82166D01*
X208000Y82345D01*
X207103Y82166D01*
X206912Y82039D01*
X205493D01*
Y83753D01*
D02*
G37*
G36*
X187953Y79437D02*
X184500D01*
Y76181D01*
X187953D01*
Y79437D01*
D02*
G37*
G36*
X193563Y79500D02*
X190307D01*
Y76047D01*
X193563D01*
Y79500D01*
D02*
G37*
G36*
X262000Y77000D02*
X260051D01*
X260145Y76525D01*
X260698Y75698D01*
X261525Y75145D01*
X262000Y75050D01*
Y77000D01*
D02*
G37*
G36*
X173224Y86602D02*
X171500D01*
Y81828D01*
X171851Y81898D01*
X172573Y82380D01*
X173055Y83102D01*
X173224Y83953D01*
Y86602D01*
D02*
G37*
G36*
X140000Y80345D02*
X139103Y80167D01*
X138912Y80039D01*
X135000D01*
X134220Y79884D01*
X133558Y79442D01*
X130155Y76039D01*
X67088D01*
X66897Y76166D01*
X66000Y76345D01*
X65103Y76166D01*
X64342Y75658D01*
X63833Y74897D01*
X63655Y74000D01*
X63833Y73103D01*
X64342Y72342D01*
X65103Y71833D01*
X66000Y71655D01*
X66897Y71833D01*
X67088Y71961D01*
X83878D01*
X84279Y71721D01*
X84279Y71461D01*
Y68039D01*
X81088D01*
X80897Y68167D01*
X80000Y68345D01*
X79103Y68167D01*
X78342Y67658D01*
X77833Y66897D01*
X77789Y66673D01*
X69135Y58019D01*
X64234Y62919D01*
X53081Y51766D01*
X64234Y40612D01*
X75388Y51766D01*
X72019Y55135D01*
X80673Y63789D01*
X80897Y63833D01*
X81088Y63961D01*
X84279D01*
Y60279D01*
X95721D01*
Y71461D01*
X95721Y71721D01*
X96122Y71961D01*
X101312D01*
X101795Y71921D01*
X101795Y71461D01*
Y66500D01*
X107717D01*
X113638D01*
Y71461D01*
X113638Y71921D01*
X114121Y71961D01*
X119963D01*
X120210Y71461D01*
X119833Y70897D01*
X119655Y70000D01*
X119833Y69103D01*
X119961Y68912D01*
Y67753D01*
X118507D01*
Y60247D01*
X125619D01*
Y67753D01*
X124039D01*
Y68912D01*
X124167Y69103D01*
X124345Y70000D01*
X124167Y70897D01*
X123790Y71461D01*
X124037Y71961D01*
X130737D01*
X131160Y71527D01*
X131155Y71500D01*
X131333Y70603D01*
X131842Y69842D01*
X132603Y69333D01*
X133500Y69155D01*
X134397Y69333D01*
X134588Y69461D01*
X136247D01*
Y68381D01*
X143753D01*
Y75493D01*
X141288D01*
X141136Y75993D01*
X141658Y76342D01*
X142167Y77103D01*
X142345Y78000D01*
X142167Y78897D01*
X141658Y79658D01*
X140897Y80167D01*
X140000Y80345D01*
D02*
G37*
G36*
X264949Y77000D02*
X263000D01*
Y75050D01*
X263475Y75145D01*
X264302Y75698D01*
X264855Y76525D01*
X264949Y77000D01*
D02*
G37*
%LPD*%
G36*
X300404Y102967D02*
X300332Y102606D01*
Y97882D01*
X300479Y97147D01*
X300895Y96525D01*
X301517Y96109D01*
X302252Y95962D01*
X302987Y96109D01*
X303494Y96448D01*
X303695Y96476D01*
X304178Y96165D01*
Y93780D01*
X303678Y93629D01*
X303658Y93658D01*
X302897Y94166D01*
X302000Y94345D01*
X301103Y94166D01*
X300514Y93773D01*
X300010Y93963D01*
X299992Y93980D01*
X299892Y94483D01*
X299476Y95105D01*
X298853Y95521D01*
X298118Y95668D01*
X296979D01*
Y100249D01*
X299943Y103213D01*
X300404Y102967D01*
D02*
G37*
G36*
X338757Y106513D02*
X338655Y106000D01*
X338833Y105103D01*
X339342Y104342D01*
X340103Y103833D01*
X341000Y103655D01*
X341897Y103833D01*
X342658Y104342D01*
X343167Y105103D01*
X343345Y106000D01*
X343291Y106272D01*
X343752Y106518D01*
X350777Y99493D01*
Y98000D01*
X350870Y97532D01*
X351135Y97135D01*
X352546Y95723D01*
X352339Y95223D01*
X349000D01*
X348532Y95130D01*
X348135Y94865D01*
X345092Y91822D01*
X344053D01*
X343964Y91956D01*
Y92391D01*
X344380Y93014D01*
X344526Y93748D01*
X344380Y94483D01*
X343964Y95105D01*
X343341Y95521D01*
X342606Y95668D01*
X337882D01*
X337147Y95521D01*
X336525Y95105D01*
X336435Y94972D01*
X334355D01*
X334164Y95433D01*
X334613Y95883D01*
X334878Y96280D01*
X334900Y96387D01*
X335105Y96525D01*
X335522Y97147D01*
X335668Y97882D01*
Y102606D01*
X335596Y102967D01*
X336057Y103213D01*
X338757Y100513D01*
X338655Y100000D01*
X338833Y99103D01*
X339342Y98342D01*
X340103Y97834D01*
X341000Y97655D01*
X341897Y97834D01*
X342658Y98342D01*
X343054Y98934D01*
X343584Y98832D01*
X343645Y98524D01*
X344198Y97698D01*
X345024Y97145D01*
X345500Y97050D01*
Y99500D01*
Y101950D01*
X345024Y101855D01*
X344198Y101302D01*
X343734Y100608D01*
X343212Y100668D01*
X343167Y100897D01*
X342658Y101658D01*
X341897Y102166D01*
X341000Y102345D01*
X340487Y102243D01*
X336865Y105865D01*
X336468Y106130D01*
X336000Y106223D01*
X325000D01*
X324532Y106130D01*
X324135Y105865D01*
X323434Y105164D01*
X323169Y104767D01*
X323076Y104299D01*
X322592Y104013D01*
X322392Y104041D01*
X321884Y104380D01*
X321150Y104526D01*
X320415Y104380D01*
X319792Y103964D01*
X319353Y104207D01*
X318813Y104568D01*
X318500Y104630D01*
Y100244D01*
X317500D01*
Y104630D01*
X317187Y104568D01*
X316647Y104207D01*
X316564Y104161D01*
X316280Y104244D01*
X316074Y104372D01*
Y105844D01*
X317807Y107577D01*
X337693D01*
X338757Y106513D01*
D02*
G37*
G36*
X369777Y61447D02*
Y56663D01*
X369276Y56494D01*
X369094Y56732D01*
X368310Y57333D01*
X367397Y57711D01*
X366417Y57840D01*
X365438Y57711D01*
X364525Y57333D01*
X363741Y56732D01*
X363139Y55948D01*
X362761Y55035D01*
X362632Y54055D01*
X362761Y53075D01*
X363038Y52406D01*
X360855Y50223D01*
X358280D01*
X358180Y50723D01*
X358310Y50777D01*
X359094Y51379D01*
X359695Y52163D01*
X360073Y53075D01*
X360202Y54055D01*
X360073Y55035D01*
X359695Y55948D01*
X359094Y56732D01*
X358384Y57276D01*
X358415Y57556D01*
X358520Y57776D01*
X361362D01*
X361830Y57870D01*
X362227Y58135D01*
X364769Y60676D01*
X365438Y60399D01*
X366417Y60270D01*
X367397Y60399D01*
X368310Y60777D01*
X369094Y61379D01*
X369276Y61617D01*
X369777Y61447D01*
D02*
G37*
G36*
X344206Y60455D02*
X343833Y59897D01*
X343655Y59000D01*
X343833Y58103D01*
X344342Y57342D01*
X344479Y57250D01*
Y56750D01*
X344342Y56658D01*
X343833Y55897D01*
X343655Y55000D01*
X343833Y54103D01*
X344342Y53342D01*
X345103Y52833D01*
X345655Y52723D01*
X345606Y52223D01*
X335832D01*
X335585Y52570D01*
X335534Y52723D01*
X335668Y53394D01*
Y57895D01*
X336168Y58102D01*
X337751Y56519D01*
X337833Y56103D01*
X338342Y55342D01*
X339103Y54834D01*
X340000Y54655D01*
X340897Y54834D01*
X341658Y55342D01*
X342167Y56103D01*
X342345Y57000D01*
X342167Y57897D01*
X341658Y58658D01*
X340897Y59167D01*
X340000Y59345D01*
X339103Y59167D01*
X338780Y58951D01*
X337898Y59832D01*
X338105Y60332D01*
X342606D01*
X343341Y60479D01*
X343846Y60816D01*
X344206Y60455D01*
D02*
G37*
G36*
X360277Y82259D02*
Y81000D01*
X360370Y80532D01*
X360635Y80135D01*
X362635Y78135D01*
X363032Y77870D01*
X363500Y77776D01*
X364315D01*
X364420Y77556D01*
X364451Y77276D01*
X363741Y76732D01*
X363139Y75948D01*
X362761Y75035D01*
X362632Y74055D01*
X362761Y73075D01*
X363139Y72163D01*
X363741Y71379D01*
X364525Y70777D01*
X365438Y70399D01*
X366417Y70270D01*
X367397Y70399D01*
X368310Y70777D01*
X369094Y71379D01*
X369276Y71617D01*
X369777Y71447D01*
Y66663D01*
X369276Y66493D01*
X369094Y66732D01*
X368310Y67333D01*
X367397Y67711D01*
X366417Y67840D01*
X365438Y67711D01*
X364525Y67333D01*
X363741Y66732D01*
X363139Y65948D01*
X362761Y65035D01*
X362632Y64055D01*
X362761Y63076D01*
X363038Y62406D01*
X360855Y60224D01*
X358280D01*
X358180Y60724D01*
X358310Y60777D01*
X359094Y61379D01*
X359695Y62163D01*
X360073Y63076D01*
X360202Y64055D01*
X360073Y65035D01*
X359695Y65948D01*
X359094Y66732D01*
X358310Y67333D01*
X357397Y67711D01*
X356417Y67840D01*
X355438Y67711D01*
X354525Y67333D01*
X353741Y66732D01*
X353139Y65948D01*
X352845Y65237D01*
X352587Y65185D01*
X352190Y64920D01*
X347904Y60634D01*
X347658Y60658D01*
X346897Y61167D01*
X346000Y61345D01*
X345103Y61167D01*
X344460Y60737D01*
X344099Y61097D01*
X344380Y61517D01*
X344526Y62252D01*
X344380Y62986D01*
X343964Y63609D01*
Y64044D01*
X344380Y64667D01*
X344526Y65402D01*
X344380Y66136D01*
X343964Y66759D01*
Y67194D01*
X344380Y67817D01*
X344526Y68551D01*
X344380Y69286D01*
X343964Y69908D01*
Y70344D01*
X344153Y70626D01*
X344815Y70785D01*
X345024Y70645D01*
X345500Y70551D01*
Y73000D01*
X346500D01*
Y70551D01*
X346776Y70605D01*
X347247Y70353D01*
X347320Y70274D01*
X347345Y70075D01*
X347135Y69865D01*
X346870Y69468D01*
X346777Y69000D01*
Y66949D01*
X346342Y66658D01*
X345833Y65897D01*
X345655Y65000D01*
X345833Y64103D01*
X346342Y63342D01*
X347103Y62833D01*
X348000Y62655D01*
X348897Y62833D01*
X349658Y63342D01*
X350167Y64103D01*
X350345Y65000D01*
X350270Y65376D01*
X350624Y65730D01*
X351000Y65655D01*
X351897Y65833D01*
X352658Y66342D01*
X353167Y67103D01*
X353345Y68000D01*
X353167Y68897D01*
X352658Y69658D01*
X351897Y70166D01*
X351624Y70221D01*
Y76465D01*
X352085Y76657D01*
X353038Y75704D01*
X352761Y75035D01*
X352632Y74055D01*
X352761Y73075D01*
X353139Y72163D01*
X353741Y71379D01*
X354525Y70777D01*
X355438Y70399D01*
X356417Y70270D01*
X357397Y70399D01*
X358310Y70777D01*
X359094Y71379D01*
X359695Y72163D01*
X360073Y73075D01*
X360202Y74055D01*
X360073Y75035D01*
X359695Y75948D01*
X359094Y76732D01*
X358310Y77333D01*
X357397Y77711D01*
X356417Y77840D01*
X355438Y77711D01*
X354769Y77434D01*
X353223Y78979D01*
Y81275D01*
X353697Y81436D01*
X353741Y81379D01*
X354525Y80777D01*
X355438Y80399D01*
X356417Y80270D01*
X357397Y80399D01*
X358310Y80777D01*
X359094Y81379D01*
X359695Y82163D01*
X359776Y82358D01*
X360277Y82259D01*
D02*
G37*
%LPC*%
G36*
X346500Y101950D02*
Y100000D01*
X348449D01*
X348355Y100476D01*
X347802Y101302D01*
X346975Y101855D01*
X346500Y101950D01*
D02*
G37*
G36*
X348449Y99000D02*
X346500D01*
Y97050D01*
X346975Y97145D01*
X347802Y97698D01*
X348355Y98524D01*
X348449Y99000D01*
D02*
G37*
%LPD*%
G36*
X109647Y113277D02*
X108247Y111876D01*
Y108124D01*
X110124Y106247D01*
X110776D01*
Y105224D01*
X98507D01*
X95379Y108351D01*
X95656Y109020D01*
X95785Y110000D01*
X95656Y110980D01*
X95278Y111893D01*
X94677Y112677D01*
X93893Y113278D01*
X93996Y113777D01*
X99607D01*
X99777Y113277D01*
X99181Y112819D01*
X98547Y111993D01*
X98149Y111032D01*
X98079Y110500D01*
X105921D01*
X105851Y111032D01*
X105453Y111993D01*
X104819Y112819D01*
X104223Y113277D01*
X104393Y113777D01*
X109440D01*
X109647Y113277D01*
D02*
G37*
%LPC*%
G36*
X105921Y109500D02*
X102500D01*
Y106079D01*
X103032Y106149D01*
X103993Y106547D01*
X104819Y107181D01*
X105453Y108007D01*
X105851Y108968D01*
X105921Y109500D01*
D02*
G37*
G36*
X101500D02*
X98079D01*
X98149Y108968D01*
X98547Y108007D01*
X99181Y107181D01*
X100007Y106547D01*
X100968Y106149D01*
X101500Y106079D01*
Y109500D01*
D02*
G37*
%LPD*%
D10*
X130000Y92063D02*
D03*
Y99937D02*
D03*
X140000Y71937D02*
D03*
Y64063D02*
D03*
X150000Y71937D02*
D03*
Y64063D02*
D03*
X160000D02*
D03*
Y71937D02*
D03*
X184000Y63937D02*
D03*
Y56063D02*
D03*
Y72063D02*
D03*
Y79937D02*
D03*
X214000D02*
D03*
Y72063D02*
D03*
X202000Y62063D02*
D03*
Y69937D02*
D03*
X214000Y56063D02*
D03*
Y63937D02*
D03*
X183000Y104063D02*
D03*
Y111937D02*
D03*
D11*
X8000Y60000D02*
D03*
X23000Y58000D02*
D03*
X112000Y110000D02*
D03*
X132000Y30000D02*
D03*
X202000Y52000D02*
D03*
D12*
X35433Y40846D02*
D03*
Y14272D02*
D03*
D13*
X64234Y51766D02*
D03*
X103766Y12234D02*
D03*
D14*
X18000Y93843D02*
D03*
Y74158D02*
D03*
X150000Y29842D02*
D03*
Y10158D02*
D03*
X230000Y29842D02*
D03*
Y10158D02*
D03*
X242000Y62157D02*
D03*
Y81842D02*
D03*
X273000Y62157D02*
D03*
Y81842D02*
D03*
D15*
X94157Y88000D02*
D03*
X113842D02*
D03*
D16*
X90000Y66000D02*
D03*
X107717D02*
D03*
D17*
X131937Y110000D02*
D03*
X124063D02*
D03*
X129937Y54000D02*
D03*
X122063D02*
D03*
Y64000D02*
D03*
X129937D02*
D03*
X201937Y80000D02*
D03*
X194063D02*
D03*
D18*
X141000Y87102D02*
D03*
X146000D02*
D03*
X151000D02*
D03*
X156000D02*
D03*
X161000D02*
D03*
X166000D02*
D03*
X171000D02*
D03*
X141000Y106000D02*
D03*
X146000D02*
D03*
X151000D02*
D03*
X156000D02*
D03*
X161000D02*
D03*
X166000D02*
D03*
X171000D02*
D03*
D19*
X122000Y30000D02*
D03*
X194000Y52000D02*
D03*
X288000Y109000D02*
D03*
X340000Y31000D02*
D03*
D20*
X191571Y111740D02*
D03*
Y104260D02*
D03*
X200429Y108000D02*
D03*
D21*
X333748Y100244D02*
D03*
X330598D02*
D03*
X327449D02*
D03*
X324299D02*
D03*
X321150D02*
D03*
X318000D02*
D03*
X314850D02*
D03*
X311701D02*
D03*
X308551D02*
D03*
X305402D02*
D03*
X302252D02*
D03*
Y55756D02*
D03*
X305402D02*
D03*
X308551D02*
D03*
X311701D02*
D03*
X314850D02*
D03*
X318000D02*
D03*
X321150D02*
D03*
X324299D02*
D03*
X327449D02*
D03*
X330598D02*
D03*
X333748D02*
D03*
D22*
X295756Y93748D02*
D03*
Y90598D02*
D03*
Y87449D02*
D03*
Y84299D02*
D03*
Y81150D02*
D03*
Y78000D02*
D03*
Y74850D02*
D03*
Y71701D02*
D03*
Y68551D02*
D03*
Y65402D02*
D03*
Y62252D02*
D03*
X340244D02*
D03*
Y65402D02*
D03*
Y68551D02*
D03*
Y71701D02*
D03*
Y74850D02*
D03*
Y78000D02*
D03*
Y81150D02*
D03*
Y84299D02*
D03*
Y87449D02*
D03*
Y90598D02*
D03*
Y93748D02*
D03*
D23*
X102500Y50000D02*
X110500Y42000D01*
X87000Y50000D02*
X102500D01*
X81000Y56000D02*
X87000Y50000D01*
X110500Y42000D02*
X157000D01*
X194000Y46500D02*
Y52000D01*
X321000Y25000D02*
X325000Y21000D01*
X308000Y25000D02*
X321000D01*
X131000Y74000D02*
X135000Y78000D01*
X66000Y74000D02*
X131000D01*
X135000Y78000D02*
X140000D01*
X200000Y26000D02*
Y36500D01*
X157000Y42000D02*
X162500Y36500D01*
X23705Y26000D02*
X35433Y14272D01*
X14000Y26000D02*
X23705D01*
X28000Y29000D02*
X47000D01*
X25000Y32000D02*
X28000Y29000D01*
X25000Y32000D02*
Y38000D01*
X325000Y13000D02*
Y21000D01*
Y13000D02*
X330000Y8000D01*
X176063Y56063D02*
X184000D01*
X150000Y71937D02*
Y78000D01*
X271000Y25000D02*
X308000D01*
Y38000D01*
X254000Y8000D02*
X271000Y25000D01*
X167000Y62000D02*
X170000D01*
X164937Y64063D02*
X167000Y62000D01*
X160000Y64063D02*
X164937D01*
X140000D02*
X150000D01*
X139937Y64000D02*
X140000Y64063D01*
X129937Y64000D02*
X139937D01*
X129937Y54000D02*
Y64000D01*
X122000Y64063D02*
X122063Y64000D01*
X122000Y64063D02*
Y70000D01*
X150000Y29842D02*
X161557D01*
X166200Y25200D01*
X223843Y29842D02*
X230000D01*
X220000Y26000D02*
X223843Y29842D01*
X200000Y26000D02*
X220000D01*
X257157Y62157D02*
X266000Y71000D01*
X242000Y62157D02*
X257157D01*
X230842D02*
X242000D01*
X137000Y96000D02*
X141000Y100000D01*
Y106000D01*
X139000D02*
X141000D01*
X135000Y110000D02*
X139000Y106000D01*
X131937Y110000D02*
X135000D01*
X138898Y87102D02*
X141000D01*
X133937Y92063D02*
X138898Y87102D01*
X130000Y92063D02*
X133937D01*
X8000Y32000D02*
X14000Y26000D01*
X18000Y93843D02*
X19842Y92000D01*
X48000D01*
X124937Y92063D02*
X130000D01*
X80000Y88000D02*
X94157D01*
X68000Y92000D02*
X76000D01*
X80000Y88000D01*
X123000Y94000D02*
X124937Y92063D01*
X62000Y110000D02*
X62525D01*
X78526Y94000D01*
X123000D01*
X37279Y39000D02*
X48000D01*
X35433Y40846D02*
X37279Y39000D01*
X47000Y29000D02*
X48000Y30000D01*
X108000Y8000D02*
X128000D01*
X103766Y12234D02*
X108000Y8000D01*
X80000Y66000D02*
X90000D01*
X229000Y64000D02*
X230842Y62157D01*
X176000Y56000D02*
X176063Y56063D01*
X184000Y63937D02*
Y72063D01*
Y63937D02*
X191063D01*
X194000Y61000D01*
Y52000D02*
Y61000D01*
X214063Y64000D02*
X221000D01*
X214000Y63937D02*
X214063Y64000D01*
X207063Y62063D02*
X208000Y63000D01*
X202000Y62063D02*
X207063D01*
X197937D02*
X202000D01*
X193000Y67000D02*
X197937Y62063D01*
X193000Y67000D02*
Y70000D01*
X208000Y63000D02*
Y70000D01*
X210063Y72063D01*
X214000D01*
X208063Y79937D02*
X214000D01*
X208000Y80000D02*
X208063Y79937D01*
X201937Y80000D02*
X208000D01*
X177000Y75000D02*
Y77000D01*
Y75000D02*
X179937Y72063D01*
X184000D01*
X160000Y71937D02*
Y78000D01*
X132000Y22000D02*
Y30000D01*
X128000Y18000D02*
X132000Y22000D01*
X65766Y51766D02*
X80000Y66000D01*
X64234Y51766D02*
X65766D01*
X265000Y61000D02*
X266158Y62157D01*
X273000D01*
X133500Y71500D02*
X139563D01*
X140000Y71937D01*
D24*
X346000Y73000D02*
Y76500D01*
X344500Y78000D02*
X346000Y76500D01*
X340244Y78000D02*
X344500D01*
D25*
X348800Y69800D02*
Y79200D01*
X346850Y81150D02*
X348800Y79200D01*
X341000Y81150D02*
X346850D01*
X348000Y69000D02*
X348800Y69800D01*
X348000Y65000D02*
Y69000D01*
X300000Y37500D02*
Y45500D01*
X294500Y32000D02*
X300000Y37500D01*
X23000Y49000D02*
Y58000D01*
X310103Y43500D02*
X313000Y40603D01*
X305000Y43500D02*
X310103D01*
X313000Y30000D02*
Y40603D01*
X302252Y51752D02*
Y55756D01*
X300000Y49500D02*
X302252Y51752D01*
X329384Y31000D02*
X340000D01*
X328384Y32000D02*
X329384Y31000D01*
X324000Y32000D02*
X328384D01*
X324600Y27400D02*
X330000Y22000D01*
X315600Y27400D02*
X324600D01*
X313000Y30000D02*
X315600Y27400D01*
X340000Y32000D02*
Y36500D01*
X323000Y68000D02*
Y77000D01*
X327500Y81500D02*
X328000D01*
X323000Y77000D02*
X327500Y81500D01*
X340000Y100000D02*
X341000D01*
X318463Y90200D02*
X324299Y96036D01*
Y100244D01*
X318500Y63500D02*
X323000Y68000D01*
X318000Y63500D02*
X318500D01*
X330600Y45400D02*
X337418D01*
X324299Y51701D02*
X330600Y45400D01*
X337418D02*
X341818Y41000D01*
X324299Y51701D02*
Y55756D01*
X332000Y47000D02*
X340000D01*
X327449Y51551D02*
X332000Y47000D01*
X327449Y51551D02*
Y55756D01*
X340000Y47000D02*
X343000Y44000D01*
X174000Y113000D02*
X178500Y108500D01*
Y101157D02*
Y108500D01*
Y101157D02*
X180657Y99000D01*
X256000D01*
X116000Y104000D02*
X120500Y99500D01*
X112000Y104000D02*
X116000D01*
X327600Y30400D02*
X340000Y18000D01*
X318600Y30400D02*
X327600D01*
X318000Y31000D02*
X318600Y30400D01*
X318000Y38000D02*
X324000Y32000D01*
X330000Y18000D02*
Y22000D01*
X335000Y51000D02*
X348000D01*
X351055Y54055D01*
X350263Y59000D02*
X361362D01*
X346263Y55000D02*
X350263Y59000D01*
X346000Y55000D02*
X346263D01*
X333000Y49000D02*
X361362D01*
X330598Y51402D02*
X333000Y49000D01*
X361362D02*
X366417Y54055D01*
X333748Y52252D02*
X335000Y51000D01*
X333748Y52252D02*
Y55756D01*
X330598Y51402D02*
Y55756D01*
X341818Y41000D02*
X346000D01*
X353055Y64055D02*
X356417D01*
X348000Y59000D02*
X353055Y64055D01*
X346000Y59000D02*
X348000D01*
X352000Y98000D02*
Y100000D01*
Y98000D02*
X353700Y96300D01*
X358300D01*
X359000Y97000D01*
X355000Y99000D02*
Y100000D01*
X345449Y87449D02*
X349700Y91700D01*
X340244Y87449D02*
X345449D01*
X345598Y90598D02*
X349000Y94000D01*
X340244Y90598D02*
X345598D01*
X355300Y91700D02*
X356000Y91000D01*
X352000Y78472D02*
Y89000D01*
Y78472D02*
X356417Y74055D01*
X350400Y68600D02*
X351000Y68000D01*
X350400Y68600D02*
Y80863D01*
X349700Y91700D02*
X355300D01*
X346964Y84299D02*
X350400Y80863D01*
X340244Y84299D02*
X346964D01*
X290150Y81150D02*
X295756D01*
X287701Y84299D02*
X295756D01*
X281000Y91000D02*
X287701Y84299D01*
X289449Y87449D02*
X295756D01*
X286402Y90598D02*
X288000Y92197D01*
X286402Y90598D02*
X295756D01*
X288000Y92197D02*
Y103000D01*
Y109000D01*
X343000Y112000D02*
X355000Y100000D01*
X307000Y112000D02*
X343000D01*
X268000Y95182D02*
Y100000D01*
X260000Y91000D02*
X263000Y94000D01*
X262218Y89400D02*
X268000Y95182D01*
X255337Y89400D02*
X262218D01*
X259000Y94000D02*
Y96000D01*
X253600Y97400D02*
X255000Y96000D01*
X212400Y100600D02*
X256663D01*
X256000Y91000D02*
X260000D01*
X295756Y43244D02*
Y62252D01*
X351055Y54055D02*
X356417D01*
X361362Y59000D02*
X366417Y64055D01*
X301598Y65402D02*
X302000Y65000D01*
X310000Y106000D02*
X311701Y104299D01*
Y100244D02*
Y104299D01*
X295756Y65402D02*
X301598D01*
X311000Y49000D02*
X314850Y52850D01*
X321150Y95150D02*
Y100244D01*
X321000Y87000D02*
X330598Y96598D01*
Y100244D01*
X321150Y47150D02*
Y55756D01*
X319600Y88600D02*
X327449Y96449D01*
Y100244D01*
X322000Y85000D02*
X333748Y96748D01*
Y100244D01*
X305402Y90598D02*
Y100244D01*
X313000Y72000D02*
X317000Y76000D01*
X305000Y72000D02*
X313000D01*
X299000Y78000D02*
X305000Y72000D01*
X295756Y78000D02*
X299000D01*
X322663Y83400D02*
X333011Y93748D01*
X340244D01*
X336150Y74850D02*
X340244D01*
X335000Y76000D02*
X336150Y74850D01*
X332000Y76000D02*
X335000D01*
X302252Y100244D02*
Y104252D01*
X295756Y100756D02*
X307000Y112000D01*
X295756Y93748D02*
Y100756D01*
X324299Y100244D02*
Y104299D01*
X336701Y71701D02*
X340244D01*
X334000Y69000D02*
X336701Y71701D01*
X334000Y62000D02*
Y69000D01*
Y62000D02*
X339000Y57000D01*
X340000D01*
X8000Y49000D02*
Y60000D01*
X206063Y56063D02*
X214000D01*
X202000Y52000D02*
X206063Y56063D01*
X214000D02*
X214063Y56000D01*
X146000Y87102D02*
Y94000D01*
X151000Y87102D02*
Y94000D01*
X156000Y87102D02*
Y94000D01*
X161000Y87102D02*
Y94000D01*
X149000Y113000D02*
X174000D01*
X146000Y110000D02*
X149000Y113000D01*
X146000Y106000D02*
Y110000D01*
X151000Y102000D02*
X156200Y96800D01*
X151000Y102000D02*
Y106000D01*
X156000Y104000D02*
X161600Y98400D01*
X156000Y104000D02*
Y106000D01*
X163000Y100000D02*
X165500D01*
X161000Y102000D02*
X163000Y100000D01*
X161000Y102000D02*
Y106000D01*
X171000D02*
X175000D01*
X178063Y111937D02*
X182000D01*
X175000Y115000D02*
X178063Y111937D01*
X87000Y115000D02*
X175000D01*
X171000Y104000D02*
Y106000D01*
X92000Y110000D02*
X98000Y104000D01*
X112000D02*
Y110000D01*
X98000Y104000D02*
X112000D01*
X82000Y110000D02*
X87000Y115000D01*
X182000Y111937D02*
X182197Y111740D01*
X122000Y23000D02*
Y30000D01*
Y37000D01*
X214063Y56000D02*
X221000D01*
X308551Y92449D02*
Y100244D01*
Y92449D02*
X310000Y91000D01*
X314000Y92000D02*
X318000D01*
X321150Y95150D01*
X317607Y85000D02*
X322000D01*
X318269Y83400D02*
X322663D01*
X316681Y88600D02*
X319600D01*
X317344Y87000D02*
X321000D01*
X309869Y75000D02*
X318269Y83400D01*
X310607Y78000D02*
X317607Y85000D01*
X311344Y81000D02*
X317344Y87000D01*
X313081Y85000D02*
X316681Y88600D01*
X303000Y85000D02*
X313081D01*
X306000Y81000D02*
X311344D01*
X303000Y78000D02*
X310607D01*
X306000Y75000D02*
X309869D01*
X316018Y90200D02*
X318463D01*
X312818Y87000D02*
X316018Y90200D01*
X305402Y90598D02*
X306000Y90000D01*
X305182Y87000D02*
X312818D01*
X302000Y90182D02*
X305182Y87000D01*
X302000Y90182D02*
Y92000D01*
X200429Y108000D02*
X205000D01*
X165500Y100000D02*
X168100Y97400D01*
X253600D01*
X256000Y99000D02*
X259000Y96000D01*
X251200Y95800D02*
X256000Y91000D01*
X250537Y94200D02*
X255337Y89400D01*
X205000Y108000D02*
X212400Y100600D01*
X257263Y100000D02*
X262000D01*
X256663Y100600D02*
X257263Y100000D01*
X167437Y95800D02*
X251200D01*
X164837Y98400D02*
X167437Y95800D01*
X161600Y98400D02*
X164837D01*
X156200Y96800D02*
X164174D01*
X166774Y94200D01*
X250537D01*
X314850Y52850D02*
Y55756D01*
X48000Y39000D02*
Y50000D01*
X46000Y52000D02*
X48000Y50000D01*
X321000Y47000D02*
X321150Y47150D01*
X300000Y45500D02*
X304000Y49500D01*
Y51500D01*
X305402Y52902D01*
Y55756D01*
X286000Y77000D02*
X290150Y81150D01*
X286000Y73500D02*
Y77000D01*
Y73500D02*
X288500Y71000D01*
Y62500D02*
Y71000D01*
X286000Y60000D02*
X288500Y62500D01*
X302252Y104252D02*
X308400Y110400D01*
X341600D01*
X352000Y100000D01*
X338200Y108800D02*
X341000Y106000D01*
X314850Y100244D02*
Y106350D01*
X317300Y108800D01*
X338200D01*
X324299Y104299D02*
X325000Y105000D01*
X336000D01*
X341000Y100000D01*
X366417Y44055D02*
X371000Y48638D01*
Y76500D01*
X368500Y79000D02*
X371000Y76500D01*
X363500Y79000D02*
X368500D01*
X361500Y81000D02*
X363500Y79000D01*
X361500Y81000D02*
Y91000D01*
X358500Y94000D02*
X361500Y91000D01*
X349000Y94000D02*
X358500D01*
X182197Y111740D02*
X191571D01*
D26*
X362205Y11811D02*
D03*
X11811D02*
D03*
D27*
X366417Y34055D02*
D03*
Y44055D02*
D03*
X356417D02*
D03*
X366417Y54055D02*
D03*
X356417D02*
D03*
X366417Y64055D02*
D03*
X356417D02*
D03*
X366417Y74055D02*
D03*
X356417D02*
D03*
X366417Y84055D02*
D03*
X356417D02*
D03*
X8000Y42000D02*
D03*
X22000Y110000D02*
D03*
X42000D02*
D03*
X52000D02*
D03*
X62000D02*
D03*
X72000D02*
D03*
X82000D02*
D03*
X92000D02*
D03*
X102000D02*
D03*
X32000D02*
D03*
X48000Y92000D02*
D03*
X58000D02*
D03*
X180000Y26000D02*
D03*
X190000D02*
D03*
X240000Y110000D02*
D03*
X328000Y38000D02*
D03*
X318000D02*
D03*
X340000Y8000D02*
D03*
X330000Y18000D02*
D03*
Y8000D02*
D03*
X320000Y18000D02*
D03*
Y8000D02*
D03*
X310000Y18000D02*
D03*
Y8000D02*
D03*
X300000Y18000D02*
D03*
Y8000D02*
D03*
X264000D02*
D03*
X274000D02*
D03*
X284000D02*
D03*
X128000Y18000D02*
D03*
D28*
X356417Y34055D02*
D03*
X8000Y32000D02*
D03*
X128000Y8000D02*
D03*
D29*
X12000Y110000D02*
D03*
X68000Y92000D02*
D03*
X200000Y26000D02*
D03*
X230000Y110000D02*
D03*
X308000Y38000D02*
D03*
X340000Y18000D02*
D03*
X254000Y8000D02*
D03*
D30*
X370000Y97000D02*
D03*
X218000Y42500D02*
D03*
X175500Y44000D02*
D03*
X95500Y44500D02*
D03*
X134000Y83500D02*
D03*
X200500Y113500D02*
D03*
X233500Y80000D02*
D03*
X346000Y73000D02*
D03*
X294500Y32000D02*
D03*
X194000Y46500D02*
D03*
X23000Y49000D02*
D03*
X305000Y43500D02*
D03*
X300000Y49500D02*
D03*
X340000Y36500D02*
D03*
X328000Y81500D02*
D03*
X341000Y100000D02*
D03*
X318000Y63500D02*
D03*
X133500Y71500D02*
D03*
X200000Y36500D02*
D03*
X162500D02*
D03*
X120500Y99500D02*
D03*
X318000Y31000D02*
D03*
X346000Y55000D02*
D03*
X343000Y44000D02*
D03*
X346000Y59000D02*
D03*
Y41000D02*
D03*
X348000Y65000D02*
D03*
X359000Y97000D02*
D03*
X355000Y99000D02*
D03*
X352000Y89000D02*
D03*
X351000Y68000D02*
D03*
X289449Y87449D02*
D03*
X286402Y90598D02*
D03*
X288000Y103000D02*
D03*
X341000Y106000D02*
D03*
X268000Y100000D02*
D03*
X263000Y94000D02*
D03*
X259000D02*
D03*
X255000Y96000D02*
D03*
X317000Y76000D02*
D03*
X303000Y78000D02*
D03*
X306000Y81000D02*
D03*
Y75000D02*
D03*
X303000Y85000D02*
D03*
X332000Y76000D02*
D03*
X150000Y78000D02*
D03*
X302000Y65000D02*
D03*
X356000Y91000D02*
D03*
X340000Y57000D02*
D03*
X314000Y92000D02*
D03*
X310000Y106000D02*
D03*
X170000Y62000D02*
D03*
X122000Y70000D02*
D03*
X166200Y25200D02*
D03*
X81000Y56000D02*
D03*
X46000Y52000D02*
D03*
X8000Y49000D02*
D03*
X286000Y60000D02*
D03*
X266000Y71000D02*
D03*
X66000Y74000D02*
D03*
X137000Y96000D02*
D03*
X161000Y94000D02*
D03*
X175000Y106000D02*
D03*
X146000Y94000D02*
D03*
X151000D02*
D03*
X156000D02*
D03*
X48000Y39000D02*
D03*
Y30000D02*
D03*
X25000Y38000D02*
D03*
X122000Y23000D02*
D03*
X80000Y66000D02*
D03*
X140000Y78000D02*
D03*
X122000Y37000D02*
D03*
X221000Y56000D02*
D03*
X229000Y64000D02*
D03*
X176000Y56000D02*
D03*
X295756Y43244D02*
D03*
X281000Y91000D02*
D03*
X221000Y64000D02*
D03*
X193000Y70000D02*
D03*
X208000Y80000D02*
D03*
X177000Y77000D02*
D03*
X310000Y91000D02*
D03*
X302000Y92000D02*
D03*
X306000Y90000D02*
D03*
X262000Y100000D02*
D03*
X311000Y49000D02*
D03*
X160000Y78000D02*
D03*
X321000Y47000D02*
D03*
X265000Y61000D02*
D03*
X162500Y17500D02*
D03*
X157500Y7500D02*
D03*
X67500Y67500D02*
D03*
X12500Y37500D02*
D03*
X347500Y27500D02*
D03*
X242500Y17500D02*
D03*
X347500Y7500D02*
D03*
X237500Y27500D02*
D03*
X262500Y77500D02*
D03*
X257500Y27500D02*
D03*
X82500Y17500D02*
D03*
X367500Y27500D02*
D03*
X357500D02*
D03*
X277500Y107500D02*
D03*
X177500Y87500D02*
D03*
X292500Y17500D02*
D03*
X257500Y107500D02*
D03*
X42500Y57500D02*
D03*
X292500Y37500D02*
D03*
X282500Y17500D02*
D03*
X92500D02*
D03*
X267500Y107500D02*
D03*
X232500Y57500D02*
D03*
X112500D02*
D03*
X247500Y27500D02*
D03*
X217500Y87500D02*
D03*
X212500Y17500D02*
D03*
X52500Y37500D02*
D03*
X252500Y17500D02*
D03*
X202500D02*
D03*
X122500D02*
D03*
X37500Y87500D02*
D03*
X267500Y47500D02*
D03*
X7500Y87500D02*
D03*
X222500Y77500D02*
D03*
X257500Y47500D02*
D03*
X167500Y7500D02*
D03*
X222500Y17500D02*
D03*
X4500Y110000D02*
D03*
X52500Y48000D02*
D03*
X49000Y3000D02*
D03*
X65500D02*
D03*
X115000Y26500D02*
D03*
X88000Y57000D02*
D03*
X82000Y81000D02*
D03*
X26000Y98000D02*
D03*
X191000Y3000D02*
D03*
X220000Y2500D02*
D03*
X244500Y3000D02*
D03*
X315000Y45500D02*
D03*
X307000Y48500D02*
D03*
Y63000D02*
D03*
X285500Y68000D02*
D03*
X353500Y112500D02*
D03*
X346000Y99500D02*
D03*
M02*
