M48
;Layer_Color=9474304
;FILE_FORMAT=2:5
INCH,LZ
;TYPE=PLATED
T1F00S00C0.01500
T2F00S00C0.03543
T3F00S00C0.12205
%
T01
X00125Y00375
X0025Y0038
X0023Y0049
X0008
X0046Y0052
X00525Y0048
Y00375
X0048Y0039
Y003
X0049Y0003
X00655
X00825Y00175
X00925
X00955Y00445
X0122Y0037
Y0023
X01225Y00175
X0115Y00265
X01662Y00252
X01625Y00175
X01575Y00075
X01675
X0191Y0003
X02025Y00175
X02Y00365
X0194Y00465
X01755Y0044
X01625Y00365
X0218Y00425
X02225Y00175
X02125
X022Y00025
X02445Y0003
X02425Y00175
X02525
X02575Y00275
X02475
X02375
X02575Y00475
X02675
X0295756Y0043244
X02925Y00375
X02945Y0032
X02925Y00175
X02825
X0305Y00435
X0307Y00485
X0311Y0049
X0315Y00455
X0321Y0047
X0318Y0031
X034Y00365
X0343Y0044
X0346Y0041
X03475Y00275
X03575
X03475Y00075
X03Y00495
X03675Y00275
X037Y0097
X0359
X0355Y0099
X0356Y0091
X0352Y0089
X0346Y00995
X0341Y01
Y0106
X03535Y01125
X0346Y0073
X0348Y0065
X0351Y0068
X0346Y0059
Y0055
X034Y0057
X0332Y0076
X0328Y00815
X0317Y0076
X0306Y0075
X0303Y0078
X0306Y0081
X0303Y0085
X0302Y0092
X0306Y009
X031Y0091
X0314Y0092
X031Y0106
X0288Y0103
X0286402Y0090598
X0281Y0091
X0289449Y0087449
X02855Y0068
X0286Y006
X0302Y0065
X0307Y0063
X0318Y00635
X0265Y0061
X0266Y0071
X02625Y00775
X0263Y0094
X0259
X0255Y0096
X0262Y01
X0268
X02675Y01075
X02775
X02575
X02335Y008
X02225Y00775
X0221Y0064
Y0056
X02325Y00575
X0229Y0064
X02175Y00875
X0208Y008
X0193Y007
X0177Y0077
X01775Y00875
X0175Y0106
X0161Y0094
X0156
X0151
X0146
X0137Y0096
X0134Y00835
X014Y0078
X015
X016
X017Y0062
X0176Y0056
X01335Y00715
X0122Y007
X01125Y00575
X0088Y0057
X0081Y0056
X008Y0066
X00675Y00675
X0066Y0074
X0082Y0081
X01205Y00995
X02005Y01135
X00375Y00875
X0026Y0098
X00075Y00875
X00045Y011
X00425Y00575
T02
X0008Y0032
Y0042
X0128Y0018
Y0008
X018Y0026
X019
X02
X0254Y0008
X0264
X0274
X0284
X03
X031
X032
X033
X034
Y0018
X033
X032
X031
X03
X0308Y0038
X0318
X0328
X0356417Y0034055
Y0044055
X0366417
Y0034055
Y0054055
Y0064055
Y0074055
Y0084055
X0356417
Y0074055
Y0064055
Y0054055
X024Y011
X023
X0102
X0092
X0082
X0072
X0062
X0058Y0092
X0068
X0048
X0052Y011
X0042
X0032
X0022
X0012
T03
X0011811Y0011811
X0362205
M30
